<mxfile host="65bd71144e">
    <diagram id="CEq0DkR0caGXi7iFeCsH" name="第 1 页">
        <mxGraphModel dx="1434" dy="1134" grid="1" gridSize="10" guides="1" tooltips="1" connect="1" arrows="1" fold="1" page="1" pageScale="1" pageWidth="1600" pageHeight="900" math="0" shadow="0">
            <root>
                <mxCell id="0"/>
                <mxCell id="1" parent="0"/>
                <mxCell id="2" value="" style="strokeWidth=1;shadow=0;dashed=0;align=center;html=1;shape=mxgraph.mockup.containers.browserWindow;rSize=0;strokeColor=#666666;strokeColor2=#008cff;strokeColor3=#c4c4c4;mainText=,;recursiveResize=0;" parent="1" vertex="1">
                    <mxGeometry x="10" width="1930" height="1080" as="geometry"/>
                </mxCell>
                <mxCell id="3" value="Easy社团" style="strokeWidth=1;shadow=0;dashed=0;align=center;html=1;shape=mxgraph.mockup.containers.anchor;fontSize=17;fontColor=#666666;align=left;" parent="2" vertex="1">
                    <mxGeometry x="60" y="12" width="110" height="26" as="geometry"/>
                </mxCell>
                <mxCell id="4" value="http://easy.rolin.icu/sso/login.html" style="strokeWidth=1;shadow=0;dashed=0;align=center;html=1;shape=mxgraph.mockup.containers.anchor;rSize=0;fontSize=17;fontColor=#666666;align=left;" parent="2" vertex="1">
                    <mxGeometry x="130" y="60" width="250" height="26" as="geometry"/>
                </mxCell>
                <mxCell id="6" value="" style="rounded=0;whiteSpace=wrap;html=1;fontSize=19;labelBackgroundColor=none;labelBorderColor=none;fillColor=#FFFFFF;" parent="2" vertex="1">
                    <mxGeometry x="4" y="210" width="1920" height="775" as="geometry"/>
                </mxCell>
                <mxCell id="7" value="" style="dashed=0;outlineConnect=0;html=1;align=center;labelPosition=center;verticalLabelPosition=bottom;verticalAlign=top;shape=mxgraph.weblogos.xanga;fillColor=#000000;strokeColor=none;labelBackgroundColor=none;fontSize=19;fontColor=#f0f0f0;" parent="2" vertex="1">
                    <mxGeometry x="42.31" y="121" width="147.37" height="80" as="geometry"/>
                </mxCell>
                <mxCell id="29" value="" style="shape=image;verticalLabelPosition=bottom;labelBackgroundColor=#ffffff;verticalAlign=top;aspect=fixed;imageAspect=0;image=data:image/png,iVBORw0KGgoAAAANSUhEUgAAAggAAAE7CAYAAAC4+nn9AAAgAElEQVR4XuxdB3xUVfb+prfMpPdCCQmh916kF0UFEQUVFQusC5ZV17b6X9eylnV17X0VdVUEpCMiCEoPvSaBBJKQ3ieZPvPe+//OnUwSeoAEMube3TEh894t33kz57unXZnFapdUKiV44whwBDgCzYWAmn/HNBe0vF+OQJMhIEkSnC4XnE4P6HcZJwhNhi3viCPAETgHApwg8EeDI+AfCBAxsNoc8HgEyGosNkmtVvnHzPksOQIcAb9EgBMEvxQbn3QrRcDhdMHhcHGC0Erlz5fNEbiiCHCCcEXh5oNxBC4LASIIdruTE4TLQpHfzBHgCDQKAU4QGgUTv4gj0CIQ4AShRYiBT4Ij0DoQ4AShdciZr/KPgQC5F+wObkH4Y0iTr4Ij0MIR4AShhQuIT48j0AABIgg2uwOy6hqrpNGoOTgcAY4AR6DZEOAEodmg5R1zBJocAYfDCRvFIHCC0OTY8g45AhyB0xDgBIE/EhwB/0GAEwT/kRWfKUfA7xHgBMHvRcgX0IoQIIJAtRC4BaEVCZ0vlSNwtRDgBOFqIc/H5QhcPAKcIFw8ZvwOjgBH4BIR4AThEoHjt3EErgICnCBcBdD5kByB1ooAJwitVfJ83f6IACcI/ig1PmeOgJ8iwAmCnwqOT7tVIsAJQqsUO180R+DqIMAJwtXBnY/KEbgUBDhBuBTU+D0cAY7AJSHACcIlwcZv4ghcFQS8BMHOsxiuCvp8UI5AK0OAE4RWJnC+XL9GgBMEvxYfnzxHwL8Q4ATBv+TFZ9u6EWAEwcotCK37KeCr5whcIQQ4QbhCQPNhOAJNgAARBIu/EwRJkiAIAhQKBWQyWRPAwrvgCHAEmgMBThCaA1XeJ0egeRD4QxAEURThdruhVqs5QWie54T3yhFoEgQ4QWgSGHknHIErgoBfEwSyHNBLFAV4PAI0Gs1FEQQJEgAZuM3hijxrfBCOADhB4A8BR8B/EPA7gkDWAnIneDwe0O/UiCSQljfoDY0mCB5RQLnThhCNHiq5wn8kxmfKEfBjBDhB8GPh8am3OgT8hiAQCXC5XHC5XZDLZJDLvfEGDWMOGutiECUJmdVlyLOYMSAiHgaVptUJni+YI3A1EOAE4WqgzsfkCFwaAn5BEMhiYLfbmaVApVJBqVTC5nQjp6gcx/PLUFZVA5dHgEGnQWxYENrHhiEmPAgaleoMVMitkG81Y0NBFjQKBa6N74QAThAu7enhd3EELhIBThAuEjB+OUfgKiLQ4gkCBR/abDZGDNRqDcrMFqzYfAA/bTuIY3klqLE54HJ7QF4GhVwGrUaNsMAA9EqKx7QxfTG8RxKUSq8LgSIOKpw2/F6YhYMVRegUFIFrEzrBoFQ3uQgcDgd27dqFarMZg4cMQVBQUJOPwTvkCPgbApwg+JvE+HxbMwItmiBQnIHFUgOtVgeZXIHf9h3Dv75Zg90ZubA73XUxCKcLkNwOSoUcISYDHrplNP4yfQwUcjmsbhe2FGdje0kO3KKAPmFxGB/XETrlmZYGX59kcRBFCU7Bw65rbBolzX3dul/w5Rdf4I6ZMzFu3HgolSrI5VcvJJLFatQ2+v10Fw0jUbWuHPqdXDZOp5OljxJBawnNt4bGyqElzJnPoR4BThD408AR8B8EWixBoADE6upqlpngEiR8/8tOvPHtWuQWV5wXXVIcRr0WY/p1wn03DMWwHkksctolCthXno/1+Zmwe1xQK5S4Jro9BkS0gfosQYqkSolElNotOFRZhPamUHQwhjaKINDca2pqcPToUfz002pkHjuGhDZt8OCDDyIyMqpu/hRT4XQ4oDcYIJfLz+ib+qG/+xr9m1wtZJ0giwQp7gs1UqgWiwXHjh1j/SclJcFmteL3339Hx44dERIaisjISOa2oUbEZsuWLQz7gQMH4v3330NMTAxmzrwTOp3uQsNd1Pu+LBS6idxItFZf4GlDQuK7jt6vrKzEvn372Nyaej4XNXl+8SUhwAnCJcHGb+IIXBUEWiRB8Cq1GshkckhyJRas24mXvlyFwjLzeUFSKRXoEBeOB6eNxtQRvRFo1LMURkESkWkuw8rcNFjcToRpDegXHo+uIVHQn+ZeoABGshaUO6w4UFGIDHMpOgWFY1RsEtRyrxI9XysuLmbBlAsXLsSyZUtht9nQs2cvTJs2DUOGDoVer2e30zW//LIWa35agxsn34h27dqhTZu2TOmTsiwrK8Px48fRtk0bqDUaaNRqpKensz5pjH++8irCw8PPmArdS/j5ikbROC+/9BIOHTqEBx96ECqVmt2fm5uDmOgYbN68GU88+STi4uJYX6WlpZg//0ts3rQZERERyM3NhdVqwbPP/R9GjhzJrAq+LBJS4kQ6aK5arRYBAQFnJTnULyl3chfRTx+xqaqqQlpaGrsvMzOTzaGsrBSlJaW4aepUGAwGZsE4fPgwXE4nunXvzjD49n//w8OPPMKIS0uxbFzoueDvexHgBIE/CRwB/0GgRRIEl4vqP1thCDDh113pePzdhcjMK2HKh1wHpMQFQWQxBb5G5KBncgIemzEWEwZ2gU7jjSsgZZlrrcLq3DRUu51obwxB3/A4xAcEQymr352TK8HucaPYbsExcymOVBajyuVAoikE1yV0ZumQjWn/+c9biI6OQWL79mwnfuDAAaZ077zrTkyceC1TehRTsWP7dnz62aeoqqxE7z590bNHT0yYMB5yhQI7d6bil19+QVZWFgYNGoTk5I7QaNRMMdL7I0eOQq9evdChQwemrPPyTrI6EGRZKCoshEarRZ8+fZjiJYKwaOFCKJRKpmwrysuhVKnQq2dPhISEIL+gAG3atEFiYiK7dteunfj0k0+YxYHuGTJkKGKioxmOffr2xeDBg1FQUIAdO3YwawQRm9dffw0hIaGMBMXGxtaRBJpbdnY2SkqKkZSUzObmEQT06NGDXUPro7Hi4+NRUVEBrU6HQwcP4tixo5g+YwZumnITNm3ahO+++w4pnVJw3bXXobKqEjtTdzKiNW7cOPTr378xYuHXtBAEOEFoIYLg0+AINAKBFkcQSBFVV5uh0+lRZrbh4be+x6+709EuJgwpbaIQFmSE2+NBXnElDh7PR1F5Nai6crfEWDwxcwImDuwGncbrLycCUWa3YE1eBqweF7qHRKNzUCQC1do6JUbEwCF4UGA145i5DMeqy1DusEGUREToAjAutiMSA0OhaEAmzoUrzf2lF19Ar169kZaehuXLlyM2JgZdu3bF0GHD0K1bd6aUi4oK8dijj+L4iROYOXMmJk+egtDQUOZOMZvN+OijD7Fq5UqMGj0a1103CVqNBtt37EBGehqKiorRISkJxoAAzJ03j2H1j3/8g1kFyC2g1+nZTv/2O25HeHgEIwVkdSCSQhaHA/sPsDHatmsLk9GEqOho9OvXjxGNn3/+GVlZmSgpKUF+Xh5TwrknTzJFHGAIYDt4Iiwbfv0Vb7zxLwwePASDBg/G4sWLmGti9uzZGD16DLMSEBZEhBYvXoyv5n/p7cNoRFRUNCZPnsxcJTt37mQWDLIoOBx2FtAZHhHB5hgdHY3JUybjww8+gCEggBGo/Px8Bn1NTTWyc3Iwb+48TLz22kY85vySloIAJwgtRRJ8HhyBCyPQ4giCN2vBCqPRhGW/78Mj/1mA3iltcN8Nw9CvU1sEBeiY8jlZUoltB7OwZvthZBeWYc6U4Zg2qm+d5YCWXum0Y2vxCTgFgZGDtsZgKGvjDYg8kMWgwGZGVnU5IwelDguzTlALUKoxJKodC2Q8XxBjQ4hpB//B++9h3PgJ+HHxYhw5cgSdu3Rm8QK0g+7duzcz29NO/aknn0RhUSEz848eM5opVjLTkw9+1aqVbJd89GgGbrjhRqZM6b3DR45g3949mDTpenQnZT14MIsvWLDge+zZvZuNN2XKTejdpw+MRiOLMSDz/xv/+hdOnjyJwEATC7ikXXigKRB3zLwDAwcOQmBgINasWYPNmzchOSmZEYgdO7YzgkBreurpZ1hfNO/PP/8cW7dsxsm8PPTv358RCZvNjonXTsQtt9xa5/agWIG1a3/G6lWrmPugb9++GDR4CK677jpmRdm+fTu+/uordEjqwNa2d+9e5i64++5ZiIqKYmNTXATdT/+mRm6SktISRoKuGTGCjU8uD978BwFOEPxHVnymHIEWRxCIHFBZRDKTz37lKyzasBv9O7fDI7eOweh+naBV10fTkzI9UViOk8UV6JWcgMCA+iA6m8eFjKoSCBKQaApFkEbLiiqT+qcYg5OWKhw1lyDHUokSu5XFKVCjmAUKYOwWEoXhUe0R3EjXAnNl5OYiNyeH7YhXrloJwSNAp9dBLpNj5KhRLLCOlCDttj/68EOk7kxFQX4+/vTAAxg7dhxTikSQHn74IURERGL7tq3MhE5mfHp9/PHHyMrMxIsvvoQJEyeyfg4eOIDikmKsX78eW7duZYqc/k7zeeKJJ+Gw27FgwQJWjppiGcilERBgRHLHjiw4sUNiIrr36IGcnBw2flhYGAoK8rFyxUps27YNY8aOxc1Tp7JASiIqtKOnwMu+ffux9ezZu4fFEZDrYe7ceXUxAURM3n3nHXz55RfMfTFu/HhMmDAR3bp1Y9YbiitIT0/DoEGDkZqaiv/97xuYTIF47rnn2FrpGiIqP61ejeHXXMOIwN49e/Djj4sZ6XnrP2/XxU3wj7H/IMAJgv/Iis+UI9DiCAIpBYpOJ8Xec+YLyC4qh0alZCTh2VnXYXjP5DNSBWnXT9UVG7Yql51lIQSpdXWllF2CgHybmWUlZFdXoNJlZ8RAq1DCqNIgTBuACG0AwnUGxOhNjByc3u+5HhnaaW/fvg29e/dhPvp/vf46DAEGhASHICY2BsOHX8PqMZSVlaO8vIwpt+PHT+CXtWuZmXzr1i3MmkB+/C++/IKZ2bt264qJEyciKCiYBSy+8s+XmauAFPGt06ezHf0LL/wDOq0W0TGxbKdNL18KYJcuXbBt61Y8//zfccMNNzDzPREKIgekmLds3ozJU6awWIaGaYO0liVLfsTiRYvRf0B/3H//bAQHB7Prv/7mazaHQQMHwe12obSsDBRs2CahDcaOG4eePXt6lfnevVi6ZAlT5knJScjJzmHujtdef531RUSIXmTZWLF8GbN+EB4Uq3H77Xcwdwv1u2zZMkwYPx4yuRyff/YZ0jPSWSzCdZMmMTIiCgKLXeDNPxDgBME/5MRnyREgBFocQaisrGDuhZMlVeh55wtwuNxMUkQSbhs3AH+7+1rER4ZcUHqk+Em50/8onqDQVoO95fk4UVMBQRQRpNEhUmdkhCBEq4NRpYVGoWQpj0q5nO36T69YQESkzGGBxeNCuMYAo1pbVzeAFGqPHj2RkpLCUhzXrVvHfPkUfT9s+HB06tSJKWuKSxg/YTwjQWRmT09LxxNPPIGs41lQq9ToP2AAy4BYuWIF/vLooxg+fDhTlF988V/M//JLZh3o06cvXnzpJRYQSH55UpQUkEh9klm+obLft28v9uzew5QoXU8BiXq9jmFMwYvkiiD3gEbjdW+Qy+LA/v349NNPWWzH+AkTcf3117PrKF3TXF2NoxkZzPpwJO0IK15FlgR6/81/v8HiBebNm4clS5aw99QqFYtzMOj1zMIxe84cFodBjdItlyxdwnCiTA+KbRgxYgTDi9ZE6/7+++/QvXsPRhjW/vwzJEnE0GHD2ZgU2JiauoPFaTQm5fOCDw2/oNkR4ASh2SHmA3AEmgyBFkkQyCeempaD0Q++yaLzfS02PAjvPDoDEwd1ZYWPLtQoANHmdmFXWR6LR6Cgw1i9CUEaPTRyBeuDgg9JEV7oTEcy2e+vKMSvBcfQJSgKI2M6QK1QMKX6w4IF+PXX9Xj9X2+wXTLt7CnWwJfTTxH/RUVFGDVqFPO3kyLPy8vD0qVL2M6bdsM+BUcBfmTKX75sGSbVKmaf4qbMDioZScreZDI1SilS8KGvVDWRB3Ij+AgEBTW+8cYbSEhIwKxZs1jGwf899xw6pnRkc0xM7MBIkkarYS4Q3xypP+qDyAr99KUakqJPT0tD3379GHGitVCf1BeNQdeTdcFX24HWlZZ2hGUpHDx4kI1x++23MwsDNSIrq1evZnENlNmiUCiRk53NYi4opqO8ohxWixULfvihLn30Qs8Ef//qIsAJwtXFn4/OEbgYBFosQdhzNA8j/vwvuBsQBIVCjkduHY3HZoxDaGDABddJO/5qlwMBKnV9FgKzKnjbKYV6RIHFDFBrqMTo39QPBTIuPnGAEYwb2nZlmRC+PigaX61WsSwFUmjkK6c8fSI6bKdsszHlSMF5DXe6pCDPVs2QSIAvhbM5KwbS+mmX/tmnn+KRv/yFkZvs7BNMMX/y8ceM0FA66b79+/D88/+oW8/5gD+90qGvYuP57qGaF9knshEdE8OsC741071ElohQ+F5ETqjI0+JFC2GzO/DIww+jV+/ejSpgdcEHhl/Q7AhwgtDsEPMBOAJNhkCLIwhVVd4gOkpx7DTjOdgcrlMWO6BLe7z/+G3o2j6m0UrBp7ToJyllMlOTZYL5wT1ueNxutssm5U3R/RQg6VNS5KqggMal2YdYLMPUdt0RpTeeUwC+Mej+hlUQL1ViPivExfZ1PsV8ep+nX0tYUDAjWTsoOJHa2YhKw9LNp7/vw+FSTP9EpnyVHU/HrTGE41Kx5vc1PwKcIDQ/xnwEjkBTIdDiCEJ1TTU0ag07e2HI7NdwICvvlLWaDFq899htmHJNr3NWZaMdv5tM66IASRSZ8qdgNrIQCEQIPJ4zznEghURR9GQO9yk76oeCGn/KTYddcGNSQie0P0+5ZVK8LO3Pbmcmb8rlP5eia4wAaZ7FxUUsPoDqJFyMNYHqIpAFg5R8w0YKloolkbUgLDz8rGmChBeRJ5r7+eZfVlqK8ooKRqyiIiNZ/AHNkcagOIyKinLExsbVuSB8ZZ/PVnHRN0fCcN/evSxV82zkgCweZInh6Y2NeYJa3jWcILQ8mfAZcQTOhUCLIwhkUiYFRUrg6Q9+xNsL17Pc/YbttvH98caDtyDU5N3dnt48ooAqhx2VdguqHDbUOOyMLFDYIbkXfMGL9JMiGeivAXo9DHoDi0tgf5dRfIKMlVvOqalkpZl7hMacN6uB/O2/bdzIMgnCI8LRvn0im5qvfDJZAU6cOMHIQ9u2bVm2A5ViDgoOZn53ikvwxS/Q+skvT2mNHVNSWNZDcVERIiIj2f2USUC7/PaJiUxZUoolrY3M9KSAKYPAFwtALgPqjwgLxULs2bOb9UEVGinYkGIbiEhQTIK5qopVazx+PIsFNdLZEVTAiKwq1C+96Dqa78aNG1nJZsIvsUMHFqCZn5/HUjQpE4LqFvTr15cRLxqD/kbBmxR4SX0TXjQPKplM1RYpgyUuLh5vvfkmptw0BWFh4czlQJkORJZo/pTNQWmQRPxycnMQH5/AUjN58w8EOEHwDznxWXIECIEWRxB8JziSUtlyIAt3vfhf5JdWnSKtiBAjvnruHozoncICDM/YaUKCmw57ctrZ8c5lDiv7Wem0sfLJNk/tSZAyMNJAL7VS6T0noJYYhGoN6BocxbIaiJ7EBwSd9VCnhmNTsGJUdBQLPCwrL2fWCFJ6pFRJQUZHRWFHqrf2wY2TJ2Pjxg0IDg5hGQDBQUEoLCpiyjc+Po7t8KnYUGVlFZI6dGDDVFRWspTGyKgo7N+/H0GBgaw6ISnbI4cPsyIOHToksVLG33z9FYYMHYYVy5ezDAoKIKRjpynNsay8jBEDIiNUz4CyEoh40E8iCmStoPoGdJ/T6WKZGERESDlTiWeqtjhs2HBWCIn6VSlV7H4iPESOaN7dunbFscxM1hcFVBKRIAU/f/58FhBJpC91xw72Ph1kRfdQdgVlLLzyz39i/IQJrD8iE5TdQBjRHMgy0r1bN/z2229szE6dUpiVgjf/QIATBP+QE58lR6BFEgTfQU10NLLDI+HFL1bikyW/wS14CxlRIzM2uRg+euKOU4ojnUuklOZo9bhR43ayoEUiC3QYU6nDysgDlWH2VVCkPgxKNbMYDIhIgEGlOSPd8VzjEEEICQ1B27bt2C6dYilop0tKnAgCBTKSwqUqhZSat23bVowZM5alKpI1gM4kIKVttdlA6YnTp89gVQiJLJBVo3379kxx046ZSi6PHDGClUdOSk5mRIksL3QY07Bhw2oJwlC88/Y7eOaZZ7Bk6VJWfZGUbnR0FNvNZx7LZAdIURXGTp07s0OZiKDQvMnFQOdJ7Nq1C507d2a1Ez755GOm5Gl9VBXy55/XoKqyipV+JgsH7fyf+dvfWNGjfn37MWVOSjw97Qg7spsKHn3zzdf485/nYsWKFaiprka79u1BcSdEpqh0M5Gpl19+CY899jjeffcdVhly9+7dLD2TgjePnziOAQMGsnMpaCzKoLiUOAf+8b86CHCCcHVw56NyBC4FgRZnQaBFkBWBFJhOr8eBYyfxzEdLsXFPxilKPECvwfP3Xo8HbhoBZSOOPfaBQ/kBHlFk1RSJNFg9Tnb2Qp61CkW2GkYikkzhGB7Tnh3QdBYDxTlxJkVPpYHJEsHqFfTti8LCAmRlHWfnHdCaaKdPu2UyoVM1QToMie4j33v2iRPMzUCmevLnk3uBFCCd5VBRWYGcnFy2Q4+Li0V5WTmrgEi1FWhnTUWayD1DO3CqJUDlmmm3v+D7Baz2AB3+RBYBIi5EAuigJbIWHD16DKUlJbjzrrvYMcq006cCSzRHqstAc+7Ttw9iYmLZWD+v/RlPPvkkOyuDKiBSHzQ/Inb/++YbdhCUIHhq15XH0hHpLAjK8CBSQfUcUlI6MYvApk2/MzdHQnw80tLTmaK/5prhjDxQsSQiGlSCmo7NJouH72AqOuti7dq1zD3Ru3cv1gdv/oEAJwj+ISc+S45Ai7Qg+MRCCtObZeDB9iM5ePGLVUg9fOIUkhAVYsIbD03DTSN6N6ouAgtWFMVTigmR+4AKJzlFNxwegQUj6hUqVkipsVUU68iHJKG8vJxZAbxBjya2+6c0R/qdLB+knKnR+Qz0nq+8MsUJUI4/mc7pYCeqSEhFo8iSQrtqIhy0w9frvQF69G9SzlSa2uV0MZcD+fS7duuGAQMGsCBBX1wBxQuQBYOKDdE4ND+KSSDyQS4QUu5Ua4Dm5kvHdLu8VhUiOzRHupZSOPU6HTsHgdZChIR+Ur++0sj0N/o39U/yoz7JQkHWi9i4OFbcyNen2VzFLB50Lc2PxiZc6HcKsKS50Xs+PGmevnX7YhqIaNA1vPkHApwg+Iec+Cw5Ai2WIPjy36mUr1yugEarw660bOZu+G3fMZab72sxYYF4btYk3DFhIOjI5/NF+hM58HgopVFkSvZspmkiDBdjNWiqx4ii8zMyMqBSKdG5c5czsg/ONQ7LSqioYKWKyfVAAXynZy401RzpeGZyg1xMBgERFbJCkOL3FVRqqvnwfvwPAU4Q/E9mfMatF4EW52IgJU4KxedbtlosrA4/mbQLy834bPkmLFi/CwVlVXC7BVZGOdhowN2TBmP2DcMRFxHMiMLpzeu2sLMdOe3uaXdLY1xOGmJTPjbnqynQmHFOL1DUmHsu9ppLrUFwqfdd7Pz49S0fAU4QWr6M+Aw5Aj4EWhxB8FU39BUG8pUJpuJGVA9AJpPjWF4pfkk9jK0Hs3A8vxR2lxtKhRx9OrbBPdcPRb/O7aCuJQk+V4WPHPhKDdPf6UVWhIupL8AfHY4AR+DSEeAE4dKx43dyBK40Ai2OIJwNAFLkTpcT5Bf3WQCIQFAqo9XmRHm1FS63gACdGmGBRui1KuZXp9oHbhe5FMhfr2OmcU4GrvQjxsfjCNQjwAkCfxo4Av6DgF8QBC+cEquESAFrpPi9ZxjQQUunRwxIjBywksoAlAolC5q72FLF/iNCPlOOgP8gwAmC/8iKz5Qj4EcEoVZYpPxro9l9WQlEHryNSIP3DARyHSiZm8H7N944AhyBq48AJwhXXwZ8BhyBxiLgfwShsSvj13EEOAItDgFOEFqcSPiEOALnRIATBP5wcAQ4AlcMAU4QrhjUfCCOwGUjwAnCZUPIO+AIcAQaiwAnCI1Fil/HEbj6CHCCcPVlwGfAEWg1CHCC0GpEzRf6B0CAE4Q/gBD5EjgC/oIAJwj+Iik+T45ACzzumQuFI8AR+OMi4M8EQRIF2OhUVl0AVEp5nZAElwOVNQ6EhARB3swJU3ZrDdySAkaD/qxH3Z/+5HicNjglJQxa9SlvuR02CHI1NGrlGaXlKUWc2pmp4RLcTiecbhF6g/6MtUqiBx5JAZWi6UAQBQ88ggilSs3G87gckBRqqBT1+P9xPy1Xf2XcgnD1ZcBnwBFoNQj4M0Ewl5zAihXrMeSGGWgXXn9AWHXeYfzn8+WYcs8cdIsPaT5ZSm6sXfQVKgI64eZxA1n12Au1A+u/x1FZCqaO6gnJbUdJWRVUeiNKDm9CNuIxpn/nU8gOJA+yM4+h0i4hKbkDAhoQC0lwIWvfdmzLtOHGqRNgUp46et6hTciwBGNI3y5QuG0oyMtFWbXtvFM0hYQjKjwENVUVsDlcDa6lQ+AMUMGCrBMF6NCjH5SOcuxL3YHgTkPRKzGyliCJsJorcTK/CMIFwNDqTYiMikaA9rSJXwjEVvw+JwitWPh86RyBK42A3xIEScKWJe/hh1QnHv/rbMhqSlFtdTL4PLYyfP72v6HpOwN3j+1eC6kCQaFhiIoKxYXV+LmkIKGqrBB7d+5ENelOwYqfFi6ENnk4hvdsB4XPXKHQID6xI3p2anfKWJLLjOfn3YPQiU/goSn9UXLiAH78aQtSBo5DWPVufLjiGB578iG0jzDVT0BwYMf6FViybg8GTJiC8UN6Qa9Rsfcltw3bVy/Ad9uq8OwLf0HEqUYJbF/2ET5Zthc33f0ABnQIwea1q7ArM6+ubxmLuj4AACAASURBVFv5SezLtmBAn07wnZbToVt/DO/bGQd3bUducWXdtYU5x6GP6oOpExOx7IcVCEzoBJmlELnlLoy5YTr6pUTDZAwAEZqco/uxctVGOM7zMNut1RDUgZh86yz0aBt8pR97vx2PEwS/FR2fOEfA/xDwV4LgrMzG88+8jEF3P4mR7fXY9vtGHM2vgOSxI6egHFqZC7LAGESatLVC0aJzz74YOrwnTtOjFyE0EUd2bcD7732EkKRBiAnWnXGv6LHj+PFMmDqOxDMPTINXlXtb3p7lePDlpXjlow/QwejGhlWLsS2zBjNmzkQ7kxNvv/xPONuPwl/uuRG6BufbOS1l+OXHb/HT/nLMnvsAurWLYuZ9L0FYiB92WPDci3MRctqZeJLbiiVffoh1hyow5+GHkRAoh81ZbxXI3fYDHp6fie8+egY+lDQ6AzxVBdidnovwyCgYdRpYizPwzntfoe/UB3HPdV2xZuF8LPplPwaPnoixI/qhPDsN29PKcN+fZiFIDTjtVlRUmlF/xu+ZEOdnHcaGrakYMfVPGNAh7CJk0Lov5QShdcufr54jcEUR8E+CIGDNpy9gQ1lbPHzPJGTs3gwYoxEZYkTGjjX4fsNR3H3fLLQJM8HjtMApaWHQaprAguAlCF/MX4DuY25FSkyDnX6t1ARnDXZt+xXlAT1OJQiCFe8/MxfF7W/D3+8fjfyMXZj/7VIkD5uCKaP7Qa2Q4eTBDfjHq5+j/7QHMOuGIVA1MHVYyvOxfXcGknv2QXx4IDPnewnCYizaacPfX5wD01lCDaxVJdi9Lw0duvVBTGjAKc9W1ob/Ysa7h/Hbj/9GQ6pjLjiGHxYvh7ZNH1zbLx5ff/AGTmp64PF5dyM6SI38jD346ptFUIXEQO6sQonZjcQegzH95gkwKmUoK8jGz6uW4ESx9ZzPssVcDrvcgNvuf4QThIv4xHOCcBFg8Us5AhyBy0PAHwlCwYH1eOilb/HUyy9AWZCKBasPYPq8h9FWVoh3P/4SQSnDMfOmcQjUqbB6/hvIVfXBvbeNPGU3f2moeQnCB+99jNCUIYgL0Z9pQXDbkZmVgYCkEacQhJzUlZj39GuY/dZyjIixYP6HH6DSmILZ99xab+UQnEhduwD//mIlrplyL6ZNGICSnAxUWT3QGIOR2CYBQSZDXal6wWnBpqWf4Mc9HvztH08g0mcGAGCtLEF+aRVFNiIgKBQxYcGAsxq/b9oBfWwSeqS0Re7GsxME0ePEiSO7MP9/i1BeVQlFWAISgsIRGRXE1iu6nSgrKcChg4dh08XjgTmz0K97Rxg03lgCu8WM7OPHYLZ5zglz8clM7Ms4jgnT/8wJwkU8jJwgXARY/FKOAEfg8hDwR4Kw4YuX8eQnP6NNuzgoIMeg6+7ErIndsPTr/yLTHYlZM6ehbYR3l521ew1efW8hbnnwOYzt3fbywIKXIHz7w0qMvHUuerU9MwDS46jCxjU/IM2VWEcQBGshXn76CazekYHnP1+B0rVvYnuhHg898hCSY4NPyVoQXDbs/X0p/vPZMrTvOwYpITakZeTCqg7FvXffiS6JcXVr8Nirsfbbf2HBPhce/9vf0S2qnrBk/r4Sn67eBJu5Ep1GTcOfp40FrEV4972vEdpjGKaMG4iC385OECC4cGDLavz73fmIG3Qj5t4+BsePHEXDkMWAwFDIrUVY8P0PqEAYxl87HtcMGgCNaIHzQtGJ5G7JPIQ1Gzaiz9jb0atdOIKCTNCoGzpkLlNUf9DbOUH4gwqWL4sj0BIR8EeC4LJb4fRI2Lfqc3yytRL/fGYOdq76Ch8v3IjouHgEBeggSh6U5hXCLrhRUVaJLkMn4d7JI7Dym0+w8dDxixbFzXPewrwZPRhBeO2Ff6BMCoZGfZrTn22vBdjcRFpuw/0Tu+JEiRXHt6/GhtxqOLZswZ2f/wT5vu+RUV6Do5knz0hppC6SBl6PGcPawiyPQEKYDlk7f8Wi3/Zj0s3T0TO5Td3c7dUV+O6NZ7H0qBtzH3kK4wcm1r0netxwutzY8Pmb2B/QDU/PuhGwFuKtt75AaK8RmDZxsJcg/N/36Nc7hQUpGkKiMGrEUJSlbcGS39MwaOQE9O3aHgaNCkJtqqVvAO+BexLsVWYcy0jFosU/Y/hdf4O490PszD4TXqfDAptLjmCTl8SIkgCPR4BCqYIisB2efPJB9O/c/jICSC9apH55AycIfik2PmmOgH8i4I8EgZmxSzPw6CPPYspj72JMNxMO79mFnXsPYNfm32BKGYrxIwdh2bvz0GbaOxifCPww/1skDBiPrvF6FFXUXLSw2nYahC7tgpC2eyP+t2AFhky5Hz3aeE3uDZtgN2PTusVYf6ACwRo3IjsNg8GSjQHXT8CXcx7BTZ/+hFHtVSgrPIkDu1Kx9vcdSOw9BP26tGfd/PzdO6iOvx2vPDi2rtvjqevx/frduHbqracQhKrSfLz9j3k4JiVhyPAxuP+WcVA2iEOQJAnrP3oVO7Wdz00QXl2Hp+ZNBzkH1Dojkjsmw22ugNoYhsJti/HmjzsQE332LAPRWYMjGcCbX72GrhFGiEodVHAhJzMdWYUO9B/YCwEaJXOJbPryVbz4SyUWffkKTCo5qIZF8clcmO0C4jskQt9w4hctndZzAycIrUfWfKUcgauOgD8SBI+9DP96bA5ORIzB3Ov7wmxzI6FdCtrGKvDe088jdMQdmDKmN9740wBE3/4t7h6aAKvFCo0pGJqzbPobIwS3rQxbtuxGdnYaUncfQY9hE9Au4tSgP0gibDWVOJi6HluP2jD9znsxecJw6BQSVCozHhw1DZM/WY0xSd5d9IkDW/HDyg0YPHEahvVKZn/78rV5yDROwUt/Hn1WgtA5PpTFJESEBuL43jV47f2lGDJ2FApzijDt3vvRPqzezdCQIDx+x0SINQX44INvT7UgnCVI0TfwjgXvYUVBLF54eDLkZ6k45So8gLlPfou5Lz+KHvERzBpCRaoObluLrxauQmBif8yYdiM6xIZhy/xX8cxnKzBl7iuYNb4zjh/agR8WLoEiri/uu2sG2kcFNkYMrf4aThBa/SPAAeAIXDkE/JEgVB5dh7kvfIWAAAP0OgPad+qJiRMnoX2QGS89/z76TbsHY/un4LXZ/RlBuHdkB0CSIEHWqGqHZ0PfYT6Jb778EWePy5dQU1WG7Mx0nCiohs5oQu9RN+HpebdBV5eJUI55I6fWEwRJxN7Nq7Hyt0OYNP1e9OoQzob9+O93o6rtXDw5q99pBGEXho4YAVveYWRYIzHvtmsw/43/Q6Z+EOZc1wE//LAciQOvw6QRfVhGBDUvQXgFm9zRGN8jAXKFDNs2br8ogvDNPg9mXD/grATBXXEc73++A0/95291BME7sIDC44exaNFPCE7ugR5dUlC48Ru8veEY4pRAVMf2KMwrRv+R1+P6CSMQGXhmuuiV+wT410icIPiXvPhsOQJ+jYA/EgTJaUZaTjmiIsIBtx3mGiuMwWFwFezBG/N/w4x770afjgn45321BGFEO5TkZ6OgyI6k7l1gUDdV6WER5tIiZB7LwO49+5BXVIb4DimQLDkoVHQ8rQ7CqQTBaSnHigVfIaPahHvuuxPRRm+A3ntP3QxXn+fw6LQedc/VsR2/4L+LVkGu1EBhiMCkm2+FqSwVr322Evc99SoGtlFh1Q//w/ZcN+646w6kxId76yRIIpa++QwWHKpESvsOmDBxOLatWd9ogrBv9df4dMU2VFbb0CGpHRpWbLZVlaOixgJzdQief/tpdIoOZRYEGtNmMSP/ZC6OZmTgRO5JVLqMSJJnY0lRGJ6ZEIv35y+Bod1A3H/XLUhKiIK6QZlsv/4wXYHJc4JwBUDmQ3AEOAJeBPyRIORlHsT+w+nILyqDw+mGzhiG7t06Inf3rzhoCcbsu25BXJgJL/kIwvBYbFu7FOt3leHeR+ci2nDptRQJMzKjF+Zl4/ChQziSfgxWhwehCckYMngwUuIM+GXZfOyqijsnQRjVToEjO9bhmx83oO91t2PyyF61sQMevDx7PEKmf4IHRvkCDgXs+HkRPvl6KeJ6jsTt02+CpioDb/z7fSSOmYU/zxgLtVxCYeZefPrZ11BEdsPM26eyWglU1fDNx2dityUes/90P4YmB+Dd/5wWpHgeF0NFXhbyy6rw89IlSBhwHa4d2Q9UFdlWWYL1q1egVDKhbUIS+g/qhiCdBh63Azt+XY5dh3Nhttqh1ugQEdMGHTt2QvWeJfgi04jvX52L/ZvXYNnPv8EKPbp0647k5BR0SUlEoIFbEi70vcQJwoUQ4u9zBDgCTYaAPxKEtM0/4ee9mQgJiUJkZCi0CgEZ+1NxNN+GcTfdhmv6dYJGKcfrD45GTaeHcefIBPy2ZiUKpQQ8/NCdZ5xZ0BgwJcGNwtzjOHwkDenpaSiosEBrCEFSchK6piRCLskRYNTCbi7B6qWL4IwbgifvnVxXwhjwWhBu/Ggl2tZsxxf/WwJj8jDcOnEIXJYKuOUq2Euz8O/XPsC9b3+PcUk+n7yIrAO7kJZbgW79+8Oeux+ffz4fyg5j8MjsaYg0arxWfY8D+7auxX+/XgpDfA/MnXc/4oI12Lr6e1hMHWFy5WPH3oPYvfsQtBEJ6Ng2BjV5h7B6bxluvWEEC1KkFhLVBsntE6FVeVglRKpMuX/zOvx2pBqz7rsNJrWMuQ82bN6FmE79MbBHMrS12Rw6YzCydvyEEkQgObEdgowauF0uqFQKbFjwKfagO754cTYow6IgJwPbtm3DgUNHoInpiTtuuRFta+ssNEYerfUaThBaq+T5ujkCVwEBfyQIdnMlqpwCQoKC4baWYsWCz7H7pIjx192Awb071Z2UeODXrzF/1SEYjRoIch2GjrkRYwZ3bqC0Gw+401aJr956GQcrtUjpmITOXbugbXw8oiJCoVU58P7fnkBqvpX5/QMj22LqHbNwTY92DdIYvQRh0vtL4d7+AXZVx+Ke2ybDYM3HihXLsSczD0qlFjEpAzHn7qlMEfuax+ViylohOfDVe28hX5uMe2bciJjTCjV5HBYcTN2ADYeqcOcdNyPMpIPHaYdLEHDiyG4cOJYPQRBY8SQ6GZIyCehkRrWqvv6AKSgYrupqnMw9CbdvAqIbxSUVCI2MZJYOh90Cq8ONAKMJGmV91GebHkMxrl8SlDoT9Bolju75HQsWL0VeuQU2p4Qb73kUNw/rVNurBKfdhtLiQjigRWx0FHS1hZYaL5XWdyUnCK1P5nzFHIGrhoA/EoSGYAluJyrKSuCU6RERGgS1ql5hUdGhsgozBFGCUqWB0RR4yUpIFAWUFRbALdewQ4n0el394UwQUZp/EjVOgaX0afVGhIQEQ9NgLoCAk0ezYIpPhMxWDrfSgJBAA0SXA2azGRa7E3KlCsbAYAQaGpREbLhYSUB5aRkUehOr9XC2RnhYHB4YA+j451qSIUnweNxwey5cwYiyFVxOJ0gRSRf5VNKx20HG+iwKp92CisoquNwC5Eo1QsMjoD9b7YiLHKc1X84JQmuWPl87R+AKI+DvBOEKw8WH4whcVQQ4Qbiq8HsH9zJnH3+WnbXaWQuYJp8CR+CyEeAE4bIh5B1wBK4YApwgXDGoTx2IfIcuSYBTcMNCZjqPnV0QoNSyl1apglKmqDfbXaV58mE5Ak2JACcITYkm74sj0LwIcILQvPjW9S5IIjyiAKfogdXjRJXThkKHGfm2cuTbq1DqqGZFVcLURsToghFnCEG0LgiBaj0MSg20ciWUcgUUsstLmbpCy+XDcATOigAnCPzB4Aj4DwKcIDSTrMhCQKTAJrhgdtlQ7rSi1FmDMmc1CmoJgV1wwS0KEFnMcH0jJ4NaroROoUa4xohoXTAitCaEaQIQoglAkFoPvUIDhYwqtTVVEZZmAoJ3yxFogAAnCPxx4Aj4DwKcIDShrERJgs3jRLXbgXKnBSUOM4odZpQ4qlHhsqLGY4dDcIOKsDakA/XxB2efjBwyaBQqGJVahKgDEK41IVIbyF6hmgAYVVrolWpuXWhCWfKumgcBThCaB1feK0egORDgBOEyUKUjSV2iBxaPkxGBIrIMMCtBDSqdVpjdNkYIREYJLjaJ5+wTI+sCS22Sq5glIVhtQKjGiAiNibkkyOJAhEGtUHLCcBmy5bc2DwKcIDQPrrxXjkBzIMAJwkWiSlYCi9vByAC5CvJsFShyVDGrgU1wwiUKcIuecxAC75nmvka/Xa6DgAiDSq5gLgmDQgOjSocobSBi9RTDEIwYXSAjDNwVcZGC5pc3CwKcIDQLrLxTjkCzIMAJwgVgZXEEHm8cQa6tAjnWMhTaK1HlssEmOOCk6mCicBkWAhkEjwC3y8O4g0qrhFxBToVLa0QYlHI51HIVIwyBah0jCm0N4YjTBSNYY2CxDXQNb5ePAMWaUKNDY2p/9cquNj6EE7NTMeYE4fKfOd4DR+BKIcAJwjmQdgkeZFQV4XB1PvLtFSyewCo4ve4CdpRr07gMXHY3Th4rRUluBURRQvsoPYa20cJiMqFKrYVdoWLEQS5JLMtBksnOiGA438Pic0koIGeEgYIdKUuiS2A8kgMjoVH4qqJfqUfujzKOBFEU4fEIteRAYkf8eoUkQSaXM6sNlZiVyxXsJ2/+eVgTlxtHoLUiwAnCOSRfarPiw93bsTk/EyqdhACDHHqtHCplfebA+RII6Cx4nzvhfNYAwS2itKAKpSerGPGIjTMhJUyNULcVepsVGo+bKR2PSgOnUgWnQgknnfAmV8ItV8Cl0TAS4VAoIci8lgeiEN7R5d7oB6q54JFgs4uw2US47XIMj03E/b0HIMIQ0Fqf/UteNxEDQfB468x7zQdeYnB6qzUpyOQKKJVKRhJau0WBWxAu+bHjN3IErjgCnCCcA3IKQCy325BbVYWDpcU4XFqIQls1HJITcrUAlVoCbb6VKjLp006RiIOvs3pycGqcge+CM60PZD2gRv3Qb+xV26FClKASBagFN5SklCQBSsigFTwwuJ3QupxQeNwQZTK4BQlOhRoVah2KVEZYPGqILgW0Mi2iDSZ0CYtEl/AotA0KRqiO6rvzne3FfOqoRr7H44EosLPnaqNIzkEQGnRMklcolVAolK2aJHCCcDFPG7+WI3B1EeAEoZH4e0QR+TXVyKwoR3ppKbKqyli2gkvmgiB3QaYUodZ4LQynE4amCEY82zRpg0oHw7hFwCkCHjq8xSWD0SUhqaYaSkkBbXI/dI6MRofgUEQbjVAr6g+XaeTS+WW1CNSRA1GsNQ41IAa+AISzRo/UEkKZjFkSWjNJ4ASBf5w4Av6DACcIFykr+qqn+ASby41iqwXHKyvwe3oa1u/fD1EjhzFUB12gBjqDClqNHFq1HEolmZYvP2PBZ812e0Q4nCLsLhEOmwc2swPWcjtULhmGd+2K4Z06IckYgNjcvVClDILKGNKqd60XKeKzXi6JItxkpSFywATh+89FCJbxiVqSoGydsR+cIDTF08j74AhcGQQ4QbhMnCntce2WVLz06deguAXoNZCbdFAF66EJ1kMXpIXepIYhQAWdRgGNWgYlZSk0Mk2BNqYejwinW4LdKcJmdcNmdsJWZYej0g5PpR1CjR0yqxPRJhP+etetmDhsIOSktw5ugJTQBQiMvMxV8tsFdnytN9PE1ySXC1JFNWB3QRYUAFmQ0csC7U6IpVWA2wNZaCBkJgOYQOhN+r9MBpVK3SoDFzlB4J8ljoD/IMAJwmXKigIAf9mcipc++AKlFVXe3ijTQK0EdGpIRBiMGkYWNKEGaIJ00AeoEGBQwqBXQK2kKPf6+AXqjzapFFRotXlgsXpgt7jgqHLAWW6Fs9IOscYBmd3pVUyUHlkbvxAdHoq/3n8HJgwfyJSQ7OCvkOK7AEGcIFyOmFmQp8sJiXBm4SUSpIoaCOt3Q9h2AKixQRYZCsXEgZC3i4Fn2SaI+48xgiBvFwvFpMGQd2kHqMhq4HVLkKtBqVRdzrT88l5OEPxSbHzSrRQBThAuU/CkPNZtScWL7zcgCA37JLKgkEMiN4NKCZleDXmwHvLgAKhDdNCHGhBgVCFA61UeFocAS40b1gob3OU2CJVWSFU2SFYnsQbIKDiOXnU+7/pYOSIIj99/ByYSQSCecngDpPiuQGDEZa6ydd9OGQtuF2WT1HoX7E4Iq7bB89FSSAWlXnmQbGMjIO8QD2HHIcBi9VobNGoorukF5eMzIG9TS9SIIyjkUKvUrc71wwlC6/4s8dX7FwKcIFymvBhB2JyKFxtaEM7XJykZOREGBbMyyA0ayEICoAildEMJQrkFYrkFks3FCIHcI4CZFHznOZ3HNREVHoq/3EcWhEFQQYD8yG+QEroDprDLXGXrvt3jdsNTm25KSEh5JXC//i2En7afGlhChIBiCwTPqYCZAqB+4T4oxvattSK0XjcDJwit+7PEV+9fCHCCcJnyuqAF4Vz9N0htYOmMlG1IO0uyDFxiDaaQ0FDMvHsmhg8dDD0EhGRtgaFNZ8hZkOJlLrQV3+52Ob01D1ikqQzikRNwP/sxxAPHz17/4HSsVEqoHpwK5Z0TAb221gtVn9HQmqDlBKE1SZuv1d8R4AThMiV40RaEyxzvfLeHhIZg+l13ov+gwXB5BBiytsMZ1wWhgUEIV4swKgDFRQTdN+NU/aprij8QfQQBgJiRC/ffP4OwO6PeRXC+XFa1Cqq/TofyljGAVsOYIMtmUKmhaGVpp/5IENxVIt4/JEItZ8Y/dIyUQeaiR1iGER3lcDskHCiV0CdeDqcbWH9IQD7xydOecqdChgd6yiGJwIk8EeVU8YyaAtC6JeTLZOgeDPy4W8A1/ZXoHipDjVXCvmwRpWy8Uxv13z9JjriAK8T+BQcO7NyAFUcEPH3nBDjsDnhYPRBvo3LjcrUGeo0SThedWkv8WYHinDTsS8uE3eUtLEaVRbsPHos2RhHHs47CbBcgiQLkhjAYCrbhcNBoDAstw7IVmzBu1hwkh+lQcCIdew8eRrX9VOscff8GhkSg/+BrEBHAU7ib+ouVE4TLRPSSLQiXOe7ZbicLwvS7ZqLXgCGwu0UEZ21BZXwXiJpQmNQSwtVAiFKEQS5BRV92zTCHP1qX9CVHFoS6wkgUU1JqhvuDJRC+X3emO6Hu27L+JC5ZQhRU/5wDRZ+OXg1Tm8lAQYqcILT8J8aeL+DBfRLuT5ShwiYhzy1DgonEKMOgeBmW7BYQEC3HTcly1NgkfLJWQK+ucoQ3zGR1S3h1v4T5NykZQdieJqASgNksIdMGTEqS4bd0CZlWCVO6K9BGA5jCZTBKwL4cEYWOM3FKzxUxaoASQ6OvDEGoLsvH7tRN+OWYgNlju2Pn7r3ILq6om5ir/BhOGnvh0bEJeP3jH1BurkF0x4GYOKg9cgsqERMVBiKIB35ZhqS7XsSICDt2pabCJimQvW878jQpePzmFDz11JtQJ3TG9KmTEBekRVi7TnCXHMOufQdRaXWfAoSjphJlJWW47v6n0SNa3fIfJj+bIScIlymwlkYQps2cia79h8AtSYg8uhGVCV0BfQQMKgkK2rUCMClEBCslGBScKDRG/G63q76sMt3gESBsPQT3WwsgpWV7Y0TO1fQ6KG8fC+W9kyALNtZeJYNMTi4GThAag//VvoYIwjOZwHitBHWgHLlmCdEmwGkHZBQiZJRhfAc5KM6YEYRfBPTrKUd4wyQVl4SXd0n48iYlBEHCz3sEwCBHZZUIQSPD0PYyZJ0QcagG0AmAQyPDtJ5yRKqBQ/kSjpnP9DsezRUxuv+VIQhUB2TT6u+wYcd+HCkRMWvGNAwc0A9BuvptRs3hlXhiZQU++OsM7Nm+Fek5FZh8yxTozUfxf19uwyP3TEVoUAC+eOVRdL7zNcR7TmDTlh0wBAZh96696D54FLolxmHbkg9xFO1hcJQiKKErJt8wATpbMbbt3IuiqppTHgd7TRUqyiowaTYnCM3xOeEE4TJRJYKwefd+vPT+lzhZWMzOPbhaLSI6GjfePhOde/WD0l6Fdr9/ioqOg+BOHsYsBg33GSqZBL1cQqBCQrBKgurKbEKuFjSXNS4FKFJ55briSGRFsNghrNgKz+crIZ0sBtsWNmz0GOi0UIzqA+WcGyDvGO+1HlCjWBO5DGo1ZTG0LjuOP7oYfAShm0tEeLQCeRUiAnVAUSUQGyFDuzAZDCogMkAGmRtYuVOAGCCDtqFoRYkp/6eGKpib72COiMXpIlJi5Igja0RtdXZrDbC1UMLITnIkhsig8EgorAZqzuJiOJAlICFJgSExMsQGyshT0byt1sWw/LAHT999LT3EULD6Ht7mIwhv/mk8Vi3/EbmOcEweNwRBrhP4cH0JHrhtPEJMOrzxxEOY8n9vI8pdhOWLl2DnsWL07NsDoQa99zMmylCWdwiHiyWMGXMN2kaHwl1djvySCtgpm6hBs5srkJWehs5j78CgzrGICA/iltEmfAo4QWgCMAtLy7F64xb8vnMfMrLzYK6uATHuyzqYpxH1mYmM0AFARpMRMXFxSOnRE90GDEFwWCSCc3aj10d3wdxtFLLvfQfy03gLlWim8sxKGRChkhCpFhGgbJpqj00AaYvqgkosu93u+joItbOTqiwQVm6F5+ufIWUX1KeeEtYGHRQjekM5a6K3BkJdrIFXsAqlghVLam3tj0AQMgtFqBVApQvQqoFIowwBKiDa4FXk5hoJNXIZ4n0Go1pSSJnKBi1gVAJpRRLMLsAUIINBUR+XTORhf56EdlEyxIQAJg9Q5gQC9N7P5oE8CREhMkTqASq74pQBnWNk6BorR3NX1XBUl2LdqoX4fks+7p46lh0KV1xSUvcIuwoOYLsjEY+Oa4sPPv8Bcd0HISY0Bh2CqrF4UxY6doiFVqPE2kWLMHL6DHRKiMGOjZthhwohkWHQ0OJrv6cEwYm0jBNI6twNbeLiYPcRMQAAIABJREFU4KkuhhNK6LRayODBhuWr0fPaG2CUnCgrLobSFIu+fbohsV1M8xOlVvShbTUEgfmS3W44nC7QQUxN2VghHUHEkYIKbDuaixMnjqMgJwdlRcVw2G0QPLUn/9Uq/YslDj6rBPk8yWdNykWr0yIyKhJt27dDfNu2iEloB1NkLFQaHduixm/9Fl2/eAiOhM448rdlEPQhdU5xqvfjFCS4ao8UIJIQpJQQRYGMcEJhL4bCdhySx+rd7l60UaT+sKrz43yu6xp7/6VKsTZSs65cMtUl0EI0JcGOkDOWy/CXBOg0mlNJH/252gpx0354vl4DcW8mJEmALMQExbWDoLxlNORJcYCygQaAxAK7nB7hEispyqBRKaHV+GclRn8mCF0dIhLaKZBdKiHcwDxNKKuW0Lu9HG2DZMzTVGKTsC9TRLYkw+jYM59Pk0kGiqWzOIDMPBElShmSTaea777dKeCNm8kVAThqJGzKFGEIlqF/nBzfbxLgCpLh/q5ybD0q4LhLhjv6yGHS0rdD8zUqMb520cfYlXYS2TYT/jxjIiB5UFZOkRTe5sjdhRV5wZjVVYGFqfkYO2k8LEXVaJMQCaejEnaq4wKgurIKh3bvwo0PPALPsX3YmZEDQ0wCoo31FMdut2DzzmN4+ok5kIty5KXvxqad6ejcfxh6JIfjyek3oPOctzC9dwjW/vIblBGdcP24gTBo6Bg73poKgVZBEARBREbOSazbsRNHjueixmZvUGioofbzKibvYcneY5PPv6f23hsUFIQRY8YhvE0KLG4BNpsNVks1zBXlKCsqRGlhISrLSmGurIKlpho2iwUup5MRB7I01Lsl6lMMyDJA1fZUGg0MAUYEmAKgDFBCHahBeFQYoqIjERwaggCjCRqdHqJcBY/kTcMLdNgx5IdXELdrEaBQI3PuZyjvdzMzCVIjckDWg3pvCH25SFDDAxTtQeiJLxAjpQNiA7vmRZOEczyi5z7Qsqme6Qv30/AbpHZdklyJfE88vs5oi5PVDaPLvE9BsFaDJ+69DZGhRLQaNALR6WaZDcLXayFm5UExeRgUEwZAFhYEKOrdCmwjKUlYtXkblm3cBvGU5+v0Z+10wL2TVijkiI+MwOCeXTC6X29oNZQV4T/NHwmCq1zEd4USyrNEjO6nQIWFNgTeWhYBLglmvQwj28mhVbDimdiRJmC/RUK49lRVtT9fwl+vVSJIDlitEtYcEJAtk6FDQ0sDgIV7RHw6UwWi+i63hJxiCQVWCVqtDBv3irApJbgVMnSOlKF3ghwdQ2XMbdGcjZ7bk5kHkJZ+BDtLjXj2nklnDEcuhr8uL8VzN/TAxh37EN2jD8w5ebA5JBgNUl0pF31IFI78sgzTnn0JOLINC9dthyIkGlHGeoua3VGNXWnFeP2fT0ILCVZzBdIP7EalLBgGoxxfPfUCjP2SIZOHoFef/ujfqwfaxoZ5K5rz1mQI/OEJAjHfFb9vxX++XYSM7JOwOZxNZkGghzEhPgE3TL0ZvfsNhk5Pn/R6Jk9pP+S/drtcrFSv02GHy2mHx+WEy+WG2+mEx+3yHh9ce0KgXCGHQkVleNWQlAKskhlmsRrVUg1EpcB8Akr2vpKVaPZu8Os/fDR+pLkK9y7/LzocPwyZW8LJm/6K3OnPQ67QwCPKYBckX3XmBqH2EmQeBwLzFiA2/RVocJaw6Qs+ds298284gYZjNc24lQ4lPtkbhs/2meAUT/2moRM6775+Ap6+5zaYyFd6OkkQJYjlZsiqbZBFh9TVO6gnmCQlYN/RLMx5+S2cyC9sXA2F0zAnX7VaqUJYcCAmDRuER++Yhphw/ymE5Y8EQRKA0hIBz/4ushTH6X3kOJTnTVUdEgW8lypiSl8FkkNkjHQ7XBLs3oy++uaU8PSvIt6eomSxCU6nhN1HRRyolJAUKUOMXgZ4JPx8VIJSJ8Oc4QooRaC4QsTvWRIOlkqIipChNFfChAFybN8nIEcjw7x+CiQGXyGt2CDN8W/nIAgUpPjanSOwcf0GBHTqCXNOPjwyDcKC5HUEQakPQuqSxbj3lZcgO5mFDb9uQL4sGH06JcKkUwOuCny3dAs69uyOGVMnQu6yIzP9INat+QlpJR50H9wfez79AXPefRSL33kPqpTxuG/6dYgNMVzwG4pfcHEI/KEJArHe7QfTMOv5V5FbWAw6WKmpGn0kUzp2xPQ77kKnrr2gVHl3cudXVVLdrp1d12A+PrsFqXq7x4Lj1enIt51ElbMSIk7/tjnbbtP7JUHvBNqtmL3ie/TOPACFU8CaCbcidcLd6BCUjBBtDLMVnPqV4p21ylWKuPSXEFywGJDRLrppFO/5Mb8SYzRO6uR62Zitw6PrIlBsO/O0RaNej4enT8GD06dAo27g8W34WJFMGXGrPQraZ6GAhPTsk5j76tvYezSrUcGsvm7P/vUvQaNW494br8XLc++DjtVXaPnNHwmC6JTw8nIPBg5UQlUhYp8FaBMApB4V0a6tHN11Er48KuGRUUqkBNV+DkWqti3B4ZFgUANHsiQsKAFeHa2AnFySbkBwS9iWJcIMGUYmybH/kICjchlu7eTNiCivkfDjbhHt28nRJ5JiFSS8v0HEdcMUSKbxD4v4Lk1EfLwcjw9WsHii5mxuew32bPsF63KUmDEwHtu270J1AyOjsyQdGeoejCD874P/YHV6Adp0GIT7Z81A18RQOG3VcEoaVGTvxFtfp+K1Vx6B0iXAZa3At98tQ6eho9C7YxuseOtZVPWYjjtHdmaFSfdv24xNu46g36ix6Nw2FlqFBbMnP4s3N/wX2rIirFn0DZZvz8Kk2+7BreMGNLs1pTkxbml9/6EJQlWNBbOefw0/bdlxTtwb40Q4/XOnVCjQpUtXRg6SU7pBJj97/PDZVN+51KEkeVDjrkCWOR3Hq4/BKTghyXzODp9dgg51kkEpU0Itoy8EOZQyBQQq0SwJcIsCXJIHoiTiul0bcfPGFawy42vT5uBwmyQo5ApE6KLQObgLonWxUCm0kDPnQq2LwZ6Ndvsegr76QAt4TpuSOFxIyt7lEhL7ijV4bF0kDpeRufPM+0KMAbjr+vG4f8q1iAwJYXEE7PnwTbfOheIlCHTAk9Ptxq4jR/H8x19iT0ZmkxLVuIhwvPnYn5k1gebS0ps/EoTUvQLSNDLc1VkOhwsoLxOxt0hEOWS4sbMcQVoZsnIFBEXJEaqufQA8EnYeF7EsXUKNS0JIsAwzeiuQFCxDVaGIDw+cPw6KLEXto+W4tZucHca28ZCIVUdFBIXLMae/AmHkf6jdZFCCjaqZ05AoUPfHz9/AlhNuTLvtLiTorThw6AisDeoWuQoPYZc7Cf+cNR4ZaRnQxbZlh8oFh0ciPFiH8qOb8dbX66HSBGD4xOsRYsvCwrXn/m6m9akCQjB01DiM7pcCeKrw6ZsfYMfRbLQZPBl/u+fauowFX5YRWVd5azoE/tAEYW/6MYx74HHU2O1NhphKqUTX7j1w6213Irljlzq//ukGb9+ADXeBDdWN7++i5IHFbcZJSyZOVB9Dtbu6bq5yyKFTqBCo0iNMY0KCPgwJhlAEKbWQeyRIggilXAGVmmIVlHBLIswuBwpt1SgvOYaJi99GiQJ4a8w0WBReEkCaTC1XI9YQh6TAFIRro6BRaJiC01qOot2+P0FrOV47h6ZU0k0mgmbriFZ7pFSNpzZEIrXw3BkGAVoNhvfqhlvGjUKvjokICTSxoEGSBeFIliq32wOLzY6TRSX4aWsqFq77DTlFJU1KDggIvVaDWTdei3/86W4E6Gq1RrMhdPkd+yNBuPxV8x44Av6JwB+aICzdsBl3PPsyPBQOfJmNVKvq/9n7Ejg5qjr/b/V9TM/03PdMkpncJ7kPAgIBwqWiKC4KKqiry7Kurqj/3dX1XsV1vYVVEDxXwAURo4Am4UpIyEnuYzIzmWTuq6fvq+r9P79XVd3VNd0zPSHHJNT7iDPprnrv1e+9qd/3/Y7vz2zG7Nlz8P4P3s0tBxT0N5YnXHuoHO3coECnKHojp9Eycgh9kR6IjOC4AKtg5qCgzlWKeUV1mFVUjVqXl1dy7O4cxKGDJ3HgQDv6B3ywWi2YOrUaly1uwowZdSgqKuCxCfTM0r6X0Gq14BWbGcf8XRiI+RERYzw4jubjsXrQXDgTzYXTUWgrgj10DNP2fByOULtOWtkD5jJP2NncN6njtCbYUx8Umm1h9LAq2zVj2VOzQbHx7a90xWEFIGwfAyAoRzeUFnmwZNYMLJs7E831dSjmsjcjEo2hu38A+461Ytv+Q2g53YW4Zg/mZ8/Ib8OSNWv9mhX46b99mgOVyd4MgDDZV8iYnyGBtAQuaYDw+Aubcc+XHzgrAIGU4ayZs3Dnhz+CWXMWpdwKerWTX5QDQzjhR1vgGFr9RxHgVgMGshiUO4owq7AGlxU3YGZRJYpsTs6AOOILYfPmvXj8dy9hx+tH4RsOI5EUOcGK02HFtOZq3PaetbjtPVegvr5cTscTk2CCCRFJRGfIhzeGO7DfdxrtoX5ERHIeEruihVsT5pXMQ73kR/Oe++AItaV3iMkBwUJBedonzab46ZYsQIJfqqhE/nVugJAJqFQ1mkui2SSfOS+5v+zqmIlhQKRAzLSplwOEARs+v6kS27ts45NCMDlQzW6x8HgAAmu8mJMoIk4ptfG4wlV/7gpgUFbDuhVL8cgX70eZt2jSv9suVYDwfIuESCaHz1lZi6oCASvrxwe3Z2UwoxNDAjoJGACB6ywGq8UMl90hZwakWvok6y0uxvvv/igWLSFfb9rPle3q8XZZID6Ew8N7cSrUhhhXUgIKLA7MLqzByvJmzPPWwGt3pVRyKBTFnzdsx/f++ykcONCBZEJRajrzRW1tCT5x782464PXorQ08zRJTxJLJnAyNIQdA+3YOdSGnggFQFJfAsocZVhss+Oqlv9CQbhDeQQz7PXrYa1cAcF0rmlYxpPa2f0+ObQf0ZN/BEsEUx2TC+bokBNf2VqP3T2OLFkGGqCTCyON2jv0wbgXa2CMvOfilC4bi41LQSEDhCV45IufNQDC2d0iE+rtcy8kMXz2PJmpsRdUCvjHleecI3FCz2pc/NaRwFscIDA4rDYsnD4NVyxZiKqSEpgtowO9iDMgWliJ2Zcth8UyOlpc+/ofe+swBBPD2De4Ax2Bdkgg4hABlQ4v1pTPwMryaahxFcGqCXqk9Me9e0/gK1/+NTZv3MfBDAXIE597RmCcQt+7cNEUfPNb92DN5XOzBq2RfzyQiOKArwube47gsP804pI8jwYpiA/1PInyuMKOJljhXvDPcE57JwSKUziDdjbN6WcwfM5bYp0vIrDnG2DRQY0Cl+BDNXaZbseAqfFsDjfhvoKhCPa3tOLlXW+gZ9iXEygYAGHCoj0nN7QMEQHW2e+6wAbUFRkWhLMvWaPHfCTwFgYIDA6LBXesvwafuP1WTKmp5qlrepZDkVGFNQEdMQtgzi9Clqz72TIqA4lB7Onfhq7QKX5ypwiGKQUVuLFmARaW1MNjtcPESdnTLRKJ4Ve/3Ij/+MIvEQxEcOXyWoQicew+OIAkgQSdBd7ptOJfv/h3+OjHboSnIHfQWlxxO7zQdRCb+w6DgiUr4oP4SP/TqE7IFdoou8FSMBXmggaiGsxnP426ZrICBDHSBdHfAkgauzCTIBQ1w7Hk6zCXLT6j5z1bN4miiAHfCF7YugPfJw6PjtNZeRMMgHC2JG70Y0jAkIBeAm9ZgEBq+Lrli/HtT38Cc5qnjVLMXEEyoCfGcNAvIJjjdDBWkKJW2NFkCHsGtuJk4IQMDgQTmguqcFvjUswuokyC7OCjr8+Hr3/tt/jZT//CgyS/fu9KLJxeioee2octe3sxEogjRpzJSglhAjjvfs9qfP0bH0ZdXfmYO554GIbiETzfeRAbOnejONaLj/T/AdUJOlWrjZ5QV+npjP+OJpoVMdHrJzAxXlxJF+fAJJiLZ6Bw5QOwVSyZQGfn5lLaf0MjI3j4qT/hO796AgP+zEp2NKoBEM6N7I1eDQkYEgDecgBBVQlOmxUP/duneapaBumNZleEkgz7RoD+hKBhHszcNvlkMRDHwYGhXTji248Epy9maHCV46PNV6K5qBzmMSr6nTjRhU/e9xNs2rgPdosZP7p/LW67opETsBw65cPJ3gCOdoxg694u7Dk6gFAkicWLp+HHD/0T5s+fmlfBqIiYwLMd+7G17S/4UO+TqE6k+dUn5x/JOQIOkwwgyCCVYffhY/js9x7Ci7veGOVqMADC5NyhxqwMCVwKEnjLAQS+aIyhqaYKj331X7F60bysSjTJgJYgw4mQgITOjD8R9UQsiJ2BE9g7sB2BJJ0AGUrtRfjHGeswx1s5pgIn5bBjxzF89O7/RktLDxxWE37wL5fjPVdMhVXl+AdAbpBgQsLP/3IE3/7FHrg8bvzgR/+A69cvhYUKBeXRQskYXj72Aur3fQnl8YE87riULlFWdBICBJJy78AQvvSTh/HwM8+N4tQ0AMKltA+NZzEkMLkk8JYECKR4501rxMP/8Vksnzc7q5IejAMH/MCwNnUpT2SQvozBFxvkroXu8Gl++nOb7fhQ05VYW9nE0xfHavF4Ek8/9Sr+5VM/hZRI4MolVfin9yzA0mmlsGgAAu9DEPD7l1rx+Qe3o38khi988e9w733vgMuVX3AhpQOGBw8h8PLHIQTULAYGwVIAwUIc5zRXbSIiR1rK9HOlHObiRtBHJuh5D/IP+0zLb6zFGS1nlgyDJSmDQcNoN0kBwqDPj68+9Ch+8uQzVE4roxkAYXK9UI3ZGBK4lCTwFgYIU/DIlz6LZXNnjQIIlEV4PAS0huh0numpzhMj8D2SkKI45tuPw8NvIC7GYDNbcUP1Itw2ZXHOmAPt5hoZCeGBbz2OH37/WdRXuvGljy3DO1Y2wJoNWAgCnn6lDZ97cDs6+0O4+uoFeOhnnxw3DiE9HkNy+Ch8L38c4ojMg0DMDI4p74C99koIpvyAxsXyxxHv24Fo65NgnINCARCTFCAMjfjxlQcNgHCx7C1jnoYELhUJGABBBxAoMGwgDhwKAL7E6DPyePQ96sagokv9kS7s6X8Ng7F+/vHC4kYed1DuLMirZvnRI6fwkXu+g907W+F0WLB+dQM+e8dCzKnzwqyvayoAz25px+cefB0dvSEUFbvwrQfuwd/dcVWebgYtQFCYFAULXHP+Ho4pN55xmuNk/UOJdW9BaN93wWKUsaEFCNNRuPLbkyJIUZVdCiD8/hkq+GdYECbrpjLmZUjgEpOAARB0AIGsB2Q5IAuC/mU8kbVPSDEc8e3FoaG9vJCS1+rGB6ddjpUVU8cMSlTHiEZi+OEP/4BvfuMJRKOyYbnAZcY371uF962dBodVjS1Im+ufebUNn3/odZzqCxMLNBYvacIPf3wvFi5symPqDElfCwKvfg5SoBuSFIMk+mD2NMJcUK9Ud8wGj7KwJ44aLds1pJRlkia5ZWNYzM26OBYjY3r4XGMIkMLdSGZJc5xMWQzqcwyO+PFVw4KQxx42LjEkYEjgbErAAAg6gOBPAPv9QL+mjOlEBC67ICj2YACv972MgWgvJyG6omI2bp+yDGWO8WuWU4zEC8/vxL986n/Q1taf0oVmM8PX7l2Je66bAZctMy2SVO3vNrXg3/9nB/p8xM4Izgp5x51vw7e//TEUFhJd8liNQRw5hciOH0EKdEJM+pCMd0ISKbCSAjEmwhmZjyMmn5iBXOAjV2yD9vm0YGYsEKK5Z5K6GAyAMJG/wLN/Lf09Eq35WawWf/YnafQ4qSVAFt98A8Yn04MYAEEDECQGdEXl4ERiT9Sea/MNm6PrkiyBNv8RTooUZwmU2jz4cNPlWFLaCEseJXnD4Rj+7vav89RGSUyfsgkgfOUTK/CR9TPhtpkBClQkUiYA7X1B/Ndv38Djzx9HlHgRlFZc4sZv//fzWHvF/JwZEyweAySR++MTu3+PhO8QGJJIRFuRiJ8E2Bmipcm00/OZyyQFCEYMQj6Ld+6uoWBhKn5mAIRzJ+NLvWdes8Vm4bwlF1MzAIIGIJBePaakNqqLmO0MO15sflQMY3f/K2gLnODWg5Vl0/F3U5ajypVftb2DB0/i5hv+DX19CjGOMqDZwvCFjyzDx2+cjQK7BdtbB7D9UDfaTgfQctqPN44NYdiv4e+nAEuB4T+/+WH8433vyLk5mW8AGOoFvKUQD25CInAMkhRGNLQTyRiVfs5XChPd+vlYGibaZ7br8xyHA4TJF4NgWBDOxh448z7CkTjnozCaIYE3IwGr1YyLrViZARA0ACGYBHaPELtgZlpcnuoltXdG4gPYePqPiIpRuMx23NawHNfWzM4rc4E6eW3rYbz71q/yCo5aFz3FFdxyZSP+86PL0VhWgDhjOHhqGP+7sQW/+8txDI0oJ31N1iBjEr7wH3fgs5+7PTd6DQyDHd4FwVsK1tMBKRlELLwP4cBmiJxVkWgkL5YX5ERXS/Mnz0RYSmahcNV3YC1b+GbeBWf1XsOCcFbFOeHODIAwYZEZN2SRALkYyIpwMTUDICgAgdTfYAx4bVhObaSmzfrPXz0ytAeOYGvPi1yp1jlL8aGmyzG/uJaXZs6ndXcPYd3V96O9dWBUIcCKEgd+9Jm1uO6yWliUTIbDnSP42Ldewp4jCkWyxh/idFnxi19+BjfevCI3KVMsAuzbAhYmi4UAxhKIRQ5BjPcgFtmLZLz7IgII+Ug41zUM1splKFrzPTkwc5I0w4JwYRfCAAgXVv6XyugGQJhkK/n4C5txz5cf4P5DbZOJkjJ5ECj+oC0sxx+MBQaynU+1nzEmYkffS2jxH+H9LC1pwl3TVqE6T/cCzVOSGP77O7/HN772O8RiCjWOEnNX4LLgB/evxa0rGlJsiodP+XDPN1/EvuMKRXIKiDC8932X43vfvxdFRWMER0oS2OGdwEAXFxM9g5joRWjkr4hH9nPA8FZoRArlnHkX3Avug8k6XlDn+ZOIARDOn6yzjWQAhAsr/0tldAMgTLKVnAhAIKvBGyMMpyJCVoCQi0NQfWT1eyJHerHzz+iP9sACM66tno/3TFmKAqttQtLp6hrEXe//FrZtOyb7PxWA0Fzvwfc/tRaXz65IcSH0jETw5V/sxO+eP4E48UIL4MWnqquL8Lsn/x1Llkwfd2zWfhQ4eZgzMoriAELDzyEa2gsGETHBkpIJFZmyCKqZTC05rSASLgSqAUmVozjU0I2bGepJ12UP2dEyLepZF8d9lDO7wGSBtXQeChbdD2vZAl3Wxpl1ebbuMgDC2ZLkmfVjAIQzk5txV6YEDIAwyXbERABCXARe98kkSdlcC1orwVhe7mB8CBs7NyCUDKDA7MSt9Utwfe1c2Mz51URQRZhMinji8Rfxg+//AS3HTkNMiqip8eDd187GP6yfjsrCNLNhXJSw5UgHHnpqG/YdCyEaF9BQ48J777wFd//9u+FyOcZeGaps2HoIrPMEmMOGSGwXQqd+AybGIJYuwmvMC58oC6bCUYapngburtBndsifyKBABgmZAEF/h8MEFJoBq4m+Gc+JM3q07DRW8uij+S9VwJKtH6pm7YStcgWsZfPPuLT1udr+RgzCuZJsfv0aACE/ORlXjS0BAyBMsh0yEYAQTgLbh4ERDdl9vqBA+9iB+CA2nd6AkBhAua0It09ZhTUV00YzH+Yhq8BQL7Zs+C12v7oJ8VgUM5uLsHLZStS562ARSekrp2sTEGEdON62CQeO+xGJCWhqcGHRqqtQNP0GmAqnK0RHOQaNhsH2vwZEgkg64wiOPIt4zxZYyxZDmvUxPDgYwMFgN4+hmFM8E1dWXw6TYM4ACCSrNECQLQjyZ3LTh19QX04TUGJlKLIATjNZPXIJRf/FRDgOclkgNJGcvJQFTXhiIC6PJTwrlxgWhLMixjPuJB+A0Nl2BIMRBikShLu6CU0VbnR3daJ/YAiioxgzptbD47Shv+skjrZ0Yf7qVSgUEujp6ULPwBCSkhPNzY0o9thw7I03ELE4ICaTmD13AaxiBJ2dnRgJRVBUUo3aqhIMnz6CE8MCrFIC9VOnApFh9FNQM0T09AawcPFCuJkf+493w2FlKKhuQm2RFX29vRgeGobgKcX0xlog7EN7dz/i8ShMRXWY11iOZDSEjrYWBG1lmNFQzYvExfx9OHS8DQU1czC92nPGsnwr32gAhEm2+hMBCIEksG0YCOUACOM9mgomCCBsPL0BYTGAWmcZPjB1NRaX1uVVdjk1BpPAwp0QTz8LsfdlJIKdkCQJRJ5osZdAQC1MaAJM5QBLgJmHwNhRSNHjPH6AVJ+JVLLZDqFoNkx1t8BcsRbgRZd0jdwX3SfBWt4AlaWOiUcQHPg9TAVT4J73CUgVq/DTE69j68BRCCYBc4tn4W3VazlA0Kp+2QKg2Ai48YBBEEWYksk0OOA6WVbMlA7sEACrwECWhAKzgAKyJminp6SW8Z4VfU4kVPQ/6p/3xl0aareKK0YdR8UAqotGTVXT/qRrKABF7k2p3UT9pAbM/J4+1t+vzCn1ud0K1JUAjom5lXLtsUyAkAl4jGJN4/1lvvnv8wEIPadaERRNiAz349DxPqy6fD5aDx2Gt6YBHcePoH7ecjR5TTg9HMPGJ36Nd37q3+EJdGLfwcNwVtQh2tUOU9UMzCwMY8OObqxaNBWdLfthq12MOncMp7sHUVFVAU9hKcoLRPzm9xuxZMVSBPs60BVyYu3iKfCHIvB3n8Cekwmsv2419m/6MwpnXgZXYhgnOny44tq3QQwMwe/rxSv7enDTNWtQZGfoGRzGyFA/Dhzrx623XYtgfz/273gVgwVNWLdiIYrtcRw50ob2fdsgzboBN15W8+aF+hbswQAIk2zRJwIQqO4CWRAimfGMGqN5Wh2OZQz3kwWhcwPCyQAa3RW4c+rqCWUwgMANgfxlAAAgAElEQVSBbx/EE7+E5NsHJMMpqaondAYzBMENQSArggQGytMOA0xU5ps28zNS1o5qGSTUvxOwFWWsEksmgAOvASNDnPsgNPIc4qYeuBf8Exy1VyNmsuLR41uwue8QBzmZAEF1GmSCAxrAEoujeF8r/08QJcTNAqwig0mQQCUJKfbArAAJ0q9mMJA6pZ8yhiBlrcQ4EO8T/1hW3BwspJS+TArFJBkopNPVVWWvU+gqmNDmtWf8rlygBxcpc5KioLPmxSvfNZRB+MhVQEnBWfmLMCwIZ0WMZ9xJPgCBALzJZEJgpA9P/uIZzL16KXo6Arhx/RU48soGtFkaceX8Bpjtbvz2u1/GDZ/8Ctjpwzh47ASWr7sJrGM7XmqzwOt/A6Gmm3DLwjKcPPw6/ry7D8uavOgcAco8HsyYNxPmvr349U7gk3esQV9nG557bhve+aE7UGhO4pW/boarZioWNDjxnw//DZ//5AcRHenDpuefw6xrbsescjtC/a14+uUTuPZtK1BZWsj/aLrbD2Dj9lN4z+3rwWJxHNv5Elqlcly5dAGKHcCwP4yjm5/B0JRrDIBwhjvJAAhnKLhzdZseIKQM01myGAggbBsCoprqvzSvfN0M6nUEEMiCEBEDmOKuwF3T1mBecf6IW/IdhnT4AUj+FghMlBVjKgaQzumq8pcVpqyi5QvShncJgqUQTIwAjEwiAgR7KUy1t8DUeBsEe7FyYGbAYA/YkV2AmIQojiAcfw3WpqvgaLwJgq0AMTGJx05sxcaeA1kAgjqyAIFrbXke9P9Wfwi1G7ah5Lm/YdgOPL9yJtYH2lDuGQC2zoBg0sAs5ddRcQhaT0Jqk2hO9vlunFGIbiyIN06n5Irg4EAfy6DcZxLA5jdA+NzbAee5sCBkzs+wIOS7Cc78unwAgtx7BH/6xa8QqFqAudVmdPQBN69bhtbtG7HLX4wb1i5AgcOCn37zixwgOAZOYNvuN9C0eC3ix17Fzv4iFAT2YNoN92F5rRmn2vbjt3/chemlFgjVs7GkxoJXT4Qw19WDPWwBPrRuJgZ7u/DXDRtwzQc+CsfgCWzeewoLLluIKbZ+fOn3B/Glj92K0MggXt74PMoXXYfiRC+OtrRCcpXjiuWLUOhmeO2vW9CbSMBd2oB1K+bynX309Y04HC2WAYLLAiZJ2P7MbwyAcObbiFMtGzwIb0KAZ/tWAgh3f/kBiDnTHO/HsrmzueIb0QAErfrQAwRVEeeaazBBAOFPCCWDmEoWhGmrMa+4Nq9HY8kwpMP/DbH7BUBK8rgBwV4OxIcBiRgSsys2OcRPBQsKcHBNAcw2MP9RnpnAm7UI5oZ3wTzlvfx3JJNAy16wntMyZbMpiWRtMayNl6eqNxJAeLRlCzb1EkAwZVgQVDjAf6qJC8o8bIMjqH/yFZRs3YuoWUBPSSFqxQDspgTYUEGaEyKbgNOdZchNHifzWVMXZNPXKZNCluAGAjQceaXQifzviTLmqdYOdSJmE9jaWcA/rZ+YW2mMHWJYEPL68zlnF+UDEBIjnfj2936GGVe/G+9YOR2HDh1Aa2cCt964Cm2vb8T+ZA2uWTqDU6SrAKHOIaG74wQOHDoMC+IYLpgFS9uL8Ky6C1c3u9HdcQhPbdiL6bVF8E5fjmWznPj5g3/GvGaGPeE5+PitizDY24vNz/8N1931frRtfQl+iweLF18Gd6gN//ro6/jGP7+PA4RtL/0N1SvegVllVohSAs89/jSa3nYNZtWVQ0qICPiHsHUzWRnuQFOxxQAI52A3GQDhHAj1zXSptSBkKNAsFoRAkmH7EBAUc0bKpXWRTo+oaoZ+JqVB/PnkBgSSATS4yvGBaauxsKRuVJDeqOdiDGx4H8SD34QU6pCvNzshFM4BCxwFS8q0y2mjvg4saBUtXWd2QChZBta/VXFDKJYHeznMTR+CqfYGsAgVntgGxOTiTigshjBrCeBMm8ajyQQePr4FL5OLQYlBuKr6ClC6o4ILuNJO2zHkrpxiAo1BP7zRqKyDJUn+mXIPKC4E7ipgANWcIJdC6nf6t3qfcq36Pf2k/ig3Vb2efmZ8r/lOjS1QxuLuCI2bgtgm0/MCBE0/coqpdnzVvaHGO2i+VwAM1syAcM28N7N1U/fS0JTF8NWHHsVPnnyGvDMZzWax4JoVS/CzL9yPMm9+VN5nZWJn2MnFRjVLjzk+QIjjl9/9EerWvRdrZ1Vxa9rJE8dxvLULK6+6Env++iy8s5dh/rR6WExIAYR6B4MoSTy+6ODrW+Gomwl7zy687G/C+9Y2oGXPy2iLl8OLYcRcdVg7uwi/2bAH65eU41ebe/DPH7wO/aePYtMbPtx58yI89+JOFJfXY8UiSmuO4AffehR3feojSAz14aXN23Dtbe+CW6CaEiKe+93TaLrqGkyvKuH7OzQyhFdffB6zDYBwhjt7/NsMgDC+jM7rFROJQaDYAwIIPv0bWJmx9oCqP6yqypEi8WPJQTzdTgAhiGpHCe6YugrLyho4L8GYjSUhtv0vxNZfQUiGZGuBxQVT0QJIvj2AGMsACKpDIdPlkDbykz3BVL4aku8NCImg3B+fggWmmpthnvZBCP3DYKeO80JN/EhfVg1hxiLAkjaNhxNx/PjIS9gxdDwLQCDXQtrBobUouM3AFBdQcBEwi8pGgzTgkgMi064M2aGQKwBSe61yj4WiSc88I4LmE0sAoahs5JFEP771CAGEPyKpmafD6sDbr7gVM6fU4c5b1qLM64DdJgeATtZ2SQKE5BB+8pOnMG32FL5TXAUezJgxHV3H9qPtVD/ctVOxYuEcFBfI6cZPPvwjrL3zH1EqBtF67ChOdA/AXVaLy+ZOR6GLYcOvnoFUWQqr4MLaq1Yj0nMCew4cBhVpbZ6zCHObanF869PYM1QIrw1YvHotyoRh7DlyCiU1TZhOAbIABtr24E8vt6GyxI36RYtRbY3g0KEj8IXicFXUYeXCOTh5dBc6+kKQ4nG4GufgbfPoGYC2/dvQGivCsnkzUOgwcxfDvs0b4K9ZgbWzKybr9prU8zIAwiRbnokAhIQE7PQx9MbysCDoKIDoDruJwW0BRuJD+EPbBviTARRbPXhv4wpcWTV93CqOLBGAePBbkHpfgkAnWlLpZidMxYshDb5GUXjcepByMygWA617QbaSKI2C+bzzeBwCC1LBJUWR8z6vh6l0PQTfMFjAJ5+Qqcpk7TQIU+bIvyvNF4vggQPPoSVEaY4C5mmyGLRcCFqp0e+FFmCqC3CcuZ6cZLvp3E+HDBexOAWEAV39DP3K0tSW+/Hz/3sMD/5eY0FgDLMaZ+MzH/4qvJ5S2KwMJYUMFcUMpUUMRH0xHiY99080eoRLEiBcCEEaY150EjAAwiRbsokABLJWHwownAilA+20oWiZZ8z0g9LVFgFwWxg3HwYTfg4QhuLDcJocuKXuMtxcvwAO89hHaeY/juShbwG+w2kQYLbBVLocUt8rOiYBjQ2DZwJogxfl7zhYsLgglK0C634BTElLFOwVMLuvhyA2AokkBx68mS0QmucDVY0Zq3gq4MM3D/4J/XE/dyssLVuIVZVU10EGEfrDqmpN8VqBaS4Ze4QSsjdAtTYQ3wH/Tw4pkN0Tmp8qH4L6uXZC2T6bZNvujKZDHpPBEeBkD0PPABCNyx4TMkR4nH489cJjeOSZNEAg2b3v+g/h7Ve/P7UWJEOqBTOtVsKUagZbRs7oGU3rrN9kAISzLlKjw4tEAgZAmGQLNT5ASAcpEhjojDDs8mXG0meLfVMfk76jVD2XmcFmlhVdQkrgL6deQFvgJCcSvrJiNu6YugJeu3MM6TCI3ZshHX8QCCv1EHjunx2mshWQejaPSeKTMy5BisPU+D6w7udAAZBEBCS4F8FsvQJClNwImjgGiw3CgtWAx5sxz9d62/HTlk0IiVFYTRZcX/s2NHtl6mYaV2854KBBAEqtQKMTGIgALT6GoFJoUpUZXUMKjRSd+jv/N9E3KGBBBRLq58S4WOECvI7cpEqkVANxcvXIMCk1Du8zk8BJC1hGARUCWBq2yLQr5dyczCkE41gHw7GTQFzHxQEE8MeNj+F/n3s6FYNQ5PLgK/d+H9UVsklYbQQoZjbIAMEyCd07BkCYZC9JYzrnTQIGQDhvoh49EJ2YY0xEnKW9tM9s2oJ//q8fjirWRHfPaqzHd++/F4tmTU9Fm1Mmw96R0VwI6miqOiUSIqtghVUww2Fi3IzOYwx48KKE7b3bsb1vD5jAMLewHh9sWoOpntLc0pHiENufgNj2GwgJP79OtgC4IZQsgtT7cgogpAMi06o5W3YDdz0wEaa6d0GweyGdfhoQXDC710GI18pBgakHYxAKvMCiNRnxBxRA9UT7Lmzo2oO4lITL4sTt094Br132cWYDB6oyr7ABtQ6gZRg4MsgQTACJFMeExlWizEELxEi+qrtEVcxWIlayCJhTBkzzgltrsjWyVhwfYugNEVjTWSYUSwUHDervBFBMo60Z+mvIYELARQU0ZpMApxUodwKus3BSp73VN8Sw+wgQouxUzcNJUhy7DryCvUd3wmpzcKBTXFiKm668HWZTJgrwuIAFzRJ3MxguhrPzQho/SPHsjGP0cmlLwAAIF3B9B5IhbAyfwLFYPyQlVa1v2IeDbSflYke65nbYMYvoT92u1DlYZAyBhIBkjjR5lY/ADhumWRoxy9qIAosF5tTxUr7xVKADfzz5HJJMRJm9EO+fuhory6fK12Vr8RGILQ9DPP0nCFI8zXVgLYFQ2AxpYBtAGkpFBzlKUevBA83GVH45zHPvB+vZDBYcgTlSBxZWsha0AKGuCWiaJ4+jtMFoGA8ffwl7fe1IShIaPXV4Z+ONsJgyNaL6VOrjUdgBgYNSG3B4ADg8KCurCHk00nWndCwT8qCq6NPPIitmuxLLsLASaPYKOQPxBiPAzh6GUJzcPZmlu7Wi53PWLEfqGUZdpKOMVkACgQOvXQYsZa7RVNJn8qeQTDLsPgp09OjLXDFEomHE4hGYeU0PAWazFS5HJjMmPUNdBcOsKRKPQZiMzbAgTMZVMeZ0PiRgAITzIeUsY4hMwt5oNx717URPMpBx+soGDtQuUvpaQ8jDFZRejyv+c1V5mWHCVHMNrnIuRZmlWMMBIPfsiw3j2ZPPYyA6CLvZhhtrFuLmugUotGV/a7P4MMSWRyF1PpvKVuAGcUcNBGcF2NBusJS5W1adaUWqnMZH1UZSyI8LpsCy7Icyr0EiBvj8YN3tQHAknfMvmCDMXgqUV2eQLr0x2InHTryMrihROQNXVC/H0rIlKZ+3VlRa7EPwodEFUCbDvj7ZgkCR9aToCSTkbhoEpKAhiyBw901cYiArwvJqAY1FuV0MXUGG17toHAE2C0NATv5Qmrb/0bPQghMVrGi3An1Pz+C0yO6KAivDkmoB5WexMnT3AMPrBzPdDPn+WZF7oblOwrRaBuskdC/QcxgAId/VNK671CRgAIQLtKJJMutHOvDo8E4MEXugXidojt4Z/DjZDvT6yERVtaSz3riZud5agWucy1BpoZQfNXuAfAyUyRDDzoGdODC0jxMhz/bU4sPNl2OKpzQ7HwKvvdAFqe0ZSBRQKPbL17mncj4DyX9IyWCQJzNajaqfp8/dqfRHkwPmxQ/AVLZUvoii4SJBsJ4OoPcUBw2CuxBYsAawaStEini8fQde6N6PmJSA0+zAe6bejDJneQZjIp+PTo52kxygaGHA7l6G48Py0G6brPjiindjPPGTmd9lFRBJMiQloNAGrKoVUF2Q/cROS9TmY9jVAx7zQKZ/cgUE4unsjvTypoGWHjZoq1JqwQXltxfaBCQkhnACqPcAS6sFFKXF9qb+AmTOA+C1AwyRDGCTu1ttZgutQ5GbYWYDQ3kxg1pAlOIyojFKnRR4Gt0EC4u+qWfS33wxAoRoLAFR65I7qxIxOnurSIBYFAkkXEwtGo0hGIpA8AdCzE5J1BdhI4CwTQEIw1qAoGggDgpURU/qXOvw1tiyU9eNddAkEzMD6izlWOdazgGCVtHFRIral9AZbsfWnpcREcM8uO/OqWtwddVM2HJlM1A2QccxsFPHwBIjFO4I2JIQI4/zVEVtpoIMEuRR9WmPqeVLPYMA84Ivwlx9XYYmp1gJIRwEhnoAij8oTit+srq0+Pvx2IlXcTzYw8eY4ZmCGxuuT/m8M+IPVDkrgxdaGKY4gbgoYEcXQ7tfCUQE4LEBfh6wmClkLS5TT+puazoDgu4ocwKragRu0s/WSBEeHiSrBQOtA7Uiu4CoCEQTcsUnrRsmTZ6lMSHp5iXLmIpK0dwFhEWGqGIFmVEMLK4SuEVhIi0pAoEwuBuATvocYDFgOADsOcYwTMYd7X4d1bl2A2u5L+S7XA6GuVNlkEDepK5+Aaf7BV47avYUOQ3yQsUnXIwAQZIYYvFEVlflRNbduPatKwFyDdpslvEJ8yaZiC4ZgEAWhJ8P78SwRMpUAwK4wBXqwyyugxSr76h7sqyUokdIOdebCSAsQ5WFFKs8RlJivBqkxASEkiPY0bcFJ4Pt/O0/q7AO9zSvRUNBsS72X7mdAEL7EbDOE7wuAldM5mEkQz9PVy7MoAWWQYI2QDH7v5Mwz/wkzFPelxFfMNY+DCXj+NPpffhL1z6Ek1GYBTNuaViHaYVNqjTln1lMAHY6xVoZahwCjwPY3sXQHZSvpRMyuQusZgHhhKzMZIJoTdAHT+0T4LCAX8PTI5XJ1nqAZdUCvDlO7HTI29MrxzzQfcrKw2MHIhQkqVguchiJsqpkymSwmRgPSAzGAGXafE4LyoEFFULOgMlcMu7sB944zuC2A1VlAsq8clXKI21AL7Fq54qBYRKSYpJfazZbYDblPo14XAzeAmDID4RjFLAqEyg1VjPMaJBABScvRLsYAcKFkJMxpiGBySCBSwcghDvwc58MEDKOX6qUdUdUjeEgpUm050j1NrUGEf8u9eIW0MAtCKqLQU4KoNNlUpKDASQmoj1wFDv7tiNCKYKCGe9uWI6b6ubDns2KIElgrQcgUOllYjYk6mXrAMTgo6nyAJnnxtEAITVnTW0GKuFsnvp+mGf8A6CLeM+2ASnA8/BID37T9hpaAj38kmmeRtxYdzVsFmcaAacYFNOKmPggnCbGyzZXOQUMhgkgAINR7cldNv2Ty4Cn8ykPpcqeUhltZoYwB1qZroRmOrFXCjmzBuIi8Ho345kT2uUmxejigENhZ84eZpKB7lUrBgEVylAJJWhN089K8RA0l5mlueMhssmXrAfbDjB09aczLNxOme+ArArZLNmCIMHn70dHdzsGfQOcmrewoAgVJdUo8VbA7fRkxIWM9WIh0DB7qoRy74WxIhgAYTK89o05GBLITwKXDEDgLgYCCEklBkGvTdXjpFYuuY6S+hOcHFqQUiAmJqBeAQhVlgp+Wo0mGWKSTD1MV8sBecPY0bcdJwIn+Uu9xlWCjzZfgdne6tHUywQQTuwDKDaA1y1gYLZ+iAECCPLDaFkH1DTAHIfN9LVMgqlqHcwLvwjosg/0W4T6GogG8cypvXip9xCiUgJuixPraq5AU+G0VP0FPhed9YAH75kYJ43ymIFKB9AZFLCtU05x1C4HxXBQbAHJTD3pU59kXaB+yD2gtRyo85xfBsyvkIMWszWKO9jezdDhzxyPxrab6aTPeJCk9oSulZ8WNFIaJY1DJ29yKZDxQfsMHiuwtEoOmJyIuX5whOHlPQABhfEajeewA25nGH/c+BR+8+c/IBSjst7g2QzlxVW4bPYKrF5wBeqrm8bkylDHIpfG9DoJU2suDE+CARDGW3Xje0MCk0cClwxA2K5aELLEIGRod72zO5vbQb8+umsoHqDeWo51FKRoLkdMFBDjtYXkkzIpQAdXSEmc8J/A1p4dGI77udJe6G3E3dMvR5VTV1iHAMLxvUDf6TRAcA4iOfzIqPNuGijkqu+YaV0QihfBuvS7nHhprBZJJvBi71H84dRuDMeDHBDM9c7A5VUr4LKkU+r0CpGe12mWQRH9TiyKZTagfQTY1kWxCJkAi+ZAJ2by66v+fE40pYADOSs1HaOgnuYXVwKzywQ+TrZGKY5kQSAOBLWpy019U6ok3Up1N9TSCmpAonZb0HUEEMgloZ271sJU6pDdHVWagEkV1KhMkKMAGAMOnGA4cjK/F4DTDjTVAgVOP/7rUR3VstKFy+7EjavX4c63fwSxZMG4xSiJ86GxSnYzUEzC+W4GQDjfEjfGMyRw5hK4pAACWRCGyMVATfM2JxOxx2RHgkmIEM+AxqxtEywoFGwIsBjiZNpXdJMZAtwmGy+OE2EJzq2g6iUeg0AWBOcylAjlPAhOdm/L/nSK4ndaZEUWSgSxrW8XDgwfRUJKwgwz1lXPxW2NS1GkSXtkFHdwdDcw0K2QBTBIBcMQB37KIUdGtLou9iDb8vPrlahLwT0FlpX/A8HqyblTiBRp71AnfndyG06G+vl1lc4yXFm9CrWu2nT1Rp1yJkBAz0t+elWtE/+B1yLg2BDDzp5sZn1Z+XOFnQoPEbgyJpA1SrFywCVnDDR7c5/YOwPAjm4Gny4DQO1RTVEk94YaxKgFEqTYaU6qFYOuy2xp0FLtlgFCiUKQSVYJf1J2Q5D7wSbIsQkqnTT1Qy6V7fsZegaz+Dh0I9FcmuuJ0EtAMJy7mqPZZMLVy5bga/d+DoMjxQjoknhUoEXAwGlnKC0EqssYyrzszdSTOuM3jgEQzlh0xo2GBM67BC5dgKCIkgK6lrvqcVPhLHQkRrBh5DB6xSD/1iaY+ef0/a5wJ/44cghxJnKlNc9RhfWFMxGTknjStw/dSrllXhRRENBgLsfbHMtQJFQgyY+8sua0UtEmfgKV/03jD0YH8GL3VnQEuyBBgsvswA01C/H2+oVwWpRosXgU7MguYFhWztSkomGIPQQQ0lqZqyhN/YW0ytKrMmV8smo4SmFZ8VMITuI5yN4oa+EXJ7bgeKCbz9FjKcCqyiWY6Z0Bm0k+amYzpdtIqZpkSmNqpBArHQIcAnCwn2H/wOigO1VapIgp9ZEUsUyipAZdyk+lNelTiiNxINQV5khxZEDbCLCLSJIoYyFHIxcIxRUQQNAGLapuD1ovDvgy4ybl51f6JDk0FsouhgLlFE7kWv0xxkm2CJDSs3GCJ4HBRnEVJgZJFNDexXC6X85YoFIYudwTHiewcr4Ar4dqNPjx1Qezl3s2m01Yt3wJfvz/Poshvxcne0zcQ6VtFJBYWyGhohgodDMeoKipx5VbWOfgGwMgnAOhGl0aEjhHErhkAEJGmqPmlBtnEu4vvwLXeJrRlRjBI4M7sD1yip/IK80F+EzFWsx2VqI1Noiv92xGXzIIu2DG271zcJt3ARf7d3pfwa7wqfTpVgDqzBVYY1uGUlN56sxLSrLAQsogc7UopbDV34EXu7dgOE4pjBTp78L11QuwvnYeCqw2mZvgyB7AT8dLYuQxQ/IOQuz8aQatXsq9ILAMc3LOegyk2GweWJZ8H0LRrNHbiAGtwQE8dmILjhE4YCIHBAtL5mBp+aKUayGbIuPK1iS7FtRGvxOLIpME7O0Fjg/ndoOQoqY+yDRPCjutlNNUy9Qv6TuiNCaAUOHODhAouO/4ELBHk+KozkkfakLuDFojCoSksemkT5U4iZ+Bajho4w2y/d3RM6oBk3YlxZHu7Ysxfi9ffkVgKjWzDKTkFNlEHPCHgJ5Bht5ByjIYPUpjFbB0tsAV+bgAYcUSPPyFzyKW8OJwu4mnNmpbCYGZ2SJ3KUwkXuJcvHMMgHAupGr0aUjg3Ejg0gIIvp3wUXljrYeBAdd7puPOksVoiQ3i54M7cIp4BiioTrDg7pKluNLThC3Bdjw0uJ1bDEjZrnY34I6SRby+w4/6X0NrfDClqEkfVpvLsca2HOXmcn6ypHtcFqrLMNpBThTO4aSIg8OH8FrvNoiMwvcZPBYX1lXPww218+CNx8GO7QUCMquQYHdC9PZCPPmQrlqjvBEyg+vSY6YIktRr6CtLASzz/wOmijUZu4jmddTXi5+feAUd5FbgxZIENHkasbZqJYrVmgv6GAxFCZLlgMzpauN1GIhF0QFERQE7uxlO+vVzla+mrAJSpgQMyKxP4IBcDHLTVqeU768tELCsGijOQSFMdR4ODgAHBmRSJT3Pgtqn+ig0Pj0vAQvKqqAAR9WioAUWck+ZdhoCFHNKgYUVacrnqMgwEAOYYkqR94TcSCYUb0GN4ivNJtmqQNvgWAdw/JQO7AnA4hnAtDr5pnwAwiNf/CxMQhEOtpowHEgnjtLcvR4JK+ZduNRG7aYzAMK5eZEbvRoSOBcSuLQAgsKDoBcUvSSLTHbEWBIRSWG5UaiJKRCv1OzEoBgBUTarb3W6R45bEBFlRJKiqi75Z425HKtty1Fhli0ITjMpvczqhnQdj4IXKcOBlKCIo76D2N73OpJMtoM7zFasKpuBWwrrUd3ZDlNILtaEgkJIng6IrT9T1FP2fAVtkJ363BnxB6RsLW5YZtwLU8M7+CXUUyQZx+sD7XiifTv64wGukk0wY2phPdZWrkCJvUwuwZwFHNBHpPAIIKjf81gC3ruAZhfgj6U5ENIylWdIp3XCAhSgqE0nJB89mej1J34aj7IFtCZ9/RpTX28otM5agJheNRk6qaqe9DiBDZLVUFSOHRgN7eS7Vcmr31M8xMIKOWBSbaEkwxAnY5JlYFJGozAQspJk4EYlRVQSGTpOC2jtyLSyUBerFwioUSg2hkb8+MpYLoYVS0AAwWIpwsETJgyMZD5JcQGwfK7IMyIudDMAwoVeAWN8QwL5S+DSAgiU5qinWta+4eV3d+ZbP4/PuM9fI1NuQTBVYI19GSpMFTzuwKWJO0hdSqZzYmHj4EDuQ4KII76D2N2/GxGaK2OwmCxYYy3BbUkbKnjeHwMq6yFZD0JsIRdDGhzoyZC0oFOyEOIAACAASURBVEC/7CpTIDPbYZ56J8xNH0JMEtEVHsFLvUfxav8x+BNhJS3TgsaCWlxetRzlDqKPzg4O6HMVHKhxBypIoBM4KcNmt4CBMHiK41A03Q9dT8qVp4WKmQRJZPan78mioD6uNlZhejGwqFImUMrWiJSJ4g9O+LKZ0WVYoJIy8dgAXk+BSJvACZ1k60GmpSDX1iGGR7JmTClK7wqqBOoX5R7UTwkcqLEIqSuVvUTPFksAp7uAU6fSHAvqLBbPAqbVTtSC4MWBVoFbELStyA0sniWC+BaIE+JCNgMgXEjpG2MbEpiYBC4ZgJBKc5RkF0PGK3LUBxohKYo7pYK1N6rf6U/RTOBUy2s5QCjnZYj1cQc0AnH2U8BbKqdf0T8MSRwbOYoDQwfgi/l41ccFsOMuFKEOFh7YGG+eD2v4JQhtxIOgBQjaE63qq880yatPn1KJJguSNTfDN+XDOOTvx8u9x9AS7OHWEZqSw2RDU1EjlpUtQqmjTDaqZzlO00ek8LRxB+p1qtIvtjLUOwR0h4DXNBwIKjhQMwhUi4N2GGIrpO/JXZBeMpm/gKomzi8XMlwa2q3ui8opjqcDaQIi9XutBYDcAwQOyLVA8QYUTOq2Mk7/TCBurK2iAgZiclxTC1S407MfjCvpk8pHHByQd0cpwpkCcsr3ND6xO3Z3A6c7WUZgIV0ypRq4bJbswsjHxTBWDILNAlSUME6OVFTAQOmTKYrnib0v3vTVFytAoL/B7Da8Ny0So4NLXALyn3z2d+pkf/RLBiCkiJKyWBBGUy/rl0VzctSCgkxHf4rCmc6+M2zluMlNWQzlkNVsZiP/PoEDOplmnB6VPikOoSfShUPDB3E61IXZooA7UYgKmDHIktheVYWmyG7U9v8FBVIEZowug6gnTso8A8tpjjE40Gv2oqVgMfa5FuJYcADBJIEoOk+bUGIvwhzvdMwrmQOnxS2fgPWASHk0OaUxHXegXkeKlawkxCJZbZdJkk6OAFs75XgAUnJkdSD3wejUwbTcCERQXQOyLoiaNAKyLhClMfn9c3EM9CsWiwGyWIxaDXl9qR+V34BAiNrIKkGxFJT9kI2gSQUGar9UvfGKerk2AzWa6kAciKtuCspkIHDAYzqUUTRWKMpeGAkCIyPA4DBDMJhhJOI3eFzAynn6LIY/8rRbbeNZDCuW4MefpyyGYpzsEUZlMfB9IcjWkgKXXKOhoZJdkJLQFyNAoFoMyaSYKiM/2V/qxvwmnwSoaBwVaqIMuIupXRIAgWIHdkZO42HfDgwmw7KhWHOSy1qcSV0ldb3GOx5o1pUU8xx7Oe4qkV0MfXGiWU6f7GWFyeSqhZp+tVuDfid3gy8+jNZAK4r8XbgpJqGY6gkIUTxsCqGR+VAv9qFSCqKG+VEqBeAhlc+SsBJgoIJLCjqlZxRhRgIWhAULhgQP+k0enBS8aDcVo0MoRICsE1xZCJwhsb6gBrOKmtFQUA/rGKmMKvAgcECR+KrCURUnBRcmKUWRAQ1OmSipZZhxkiRSyPQfAQMVHIx1SidFTYqMaJFV0ZFJn2iNKXMgV+sKAFs6ScmnBa7+Rid5OkWTsqa5aoMR1TUh6wX9TuPmauq8qYrjmrq0u4OeazCh0Gwr1it93IH6XvAHgd5+hmEfEI4AYg5GRcpeaK4TMLMRCKV4ELIDhKuXyjwIA34vguHxX0DFHoYFzQxez3ib/uy/yi5GgGBUczz7++Ct2KPdZoWFXoYXUbskAAKR67wR6cb/DG9Hn8JxoLUVZ1Rp1C1OhnVBG8WmakV64avVIFXQoQCEu0uXodlegUCCoTcuwM9z+dNxBxrPQKYVQTeHmBSF29eOeYNtsCQi+AOC+BOC8LIoRMEEJphQzOIoYWH+WSHisLM4zBBhZYxfQ1aMOIED2DAi2DAkuDEsuOATrDwgUDWeO8x2VLsq0FTYyIFBkbUoJwlSStVQkSUyzZuVmgqUcUAKUWRIMCp/nDbN19vJBQEcGwYODcpkSGRZoEJWahBj9mIZ6hxlkikipiKGSrqJKkAuqgAv85ytUb9EkrSzRwFlCmiSuRRkFwJZBggcqNTOlK1htabNfpwHwSZbA8j0n55NpkWCQAbFQ1DAJAEZahQ3MZxIp2nq4w5UcEDzPNUFtLTKG2o89UxBhU21AjwuP/7r54/iwd8/k2lHYuQucOK6lVfj7lv/Pi8mRVrTmnKGOVMlw4KQ54s6HIkblRzzlJVxWW4JWC1yRceLqV0SAIFbEKKn8fDwDgyKFHSnafrjqubfqV/1b2rV46A9jCkXqyd2siDcU7oMMxwVHBREJKA7CvTGGKfy1RLtZLgYNFNLOTYooj7Yh+aegzAlwni60IVXIz0Ixwa4ck8KpIlkh4IZEsw844D+Syfv0fTInkD/UaKmalvgio4UicWBOnc1pnoaUOuuRqG1kAdHqm6KXDEHdD/ZHSi4UDWXn+5LYsPWCE71J7nCTdeKYBwc0Lyo/gKZ7MlawX37KbQ03gmXSJdIcTOIVPgKskujyE61EfQLIqM4enYiWhqJUbpgOviRO1EEBjLvkc+fQIcaiOhymrB0ngv1VVYIPE5AjnUgdwOVqY4rSELnZeJzmVcGzKMUR2U6xKdA4JCek2SkUk7z2WmmTF2OBIA39mUGJY71wiDuApc9jGc2PYHH/vh7BIkvgzGYzBbUltdh+fzLsXbxOtRUNKoMDGO+f4xaDBN/PRsAYeIyM+4YLQFyMdgNgHD+t0ZESuBvoeP43cg+ToucUrzqMTCbTtJGrqWUP5nJlS/G0GOkTOY7KjlAaLJTUJ/cyKVwOsJwMiz722X1lW5aZaFSDNMFZKHwhgbR3LMfVjGGXfVL0GMiBsZ+tPnbMRgfRigRRlIiD/R4504lSE8wwWm2o8hWiFpXFQcGXpsXTosTVl7VMT2zscABDy4UlLgDAQhHGZ5+KYzfbQohkRw9m+wem4wV0UEk9Z/jP5dennocmN/Ok+dCwGXmVDtuvMIDjztt9iMAQFYPAnn6yoo0Q075XEVESbL1gbZLMCn/R43uV2WglSuBBwIIxHJ46AjD4JAu1mMMvwvBvWF/H6/mODTSD1FMwFNQisqSKpSXVMPpoGqOmRuW/uVxy+sTiZAFR54fVXMk6wFRLV8Id+jF6GIwAEJ+f1nGVWNLwAAIF2CH0AuwJxnAz4d3YFe0M3MGZPqm4CK9ZlHoks1WMz+tpkh9M46Lmn8o16vv8EKTDTcXzsItRXPgUnz36sD0Iu6KMpwIySAhq/VAo0U51wBjqB5ux5T+ozBJEg41LIOvoByMCjhBRCgZhi82jP7oAAajQzzrIbPJpnT1MT02Nyqd5Si1F6PYXgqLiZ5TrucwFmhR+0wpOCUokdwLqjLpHRTxjV+P4PDJMZz1o/ZBNoCg/SwXgDi3G8pmFXDn24tRX63QXSvDUaAkxQDwOAhdZkOBFVhZC9R5ZCmpNRgiSSEjKFGrfKkPFTDSPUNDDIePpeMPCIR5CuTsjWhkNDW1PC2yjij/KXEktJ65gp4KnMBlM2Tug8ERAd2DcvpjTRnDzAYJtsxHPreC1vRuAITzJmpjoEkmAQMgXIAFGRGjeDZwBM8FjyHByLhuglOwo8pciuiOATzyg0cgkQ05ozHMbqzHd+6/F4tmTh+Xf1ZvTLAIJl7IiX5ma3Ty7IkxtIaA2BgEPLxfii5PxjCt7zCqfKd4d8erF6C7uJGr88yofdWRoCrUNNLQZjSQ0hCUudEVGVYMzYRTJEejmBkVjgBBjiFQ50CK7kh7Al/+5QiGRvQgRa/k9baE8UCCPLHxocJY1ogsZqExLC6UKfGua71YNFumZ9QCI7dVSJXx1pY2KHFQBoOQYnTkboOEHICZ8oBoMhZIZtwNo5E7WRGOHmcYHgaKqHhSJVDsFRCJAMdbGfyB8eMTtGBOb3uhNEayElBRJpX3gMpLx+LyWjpzsFGejz9fAyCcDykbY0xGCRgA4QKsSlhK4kA4jK64CLIVmGGCXbCiwOTCK5tfxtf+82ujAAKdxOZNm4JHvvRZLJs765ykntCJsScKnIrIMQl6X7aWsKkg7kdz934UhYf4XE+VT0dH+Qw55VDj/qB/jDYky6fLDAWnII98wIF2ybQKMsV3oMFApNh2HY3jW78dgT+kVZu5rAHjWQnGhwNntqXy65cyCK5bXYC1y9KlrFVp0vMTBTMFNmpLPle4gKsbqeCTLC0OEIhDQYk30INJ7lbQLL4KCgkMkLWg0MNgoWBJBaBQlkNrO8OQ78yenFycMxslNFRdmGqN483aAAjjScj4/lKVgAEQLsDKRiWgJWJCkCLedW3zpk346n9+9YIABJqKDBIYOkgZaEBCxomeAhRD/WjqOYCYxY6k2Y6ww4NTCkBInRSVm7IBhDTzvhLKqJxgx7McaE+hWtFRSCRlLOhJfsgysu1QHP/9+AgCGQBhrIXPz3JwAbYOjwd423I3rl5VwF0J+pmSa4WCFikIkSwEdPqmFMe3Ncg1K6gRGVYwQVECow1RatxBhpw165htfegz3wjD7gOjuRHykZHFTCWiJTRWGwAhH3nlc40Rg5CPlIxrxpOAARDGk9A5+N6XFHAiYsrw8arDbLrAAIHmQYGL3VGG0xGZTEjVQqnUNwEo83ejdqgNXSVTEbO6uMvB56lI0/bmBAd6y4F84ZlaDuheMhhQaWJt3AF9TiNRvYMdh+P4/hNjAQSt2suWHqL2dg42Q9Yuc1sxCCBcudyNa1YV5LTpU/Etq5nxYk60ZrNKgOU16WekNSUAoX/SbK4FrUtHnZV+rain9lNA68nRD0PuArU+Bv2MRMMwmRwpd5K69hSAOK9JQmGmYeR8CXzMcQwLwqRYBmMSF0ACBkC4AELvjgnoiGWPBZgMAIFEQnnylN3QGR0duEjavCTQi+JgP3qLGxGxF8i1DNUYglHgQFVOme4G2XSdNlVnnFqVf4yVraAqF6orwcsS6wwyxHUQTQrYfTSGH2gAAinCQpeAaq9Zw/Ovt+boYwO0GyX9PPrtk8r0GGNfaRWtDD1G96fCJppFMCqhd0RCPElplMC1K91Yt7qAExaRlUANRNVSQZOrgXYYAQGqwTC7NP18ZBnSu5BoHjytUjNvLThQZa39qf4eTwD7DjOMKDW71C5oPcpLAG+RDBIILBxqaUUoUgaXozBDQmRFmDdNQn0l48GWk6ldqgAhERrCsY4+TGmeBQfiGOztQ8LiQlVVCaIjg+gaDKO+vhoOqwWn249CcFegtrwI/qEh+AIJlFWWw2WT0NbaAUdpDaq9ToT8A+gZjqK6thbmeAjdvcPwVpajyO3MwhY6mVbZmEs2CRgA4QLsi9aoCf0J5YWdOsbJ/960eSO++o0L52LQioOUSGuIoZ9KAmv0J/3qivlR5u/BkKcSYWcRv01W+HIPudwKasa//mSaDzjIZt42CzLfgb5iNblKEpz+mGIQMgECKdUbFtvxvjUuuB16YPDmNoTe5J+tt9EAIfuY/DoGHOhI4NcvhdHeL/LnuesaNz5wrYfXZYgkGc9cIE4FAgM89kDZU8TmSL8urwbqC+Xn5CmEFPynqR3Bw0iVwMTUOmiCFrPJna+x8gVRLx84AiR1zNqUjTB9ClBZLshKnwEtJ09hy64gqstnZTw0dVVXKWF+E+M1FyZTu1QBwpY/PYZnXmvFmpvuwOXT7Hjyl49DrJyJW9ZfjpZtL+KlvS1Y+873Y1V5AN95+El4a2fjtrdfgwOvPI+tR/y4+V03oVLqwW/+8DckKxfhM3deg81/+CVe74jhmuuvR2HwFP7yt+2Ytuo63LR2IVxUUMRoF5UEDIBwAZbrcNiMQA662o3kYvgGBSlmKq7zEaSoFwUpDn+C4UgQCFHVP37al8PbzUyEKxZE3OJAwmpXwIGs+rKrXPle1WqggojxlI92Tvpr6d9OJe5Ae51MGy3TKJNJniwIWhcDpebdusKBj13rhseZz3FVa03ItmH0hAC5rlevG4NAINW9cg0Ddp6I48HngmjtkwHCfTe68el3eFJKXaWEJnBAoCGcYAgkBESTckbHrFIBhUrZZJIJrSW5kVR5quCAj6gDgvmsT3cvw/FWYqrMvL+sGJg+TYBH4zaIx2L41R+2oqJ0Oew2F39ash6UFjFMqWaoKDYsCGfjlZRPDMKLT/4QP/7DTrz77/8frmky42ff+wniNYvwwQ/cjMMvPI3/e+kA3vXxf8ZV1SHc/+XvoLhpDe798NuxbcMTeG73MO665/1oNHXhgZ/8BsLMdfj2J27Ehl//CH855Mft7/8AvL6j+NUTf8OCG9+H269bBrcBEM7G0p7XPgyAcF7FLZ/gDoTMnMUwW5MBwuSwIND8SHn0xIDjIYVgiFj/1MwE5ajK89r5/7TqRFZw6XNrOhhRpRPOR/mkTrQaYamWCqrQqK9ISVOKS3K6Hz8xM2D3kRi+p3MxFLlMKC8ywayYHtR5qhBHflpKQJV/U58mTbOUWfpZfVb1Pj01c/pzlUdRa2tI/67Cq5TyJjdBREK/n1wM5FJg+OSNbnzmnUQ0NHoHqXEEXOkr7gcKWlTdL8TMSACBqKRpcTjfgXKd1iqgdq3/qb1GBXkEDKh4U3efHKxIqYnU95Q6YGq9ALNZA0YkCZte3Yn9x0RcNm8FvG6gqoxxgOB2yFwOk61dqhaESGAYAyNheEsr4LIy+IaGIVkc8BZ5EA/5MRKKoaikBC4L0NvXD7PdjRJvAcIBP4JREV5vEWxCEv2DPggODyq8boT8wwhERRR5vTCJMYyMBOHwFMHjduYsWjbZ1tuYT1oCBkA4z7uBm4zD2QECvYwJIHxlEgEEGSQwHA6AF3hSsIAmlVHrVtBrrLQ1QU+PnAsc6JWU9qytvYfiDvjhX4dJuGuBrAeK9mLkYjiSaUHQL3l2i0f2jZHdNqAqeK3Sz6K8R7lext98mYGEcn2IsQDCeD0SaKAiXSSnFJjI4h7Kd33U8ThWJPruKDgnQjTOUOKVORM4OZIM1/j/Dh45iv999mXc94H3oarMBSvFS0xkEcZ7yLP8/aUKEM6ymIzuLkEJGADhPC8qvUcPhswIp6gS0ypgNEBIq8dcLgb1bjoxkiKXmJy+Ro30J+fYp8Oi8gI+0/cw8fYf8LN0KWjVR521X/nDdCpjusAQfZOP5UB/vlZPq/ST4g5cdCrVPQwpP7IeqOCAvuY8COMAhOxbQO08U0Wf+XYZ3Z/MJamFHNnGygQdMkAoyGlBSM9PY0LR5CtQ4CYBBNonVCxLtrSMXh91541aqxz7KNu+4p9pYhmUMASc6urC08/9FR++9SaUFXvPXKTn6U4DIJwnQRvDTDoJGADhAizJkbAJ/iwcCPRCpSyGL49jQVg6dxYvbETpahScFhQZAkkBMV6pUDZu03/EDUDcOC6zgAIrQ4FZgNMsVznkoGECz06KhOo1dEY1RvaUWyG7ElVhgqzIZXWYLzjQT029j9dZoLgD3eQJIJHlgCs8zbPxGASdiyF16h31/HpYMr7CzuxibAtCfteO7kP7qOQO+MQNbnzqHR4O/ug79afAkoAYA5JBsESA/0TMB5YMIp6IIxyhypFmMJsddnchYCsEs3jArB7A7AJM9lHph+qcVWWvBWra58lYjiwBjqn7GTA0PIy/vrIFN16xCmWU4jDJmwEQJvkCGdM7ZxIwAMI5E23ujlsjJgwmMzWc6uPetGnjmADhoS9+FnNmzeKleum/AOkERY9pX+KpF7tGx1FRHo8VKLECRVaBn8L1inYscYSSwOEg4yfQTItEbqUm8+7LroYMamXNQPmkMnLFJAB2k1yESSs9Mm8TOOC1A3TAJxtAoMvcNgFFBaZR2Q8XYDuMOySZ631huVQ1WUk+fL0bf3+zh1uITEjCKoZhSw7BGjkFU6AFCLaChbsBqqyZCKF3KInth4kPwgR/yITKUjOWzrFg4SwXyirKAHcdRE8zpIJpkBw1YFYvBJMDvGRklsDFnMBAQQ/q2mT9KQDBUAhbdu7CmoXzUEI+iEneDIAwyRfImN45k4ABEM6ZaHN3TDwIp+N0vtd7mOUYhGwWBLvVisuXLcWnP/4xeGvqERXlksS5TnQZilLjyOf56KQgzUCZTUCJXf49H2sCnV7JgnA6qtD0ph4xEyBkKAYl8+FsgAOrIAclav3V9GjE2Z+gPEwdOKB5qC4GbZAiPcfV8+x410on3PZ8nvwCbBJlSHq+w6cSeHJrBKeH5CyGuzlAcANxHyyBo7AGDsE6chCWcAeEZACQKN9Q3hynB0148I9WPPWSlRdAovspa4CIiW5ZncBHb0xgWg2DYLJBshVDKmiGWDQXUuFsSO6pgJVSEBSgoBODXnL6DAj93uTfU3XNUBi73tiHJXNmwlvouXDCzXNkAyDkKSjjsktOAgZAuABLSkyKbcSkqFOw9P7UAwT6rNDjwfKlS7F+/XrMnj0PVruDv/9HWQxyWBL05l/1XqIlLrIAVQ4BxdbRXAJ60VD3/gR41ceQpE1nTI+QCQ7GdivoT6ejFIo6ASoOpVgP9MFsqbiDHC4TClIkF8N3NVkMlOb4ntVO3H21Cx7n5AYIJII9JxL4yXMhtPQmuYK/Z52Af1zbBsvAVthG9sMU7YEgRbkiFywuwFYMwVGOCCvEA/9zED97KopgWBGQBpNSgaSbVyfxxQ+bUFtKtaIjvA9mcUNyN0IsXgyxbAUkdzMHENo2YXCgWdxIOIxd+/ZjMQEEKgk5yZsBECb5AhnTO2cSMADCORNt7o6pFgO5GSJqQJ2GSU8LEOglXFpSjOuuuQbXXrce1TX1MJtlspFsai11gkuZ2jUne80NVExJe9pzmYBqB1DhELgiHqtR/jwVc+qOZV6VBgbKb+PVVtA9hHZY/RTIx06uBQI0GszALSg8pTGXPBQLgh4g0H21JSZMr7JqSHnUUVVzi/anPKoqzXRoocY0kzXYUHWvqKGI2rDEbONkWmLUZx0MSDjenUQoxnh64j8s3YtPzXscptApgMpom2wQHBUwFc2EUDgdcNUC9nJseOEY/ulTv0Z/Pyl+pQmAxWKCKEo8i4FKKH/yQ3X49EcXwplsB/O3gMWHeb8cKHimQyxfA7H8bWDW4owYhVSX2r2VHiY9ZHpL8M9C4RC279mL5fPmoNiwIJyTN1A+PAjnZGCj00tKAlaLGTaqpnYRtWg0hmAoAsEfCDG7PfNkczE8B8UMdMVN6EsoWfYKTaFsQdiILylBikWeArzrnbdi/fobUVxSxl/OufS33pog/1tJdNe9oNVqi1pZEaFglQOocQpjxiVQhsRgHGgPM7lOg0YhyMOkTf25lH6+MQfUFa+zIChxB9oOFTKkscABzUaNQdBaENQ5Z1oj9JIdHaCYMXw2Xa79jMSg6yI35Bhj1ypLqLIjEkC4b86z+NTcX4MxMwR3A0wVa2AqXQzBVQvBWgiYbRgYCOKeu7+Dv/3tjXTUKoDKMicuX1qHbXs70dkT5gNPmVqCXz52HxbPr4AUbIPUvw1s4HWw2BDfQ8xSBKl4EZINt0HyEAOixmKUBRyoYCr1U7P/6Fef34/Nr23H1csXo9QIUjwnr6xYPIkk+d6MZkjgDCXAY75sVpjV+utn2M/5vu2iBwikKAKigPaoCXENhzEHCBtlgGB3OHHrLbfg3e+9HYWFxZkhfprDrh4Y6F/KoxW4drkyyX6onkGdE6i0C2MG7xHRDmU0DCdU+h+lH0Xz05zyAQd6lZzxb8UCoboW9P5tStcj2WUDTBmKXGFSnFg1R63Usmdo5N70WkuE/iq9lYK+1/eftlPId6e/l1NZBdw3+xl8+rJnIVRdC1P1NTC5GwCLOxVUSHe98PxO3Pn+BxAIRLmMXA4L5s4owZ03zMbl82vw8J/245fPHkEwLMJut+Dfv3gHPv0v7+bxCyzhAxs5ArHzOUiDuwExCpisED0zkWx4L6SSZUrGQyZATOFDnatLfWr1Z0//AP60cTNuu+4qI83xHL09KS2arEQiIWSjGRKYoATozUrA4GIDB/SYFz1AoIegdMTuuAkDiUzqOAII//H1r2LNmtX49Kc/gwIPgYMsLgXV5661cqsR55qjqpJEkJV1T6+KaBy3BWhwCii15Q5c5BaQSJZgxbNQeCmlZJT0PWJLVE/6qoIhP3xMWxwiw/yf+ZdAJ2/iQfju4yPwhyg5NBMg5SyJmHIoTPAvS+MuylSfo+0HaafF+HMi98qceisGQsC7pu3+/+ydB3Qc1dn3fzOzTb0Xy5YbuFcMxjamE1oIhFAS0khe3jRSSL4U0nghiRMgpJEKKdSEJNSEktASAzHNNsYFd1uSJVm97kpabZuZ79yZnd3Z1a6KLQfL7D3Hx9rdmTv3Pndmnv/9P40vvzcfqWgJkiJyKCfOSiiHL33pN9z1u+eYUpnLZWcdx0nHF7NkdjnVJTk4gdb+ALc+tJW7H92OLCm87/JTuPveryBbqQyFiSHkQ2t5HrX2L+hhrwFAtKzJRKZ/GK3iTJAEe2eaTZLv0XQpmwWkrKlv4M9PPMN1H76C0qJMmONY77DM8RkJZCSQXgLHBECwWISDQZmASHsbbcLE8Os7fsPNt91G9dSZ5qvX2kRGNfqQXXOyg17ScUN26oK2tsnX2PHbDhIOizOyzTDIdM0yM4ixWyzGaJkDq89ULIM9fFKAg1R+B0adhaTxpxqn6EtsoLbuDfLjv5gAYfTNgk+jPWM45mC0fSQDBXPxC3Nlrlrt4cOneQipEj19GicdLxBcKv4EDhxo40NX3cLWLXWcv3oyv//K2RR7FKOWRqxJOn995QCf/eGLhCMyZ529mAcf/jZZWYkmO11T0XrfQt39S/T+eiP9opY9hciMj6KVnYYkm0UeElgC+2WS4Yuus2HbNn730N/58Vc/n8mDcCi3RuacjAQyEkgrgWMCIIjZibj9DsMXwcxqJ9orr7xMW0c75737EmQ5Gn9o04bJjoj2lyOrMQAAIABJREFUl3Pci85WGCmFGJOZg2Q9I5wCp3gkw3ExXZ4EkQtB+CH0iqqUIzgkGmOMKo1UrEVMn9iAjnBKtNdZMM4znBKF3BIz/1kYKpWSEufsawhxyx976ewdC0CwJDtaE0MqQGGf7ej6EeMVm3hh9nPKEtVlClee4uGSk5wU5QjaTzF2+QnK3vC10AgGw3R1+bj3nuf4za+eMkpa3/aF1Vy4dDIiRDS5HfSF+OPavdz+xy2sXL3QAAgeTwqfHgEK+mpR99+F1rXJNEPkHUdk+kfQSlbEQELsXoymTIwBRmvtDROJxgNPPM3f177EH77z9QxAyLzoMxLISGBcJXDMAAQhFRHJ0BaSEaGP4hVef7CR7IIisrNsJfCi4rN26qn2mdZ3Cbv4FBvMVGyCeW6igstTYGa2yMCY2tQgfAAaA9AuSkEP53OQgGBsG1j7nKLHWGNL9juwvreSISWzB/br22VkndfeHeEnf/GxvS40TL6HQ2EMRqf0R3P3K7JErkeiJE+iokChIEeiPF/izIUuVsxy4nZKBggQ/5yieIEISJRlhDmht3eA3bsb2P7WAda/vpvnn99MV6ePy887nl9+YTX5jtTOrSIfREsgwvlf+BsrTlvGH+7+8jA2Rx3dV0ek5l60rjdACxqOi+rMayBvLrqkJITdpmOTREbH/3frz2jp7OKuDEAYza2ROSYjgYwExiCBYwogCBUzoJogQTguDka0GJtg6e3Y5i+Jkzc+2rRjwkvZZpZIRUSnYadjyyA2gcIXQbAI0YKHCUtkVXlsDphMSLzeYeJKJl8naQoxbGJ9L66V0u8gmi0xmQNID3hMYCP+BYI6T6wb4KEXBhg0wjNTK/YkS84YbsmkOSdZhYbrSFxTpMJeMsPJqQtcnHScwrQyBUfUvOJxgtNp2noEOBCAwGoCIKiqzgsvbObWm//Krp1NBAIh4ztx3LSqXG761MlcunwqHsMTOXGGe1v7uPdf+7jniV18+Wvv52vXv3/4OWsqum8vkdr7TSYBGa3iLNQZV4OnMkYTpQMHovOmtlau+PK3mVRWyl03XZ9hEA75LsucmJFARgKpJHBMAQRDXeminoJkhD52hc0Sy1az0+8J39nY6+QXsl1ohwIOxPnivEIHzMwx6zekat0haBgEkdfBOifh2sMwGPZ5WX8LFea21Vmwvhfdx+osJA0kAXBYVLbtGAtENXVEeGlLgPYeEfqVKnJgqMxTHWWKPZEzMS8bV752LmIkICbOLNRlzjjeyaqlCjk5JjMQiZhptCxTgvhf/LNAgjhG/B0Kqjzy4DpuvPFeurv9Q+ies0+u4q6vn0NZjgtE1ihr7JLE/S/s5yu3v0x+YR73/elrnHbaopHfOFoIrfMNIrV/NMCCqOGgzrwabcp7DafF4cCBuPYTa1/i2u//mBVLFnDXjRmAMLLAM0dkJJCRwFgkcMwBBDF5AQoagxLNQdmsxmjf7EWlE6fP4yrIeCEbaYaH7opN98H496mVlV3FWh7p5jmC6p+VI1GYJqLBH4FavwA3KcIabd2mZA1S5Pi36izYwYYYiTBnCL+D4YBPcrXKZEUlQFggpBG0qlnZZZoMKGxJB5PHbn0ejhmxuouvVyoAFQ8xlcMSUpeOOxKhYrpObqHTYAAEALD7GojvLLOC+DvoV9nyagt33Pk3nn7hFUKh6ELY7p050/J5+PsXMLMszwAIsfkoMt+9/01+8uctXPK+lfzil5+luHiUdREiA0YIpHrgIfRAh+GPoM7/KuTOHrbeRjAU5DPfuZVH1q7jXStPzACEsbz1MsdmJJCRwKgkMKEAQkjs8lLEIotdqF2lC4DQEFDoDsfz2gidb+lF68Vu7V0Tz06UW+Iu11Z9MY14zXGYZSATIYVuOCuWmo7qCWBDnKNqusEgiIJRQ46IORxGy0tGO44RH7E/IEtxUuBy4pFN50O7UhY1FgRASAcO7Eo4prxThIUaHh4pGAY7GDH+HgbYjMRWxIFBfLLpwJF5XRPYCYAXGYT+vW0E2lSmLy8ir0TG4XDE/A4M6UcBgvi7vzfMK09284f7H+K1rRsZCAzGzU22G6u6Mpu/3XIB8yZZ4YTRHxWFb/xhA4+sq+ee+69n9eqFyMl5rNM+jjr6YBvq/vtQW18EPYI2+SL02Z8DyfSPSCWrjdu2c9mXvkmvfzADEEb1qssclJFARgJjlcCEAghv9nTzYnsrfRFVWGzRRL78GDRIVPeibLPY4Ma1raktYyZ+681r6LpEO0Ts09A/0srXDjrs+t+wi8shiuQBcmTNKO5jmb51XcKne+hVs4xTRFSBWU0ySrQndGoOJhF0mGO3hqlIMgsLy1hZVkWO0xkPl5PMfoOqVQvSnEYij5BcVdI8JjGzhDjGxqIkSSMdI2C/VjIbMRyIiHUfLVJljTo5MDMZ2EhaCFfdowR2baah60qqVi2gYqaEZMheMDsyqoh2Cet423Xq3nTwny3P8tM77iUUCQ9d4+jEplRk8bdbLmT+pCR2wKFwy0PbKJi7iP/9xLtxu03FPuqma2idG4jsuQNdpHx25qMuvRkK5ieQWZas/IN+vv6jX3H3U88gKzLvWpFhEEYt68yBGQlkJDBqCUw4gPDn+jr62ls5//En6Csu5l/nvQt/fgveshfI6T2Rov7FrCopo9Dp5sWONryhUBo3ulHLKI4x0ihE6+tEa7r5rSCiFzibuNCzg1JlIKGHoO7g5eBM/hWYP0RZWzghhbUjoQ/7NYUeW1JczvmTZ1Lk8pggQOQviIIDe2qjdODArsyHgIM0zMFo+rL6TbUbjl/ThD8J/UWzU8UZjUSIZDIHFnQw/5QDTeTtvBln3x4CoQL29N+Gq2wqpVM12vZL9BwUqSODdAah3+XmsivcPPL4P/nqV36PanqJ2tCT+Cwb4ZLTJrl5eM2FzK3IN+8pK5mVLLGfIqqWryA7x5T7WJse7kfd9zvUpudAC6FXXYg294tIRgKl6JCi81y3cRMf+/b3ae31GpESGYAwVmlnjs9IICOB0UhgQgGE+oEB7q7bz+C2LXzplh9S3tTM9b/9FXuWHKRp5s8o6DmF41s/wccnncSJRcX8vnY/6zs7RwQIdiWbSsmnAwB2gsLG8qdQ4BqSrsX2+pbSN00eMsbW1hZEkWo8cX4kUX/ZxyAmOqegiIumHEdFVq6ZU0H4C1j5DixFk3RnJPscREeVcNRwZoWY8k9GClE9azdXJCu7uC6OK/5YNynMGIlmhjg4iIEZXcPT9jTZdXchB3uQCmYhLf4pjbtzaanXaXeo+OlhflEn/Y587t+cxQ+vLmT31t187KM/orlJ1EyIwpSsPNSSaeRXTOHzl07hrJMns2z+ZCOnRPeut/DV7KJswTLyK6uQ8vLpUQpZt0djXpXMlGIJj1MygEUKsQx9NoWfRNdGIjt/jj7YYkQyaCfcDNnTE0IevT4f1/3gxzz20muomoqsSJy74qSMD8Jo3nYT4BiR2VSEzArGzxZkMwFGPoGGGK1LI4KRRPK4UVsDJ9AUx2uoEwog9IRCPFBfx5sdbczf/haVrS28ePqZDOSGGczfiRLJI7t/NtWefKbn5LLT56UrFEojqwTVmuKFHaXzk9Mwp0MTUR+HBGVgHCsRaO3Bt6sZ1S/GYl1XQnIo5M4oJXd2le365gXs++RkBWP3pTCOjnYp6POqrBzeUz2L6jzTTi58DsJqojNCql18shJPVMTxiwz53jZy0wlwqAliLGaFBEYkaeLxj4n1KuLgAKSIj5y63+JuW4ukR1Dmfg5HtYgKkGjp1fnek0Ee2BDhwrkKt1zp5o19QSYVySyqivCDNX/i3nv/jV91oFYtIDL7bNSyWTidWXz7PCfXv8eJHAnRs3sHgd0PkavUEco9k7wTL8ddUsbvX4zwrb8HmVQgcfIMhYsXO1g2TaaqUEbkTBoJKOiRASJv3YrW8ZqRilmf/XmYcklMwoOBAPf//Sl+eM8DtPZ4je8zDMJ4vQrfvn7EPe8PQ3u/zqYmnVcbNfZ16XT4xbP79o3rWLyyeAaznFCVJzG/XOK0aeb/JVkS0QjoY3HahzynCQUQgqrK+u5Odvd5Cek6uiQha7rhnZ6c38AkhqO+ZknOevGyRHFlHd/Jmtte42Ue4/lT2Out3XgiH25+mwQqIr5Bgq1edOEEYDtekiVcpXm4K0ybtr0rU+nFMysmr3AqZTM44IdQiCWTZ1KaV4SqS0YJ52Smw+orFXMwRJlHzQqprpcKaMT6tuSTxskueb6J8jeBRjowYpkVEkBN1JdEGdhHzv5f4/RuN8o2O066DTmn2hjN5gMqX3owxH9qVT6wVOHHH3CT64YdDRFOnuVgz94mbvjh0zx/IIfg9NWo2aXmLHSYmifx+GdkKgcb8Tfvo9i5EXdwL30sRi0+B616Hh/9o8wLtVqMuSnOglOPV7jyRAdnznFQWSAZWR2Ha2rjE0R2/wb0MJSfjrbgG0Z2RRGq+drmrXz7F7/lzT37zeicDEA45Bff0XKiYAsO+nT+VaPx1G6Npr7E0OyjZZzH8jgWVUhcuUDm5CkSZTkjwfhjWRJD5zahAIJQdKqgYg0tlrr6YKrlG48lH7aPEX5M/bOYTQoWI8o6pKMXrVA9K8mP1bdwVezq7KK1tZWs8sko+cWEtWiYZ0qHRPPMZCWc+Dl1tMKQ+QwBYOYqjJY5GDKOtMxBdLzG7+b6x4Gc+FvD1fGiYV5QAs1G6WbHkpuQZCeiWu8Tb4b5wkMhmn06/3Oygx9c7jaU9kBAx+WE9fsj/Oif/Ty7Vydks/2Lqwm9fu3Cfr64tJ3JC6rRO15DbXoFZcYl+AfLeLnOwSefLabLSB4VbyJZ1eQCifctcfDxU5wsmiIPCxJ03z7Cm29AD3RC3kz0RTegZ1Wzu/YAt939J578z6v4g3FWzGQQhInha5lESRPs3S3Yge3tOn/covL6QZ2gLYJpgk1lwg9XpDa5eI7M+xfKTCscD40x4UViTGBCAQRLkSgOBTlN1hyhX4ORCKFIJCG+ITF8wVw8u3q2qG2nopDtdKbtf3yWXUcLtqAO1gzpTsKBVzmOPd0BI/TR3sSUK3Jz8QUCDIr5JeGLgYEBeru7UfIK0LPyDAdJ6xjTh0DCIcuU5xdSlC18FOIgazwcEpNBQSqGIfnRG/I59oUFYJJMFvYy2NGfYkyCHsLT+FeyGh9GUn04Zl+LMuMqQ4S9Azq//FeIW/8Vxh/S+eRKJ2suc1NRYJ69rV7lpidCPLNbjSWrSl6cmdlB7v6Yh1Pmuwg3vIh6cB3O2VcQyZvD9ff7+N22LNIxwjlOuGi+wvUXuFg2TRR7Sn0n6SEvkS3fQevZCu4ymPsFBnKXcdcjj/Oj+/5Kp68vEYBkAML4PJL/5V6Er4EAB3duUNnUoiM+Z9rbKwHxjL7rOJmPnZABCdZKTDiAIAbuMIrspH7DarrOfxoaWXuwkYFweAgIsCZuqR3Thi/235LhrLKwuJgr5syhwB1LWHAE7lod1b8fte/NoX1LDjqUk3i9pZ9IDCDETSEzigrp9PvpC4qtaqIMQqEQA319qIoTKTsn5vxoKm6zD6fiYHppORUFxTEQlLzTj9H7JtNvtFTmCAsQWODKrvSGAo7UYozjgXiyI6tfe1CnSRrEWQ+LObBLQI74yK4V/gfPGnN3LF2DUnayMYUDHRpffyTIo9tUNE3nM6c4+e6lbsoLJLr6dL70YIBHt6gMDmPzdStw7SkOvnOxhuvgP1EP/htl1gfYJ63i4/epbGkRjqjpm0eB8+Yo3HyZm/lVokhUimO1CJFdv0Q9+CQ4cmDmR+gtOJdbfvdHfvPw4yRvMjM+CEfg8fwvdNncp/Ojl1VeaciAg/+CuEd9iTw3XD5f5sOLFYqzR33aMXvghAQI4qWoCPfwFE28oB/evZvvvPEGjX5/XLsZICC9kjKj4+HUygp+efrpHFdYeEQXXdcCoCaGPUYHS2e/xFt1LagpthVuh4OIpqFqGg6HQnFBLu1dpsOaAAg93d2ERbGf/CIkhyMKISxNbyZP8ihOAyiYGspu67d9jkZAuN0uXC4nfX0D1uFxHwsB1hwOsrI9DPT7zWyFJpxIzC0hHIM8LiZXVeBwOqJHxMUbtRjEvkjNMiRWnUwO/xTnKIEmsmvvwNn5KpK7DMeyHyDnH2+Eeb5Rq/LpPwUNJS5olWtXO/nOpW6Kc+CXz4W56ekQfSlSINhvAnGNBeUSP70kwCrl70hNzxOZdgX31r+LNf920jU4HDwwexIg49JFCj+7ys2kgtT3sFr/GJHdvwLZjVx9Ed6yK/n+7//Krx9+fAhDIZ6Fc1ecyB8yqZaP6PM6np2LJJ1/3qby240a4u9MO7okUJkLXz5F4cyZcsraOUfXaI/saCYkQBDsgWAR0rUNzc186qWX2OPzsbiomLZBPw0D/ihASKSsE17pksSSoiLuOP10VlXZIwuO7CIk9759TwN3PfpvgqGktIpWoqcod5Cfm8VJC4/jhfXbDVOCUaY4EDAAhOzJQheljK3O7eEBtgtavyf/bH1fUV5CaXE+O/cciBU3sp+Tl5vD9GlV7NtfTzAYr/CY6P4JVZPKeP/73kVufl4suZPdmhAzE0TBhXm+BTRsZbCTzQrWXCRw9O8hu+YOHD3bjPBG55IbkbInG/4H/9ga5uP3BekV5nsbg9Dh07n8zkH2dI+s3MWlBA350QXd/N+cBykaeJnWnPO4buNlPHMgzwhPG03Lc8G3z3fx5fMFUBtKI2gd6wlv/obge5ArzsA3+X9Y84eH0zIIGYAwGqkfPce0D+j8798iNCdai46eAb7DRyKY5HfPlvjsyQoVuWlsge8QGU1IgCAc9RyKoGhTL17bwAAfeOZZwprKY++5iA0trXzp5ZeZlp/PKRUVtrjX6H5Xgtda2ni+uYkZubn8cMUKrpwz5227BQYDITp7+pKqDZo7aFFd0GoCKLldTsTxoqlqhO6uTvoHA8glFShukbQnLiO7KcHgCizKPuqoYI9StM4y2BpFJhKODKl2aahwWYQHOQgbv0fVum1ZYv04HWTlZRt5ASy7RdxsYez/kRCgz4IqeiyLoxinZVJIa7oQAMG3jez9d+Lw7UIuWYpj4TeRssoJhOHOtSG+/FgQXTz9ms6nVpkmht++GOJ7z4YMf43RtoW5Hfx40Z85s2w9z7afyle2XcV+f/FoTzeutKBC4o4PeVg9a6g/gubdQ/j1aw0ziVyyHN/Ua1lz12MZE8OoJXx0H/jELo3vvaiOmJ/laJ7FnFLJyNUgcqxkRXRq+60ssEfzqEc/tvIciZvPVThh0ujfC6PvfeIcOTEBglAnwzgqCifFz73wAuva2rjvnHMQfgmfXLuW9kCAEpdZJc9qlrrtDYdpC4Yocrv4+pIlfO3EExMcFe2lgdMu7xgiK4a7RTZtr+X2+54yduRWO3HBcWRnudmwbR/BULTIhH0LbtQX0AxFHVFVJIcTZCVmDrDvj8Vpwg6/4sT5dHsHqKltTFu22QABSUmcrDGN+tHRYdqUMj5/WQHljq2gJ/KquqOYQMH5hD0ClJnBqakyJNoSOQ5R5wJsOHrfJLvmTpS+fcilJ+JY+A0kTyl9gzrffDjEr18Nm5PRdD6xwsnnznLyqT8H2SgyK46h5cpBPjl1LdfN+ie/rrmQ39afTZ86tgyKWQ64ermDWy93U5gUWqX11xF+5RoTIBQvwzf1c6y5++8ZgDCGNTqaD/3qsxFeqB0dY3W0zEPg6o+cKBvF5mblSfQHwUjW2qOzPgSbtmt4ymRWJxGvi8skHtyhsa5hYs1XyP2GMxTeM0d+R+dHmJAAQSzecH4Iwj7/yy1bWLPpTfJcDvIdTvb19REYRWoyjyzziblz+MGqVeS7TEfFnkCA2t5eA/Gnu83F9wUul+G7ICIFDqd1e/vZd6DZiGKwlHBRfg6KotDt7TOUe6omQIzP66XX2wv5xcjZeZaqHRLOKDwyigvzjWgPvz9anCjqzGgCAhvzEP3TAgrBsEZfSKXAo+BSZEOuwrNA/O8WiaE0DSFHMUpRlUDwAjnZHmZUOXFLvbHMTnF840JzVqLJeca0YrEVtvBJ4XNgBySpzBMO75sGg5AMEDr6dD7yu0Ge2x8FAprOx5c7WTFDZs2zYYTD2FiauPayvAN8aMrL/KP9BF7qmo86AgNhyc5+HeHP8Iur3Jw115HgsKj11RF+9RpDcnLJCfimfj4DEMayQEf5sRf/SdxzR/kgk4anyBI3nifT4dXJV+Cvu3VWz5CYVybh69R4YJeO4pZYXpG4bVhRJfH4bo11jWN7xo4G6Vy9VOaaZQrCcfGd2iYsQBCleoWZIaWiBJ6qreXTL71ElsPB2VVVvNHRwY7eXtyKoHRT7X1FpUPVcP67dNo0bj3lFGYWmNkIX2tu5tq1aw0FmHCbRz9Y1SRPKinh12edRaS/30hsk64JRe5UNFzOoR5KAsMMhkTlQQGCFMrKygxHwNE00W9nZyctLS1oheUoheVGRj5rtnYTg6mIE7Wu/Tj79eziEmzMzlY/a2t6WXlcAXPKs2lUNSY7ZDojKpUOhXY1Qq4sE9B043+PJJElSbhk0xE03l8yFLFyJ0joojKjBRXSgYOEvsDh3UpWjTAx7DZNDIu+aSRLEhEM7/31INvaogumwQeWOijwwAObIwyM4JyYSvYeKcJ0TyddkRw6wiawGWsr9MAXznAaoY+5nvg9aZoYPhM3MVR/ljV3Z0wMY5Xv0Xr8yt+FJ1yGxFy3xLmzJC6YIbGhSTdyeYg8DiW5sLlFZ09HfPckfhPZCoXV8YwZkpEI6vUGnb5Q+g3W0bhWF8+V+OJKhaKsUXOlR+M0DmtMExYgCCXvFKUR07TtHR185PnnmVtczI9Wr+bZ+nrWvPEGKyoryXfFC+DYT6/1elnX2sqK8nJuW7XKcFQUt8ae7m7OeuwxWoy0zUlZgawOdJ3qrCyee/e72b9xI93d3cMuTGXRINPL+4akaIyoEjsbi/EHFLKysjj77LMpKSkZ9SL39vZy8GAj4exCHCVVSMLMkCppUSx+Mc3OPHrFZCw1EFL505vt/GV7F2ctLOLqJWVUepyIZ0ioXxE3YQX7CYgkMl76o0xISIJyRTbAgmW4GMIKjBDKmIo5sITj6N9NlvBB8G5Fzp+NI+qkuK1B47I7BqnpjSE6LpitEAiZaW1FFc1DaYIjETDmUPdGIg/8BfMUbrvMbdRvsJrWuZHwputBdiKXn4av6hrW3PVIxsRwKIt0FJ5z8p3haNXWo3BwaYYk0oefP1OiOg9espkLFpZJrO8ER0RncqXEFDCyQS6eLNHeo9OrQY4ML9Vo7PdNLD+Fi+ZIfGmVQnEGICD5+gZ0EdI2kZoACOkcFUWugA8/9xz1/f18ZsECGvr6eLCmhpMrKgxTQKzZ3u71fT7+09rKrIICbl6xgktmzjTMBaKv9z31FC93dhrXS6cQHLrOS5dcQqnfj0haZCjmFGyF+KooN0RFYSC2m7Zc81RNoqE9i0BQxeF0MnXqVHJzcuLDlRyENcnwq0jVxHWbDh4kqLhxllcbfggJSlgS6X5FdUJbJkJbRwlYOQUWavYG+fkrzWxqGWBJRTbXrpjEnLKsYfMkCGcmkbaqUVUpFOYXHcoctggLuyulVSFRjGmUzIE1fGXwINk1v8HR9TqSpwLnsu8j5R3Hy3tUPviHAAf74wDhlKkyrT6NA763N7Xt3DKJW9/n5uIljqgDJ6gNTxDZdTsoLpTJ78Zb/gHW/P6vGYAwkV5Ow4z1vHvDdA1OvMkIj/5vniHzx81xRH3lQpk/bNLY36VTNVnixBwIBCWWTpdQQzotfmjo1NncquOfYCGdVy2S+dRJisE0vlPbhGUQxIIJE4MwNaRqYVXl8y+8yF3791HidBHRNXrCYZPiTnGCpW7FPVzhdnPDsmV8YuFCPA4H/nCY6158gbv27U8LEAyyXFX549ln8+F58xIiEFKNT4CEdMRVJNBCxPuqkY/fqDMRc/eX8CnzeKPTjTeYmATKuoYwbfT7fIiqxXJuIZKhkONBjAJUzSgtp7KgyHDCjO/lk5iEpMFZH/sDEXa2++n2myaUJZNymFzgTlkRLRGYiNLXGGxCr6qRL0vkifWLexzEyBljTEn4J7kvE33ZEjmJ+yHSi6f2tzhanwfJgfOE7yOXnsSz2yJ89N4AHdZLWYdZRRIdft0Me3wbW74bvnmeiy+e6yTLKaELM9eeX6M2/N1IlKTM/BDewvNY89s/ZQDC27hO43npzzwRYWPTofJO4zmSsfWV5Za4eIlMVUTnhQadOZMlTqmUuP11jQNenRXTJKYVSWTp4PGILK66kYNkwz6Nnb1ikzCxmsiFcPkCGc/oLLwTa3KjHO2EBghiJyycFdO1OzZv5rrXX8cty1RlZ9M4MDDEUTGmY2zKRjjaXbdoEd866SQK3W4jv8CPN73Bt9/YNMxNLjh2ja8uWMBtp5+eltkYzbpooW5U/84h3v5CIw4q1ez1ORkQBj6rWe8aYwg63d1dDAaCKMXlyCKawfYuEqCqMr+Q4pzc2BiTgUoC6WFmaI7pY9GXINbFgy/+CZpcODAlFsAyT4hxLQYYir4wjAqTOo2RCFMcDrKFe/RozQpJPgfW9MXVRDeKHsJV/wCOxkeR1D4cc65DmX45/9ga4WP3BugKxEWW54CACmEhG0FxRDdFbgfkuU0v7UDEdNU0qmfGoy9NYCLyF4yDaVK8ez6+0sH33utmUqGEHu4jsvW7aF2bkdwlRjXKXs8S1tx5XwYgjObhmQDH3POmyq/WH6Jd622aX3G+xMpKiZJCWFIisbdNZ2aRRCiss7kDvAGdYBg0l8SyMtAkied2qgQkieMLoaVHp6Zv4pgYBHD/wbscrKqOJ2h7m0T/tl52QgMEsQMWjnzp8tqvazrIuY8/wRUzZvCpRYv4y9693LdvH4PCAzBepMAR/b5XAAAgAElEQVTcisYoe1MbfOT447l51Sqq80wHtH/s38+H1q7Fpw7Dk0kSF06axN8uugiR8fBQW1NrJ69s2m46OsaUk6mNdBQjIY8YrsftZNrkcvbWNRlK21DJOvT29iBKAysFpUhOG0CI6jRFkhPSLCeMM0npFeTmkJvjobmtK+VhHreLkpJC2tq7Y46ZQ/wEdCgsyGX5srl4PCZf16dptERUJjkcFERBnnHeGM0KFgNi1nXXUNr+jbPmbqTBVuTKM3Au/j/++ZbO1fcG6QrEkVIMD2pwzUoHZ801TTEuBUThlv5Q6lK7Qr41HRr3rw9T23OoKxw/T1zz3DkKt13uYkm1gohgiGz+Jgx2QO50HItvoEctYc2d92QAwuGL+6joobZH4+OPqofkHPt2TUC4e4kEXwKIuxySEUnlkMxnRIBssVkQAEFUls+PWnC9gxhMpniexGtTFLOdKLzJ6qkSX1mtvOMLN01ogCAeluH8EBp8Pk595FGWV5TzizPO4Ln6en63fTuLysoo9mTZtsWmZhK1D7Z3dfFCczOnVlTwk9WrWVpebhy3v7uH0/9mOSrGN4/JN/yJhYU8ecklTLL5DYz1od5T18zDT79qZlKMpjw2MIzVUVSJitDBxXOm8tqWvXErgq4TCgUJDAaQsrKQo6Ga9t32SOOxY4TS4kKKC3PZV3vQvL41nijDn5OdZaRQPlDfRCicJhxAh/KyIt5z/qlk55oJzkVfA2Ksmk6xopgpTQ8BHIi+xIvKOF/Skfv24NzzK2TfLqSsCpwn/ZQXD5Tx4bsDtAykeD2pOjdf7OYrF7piVRZtZFJKUTX3aqx5Msjdr0VQ06HTkYRs+31xlcxPr3Bx9lwHevMzhHf+zGCP5NKVOJb8H939QdbcYQIEIWGTmTFXKVOLYQyCPkoO9Yfh9tdUHt0xsViEo0R8R3wYIkfJF0+RuXSegvPwItaP+FiP9AWOaYDgDQT4yDPP8HxrK0sKC+mLhOlTNVZXVFKZHQUINgmLvAP7fV5ebGlhem4uPz/tNM6dOtV4FQciEZY/+CDbfb6ENbGUqaV6pmdl87cLL2BpRcUhr52v309jc6dR2tpqudkeg8rvGwjEHBTFr8KGbwVfGkfrOn0+Hx3CoTKvCEd+UQwIWWM1FKAOBXnZlOZFcEimcT6BSZc9qEoxkuQyGBphTzTOt5sbomfFf49Lw/SxiEMN4UdhFdiy+unXdA6GVaocMoXJzpQ2RJOKybe+E8DAYPutcYV7ce67A6X9JZERCcf8L/NW+FyuuDNAjXcoQBDSu2CWwmNfyMLjHJ3NYCCoc/e6MN/7R4hOm9liuAW3g45kACKo2tsuc3HJYhVp5w9R29cZgnbM/jTK9Cvo9vr4XhQgZIo1HfJjddScKO7C/V0aX31G5WDi6+SoGeM7dSCCITl7pswXVshMiVZ6fafKQsx7wgOE4RImhVWNb7/yMnfs3s01s2cboOCevXvZZ5XMjW/ETI1pcwas9Hj44cqVfGD2bCN3gmifePYZ/nawybTdG+faOzBvozyHwu/OOJN3CWAx3O5SD6NrqT3ktu9v5+5HXiBgq8WwaM5Ustwutuw6QCjqf2BzPTCuHXO0VCMGg6DLCrLbYyr4pLtcREGsWnY8Fy3tJk9qSP6ViHMa/twz0Zwmg2JgA5v+tKvSIWo1Zp43VaEJFOz0ftyuJwCbX9colRWcNl+EVNe0YQbjTwHuBfWZeH0NR9MTOOruQwr2GImGWqd+hyv/4GS9LWOiWFGRAGVOqcwnTnHw8TOdONJUCE1+QQg69V87Ilz/WIhtI1RwFOcK3CEqw3X7oz4PSR1W5Urc/F4n75+1A2Xvz9D9TUYGSMcJZrGpLq8vxiBkAMKx8boW1PwLdRo/f02lbcBm4Tw2pjchZyHMlIsqzBoMy6pGt1mYkBMdw6AnPEAYNmGSrvPArl1cv349t6xYwbKyMm7dtIk/19YmarsUAst3OPjWCSdw7aJF5EdLP7/cdJCtXd2Gohx6+0QpX0nitKoq5hYVDQMQRLnnWtT+bUP60SUHWvZKvIOuGDMghidqLgifi4ARvTC8JS8wOEhTUxNhxYGrQgCVRJ7MHKmOx+Mix6UiS9E6CwYKiDIJkhOkLCMawFDyCeAgrvDjECBuHzAPtX6JCzdV+uRBTcerqRTIMtm2pE7JgMS+RKJn8U/Qf1IKkCYN1OHa9UNk3z4jisM/6wa+/9py/rpZN0IJc51QXShx+iyFS5Y6WFidvq5HumeprkPj24+FeHhLZETvbJGedvVMhVcOaPTa/CCsvkuzJb57QYiPVPwZd9s/QAuiVJ2LMu+LSI6sDEAYwwttIh0qTA3P79e4f4tGoy9T9vntXDunAosrJD5+gsKqqXbu8+0c1dt/7QkPEIzCTSIfQhpZbu9o5/wnnqQ6P5/FJSW80trKzl5vSg90+z5X7GY/OXcuNyxfHvMnELtuI//AMADBUo1CmadvOupgPZp/19BDJAeO/JORHGYWx0NpwWCQAwcO4I9ouKccjyxKO9uaNbJUQ4z9ZgsHHS1zkNzfUJbBVpXRxCiGGaVTpGaWSDAzpBOfBQ6EX2OKQohmOmw1gLP+LzgbH0FSB9GKlrOv8Itsai3D5QCR9OW4cpnyAskwKxyKG8FgSOf258L86F8heoLDr1KJB65e4eBvW1Xqe4fCu2IP3Lh6Bx8r+R1ZoQPgzDMqUcrFJxhANsMgHMpTMDHOCUTg1QaNJ/dobGvV8QYmjiPfxJDwyKMU5Z1XTJF533zZYBAyLS6BiQ8QBM08TMKkvlCI1Q89xPa+PoOSFgreqmI43I0g6ToXV1fzo1NXM6uoeDwi2hIuN1Lxp2HNEyPcwSL6QQAE34Afz7Q5yI54YqgEpZ3CZGAHCAbYSWNWsIBQbChJoGk04MACZK2qatRyKItGpKR7RO3gwIiOTCEHQf8L2coDtbh332bUZcCRh3L81TiqLzGyE45HE9d5ZluErz8WZHv78IxOWY7ETRc5Db8FkZY2+ehiV4ibFj3C1VOeIEsOIFedh3PedaCYER8ZgDAeK3b09iHupQavzoaDAiRATbdO24BuRNKoGT/GcV84Eakkkh9V5UkcXyxx4mTJAAgi9XmmJUpgwgMEMR2HosQc4JIXWLyMP/zPf/JIQwPV2dlGFsGGgQHD3m0UVYomEYp5hovQHU1jUFVZVFjInWeeycmVlTFzgfgt8RVv4x3s+QZEtsJD2ZqOwx0qFGRDQwNdXV14ps1GccczMSYr/WRFbzdGJOQ/SDGumIIeFhxE5TNMhkQBEIRPQHmakFU7EDCcEoVpwTYeawXEUsbrWEVwNv0NV80fkDQNqWA2jtmfQC5abNQ4GI+2v1XjhseCPL9HNUJPrRbWYND2eXK+xO3vd3H7syFePajHI2qjJ5S7+vje/Pu5qnotWXmVOBZ9DblwQYzDyQCE8Vito78Pce+2D+g0+3S6B0GYINLUZTv6J3MUj1CYJnNdUJojMSVfekdnShxpmY4JgDCco6IQwG0bN/Lzt97im8uWUZGTw707d1KVm8uCkpKoEjedDQ1Fo+vs7+3lsbo6I3LhnnPO4cLp0w0wIbIzPnPgALujlR0ThWtkEDK23NkOB+dMmcK8MdRQGGmhxvp7c3Mzra2tuKpm4MwtjJ0+khkgWenb/QmsThJ27gngwEiHFL+W5Zw4DDgQB9dEIgaDMN0pKjkktgSTRzRiIe5LaHMSNcwV5rkxYBPqwL37pyhd65EUF1LZKhzH/w9SztTU4oyEoV8kjE90BdRlmRp/IfW98dGJMQTCsH6/Sk171H4cTadR26WxoUk1g8aB40okfvF+N7f+I8QrjdqQl/40Txc3L7yXS6ZswDPrwzimXRZjD8T5cYDwhJGy2t4yYY5jfTIyx2ckkJHAaCVwTAAEET5nJExKM+snamr4/H/+wzXz5nHapEncsX07O71ew/kw4ZyovvEFg9QPDBiJf36y6hSuWbjAqAoZUlV+uGEDP9+501ZsxXxhG+AiupUtcrv55pIlXDVzJv5oTYbRLkiq48TccnNzY0mGRtOXqOooWARnaRWu4mjIZZqdvkXdW/ty0/EvNYWfzkQRP94UQgxYpCrZbJEK0diGTk01/AmKbaGOyWtpZEqUYjrXBkJMXGbstGx4wTxfR/btwb3z+0iDTYZfhzzl3SjTLkfyDC2ApQ8OoNftRurrTegft4efHVjMnZvkmHI3+tfNRDGCBo5lWxT5HUI6PSL8MTqJ6UUSVy1z8MibEWp6hpoYFuQ18KPF93L2whycs/8XOXtygvQzDMJo7vjMMRkJZCQw3hI4JgCC4aiopPdE39LWxpXPPENnOEyZ00lbMEifqiZEGdgMBQaLIHSNIkl8bs4cvrNqFUUeDxFN4697dvO/L7xIaBjzQa7DwaeOP57Lc3J4c8OGEesyDLeoYiz5+fmsXLmS2bNnp609kdxHX18f+/fvR84tIKtqxpBL2BVwKrNCMkCw5DO8WcGCBVFNHQUHljJNNguIa/h1nYNqhCJZNkwM9mZnD4RZQYAEMdbk8E7BHER9R4c6kOoajvbnce77NVK4H8mVjzz1CpTqS4y/7U0PBdHr9yG1Nhhps2PNk82N+5dz88tmpsqRWvIhRjimLBJxiUqXiU38dkHFJm455WUWLn8PcuHCISYQO0AwEyXFW4ZBGGk1Mr9nJJCRwKFK4BgBCKYfQjrHvua+fj7wzDO0BQZ5/8yZ7PN6ebqpib5IxKwRkCZsULyIz5s0id+fc46Rclko61eam7n4H/+gd5iUyx5Z5qrpM/j63Dn0tbej2o5NHqMI0zTTRSfume2fnU4nFRUVRtnn0TovBgIB9uzZg+7ykF09O0GrJND2tjtnuFBG6zAzVDFRBdrNEGZVBtMR1GAmLNrffh3b3wF0ArpGnizjTMgRaFOC0YiFuISs3AomcyD+DecvIal+nA0P4mh8GNQAOPNRpl+JMuUiJJeIFon2LIDhQD9acz2drb14+0SuCo28fA+/blrCrS+Pv03YI0f40qI3+Ma7PRRMXg6Ke8iznGEQDvX1ljkvI4GMBA5HAscGQDBSzqZ3VBSRDF9+8UX29/dz2ymn0Nzfz7fXr2eHV4Q7pjZMmLtenUUFhdx/7rksLisz9Mje7m6ueuYZtohzUzbJoMLPrqjge/Pn01tXR29vnLK2nyLAQXV1NcuWLcMdzbVwOItpPzccDrNv3z6Cqkb2tDlItlDHuEkhjhuGi1YQ/aZnDuLcS7JZwWIO7Ofbpa1JOg0R1cjXPssZD8VMYDckM5VyKt+JmFOi7YTk1bRMDVKwA8fBR1BankMK+5Cc+ciTLzT/5UwBW66ISETlvpcC3LE2iNevMaVIIi8vi3/sG+o/cDjrJca2oHSQmy/yc9GJpcjORGdSq+8MQDgcKWfOzUggI4FDlcAxARDE5M2duEg8PLQFVZU7t27lls2bOWvyZMN08OzBg3SGRCZDu3Fh6LmT3G7uPfsc3jVtquHQ2NTXx/9bt46HDxxIqEKYTCsvKSriJ8tOIK/Xi9frTbnzF2xAaWmpYTrIyhqa+vlQF1WcJ1iL2tpa+gb8ZE+bjewyY3gscJBA91uJIVP4HSTIM/rBzkBYY4wDiHiSEcEepDIrGNhLAq+qGiaGSQLcpciimN7vQHA+omBM4oBTg4PoCIUPQ7AVp6j02LYWQgK0KchlK1GmXoqUPwvJkWMABeFTcN8rYW56KsRBn+l8arEih7MmyecWuEUlR4VvXOiisiB9ZEU6gCDuOWFae9eKE7nrxuspLTz03BnjOa/h+nLZgOB/65qZ62QkkJHAoUngGAIIkhHCmIqCF8l4nj9Qzweee84o9ywUT8gIV0ydlMQOGVxI/Oa00/jY/HlGJEN3IMAtGzfys+3bGaauI8fl5vLTVau4cNq0YX0Q0pkYDm0542eJEtWNjY10dnWRXT0LJTs3pqwTGIQ0u+8hytb4Iv7tkGiFmGNjlEcYARx0qiphXSdbkihK4WAq8ILllJgKkJj5DlLVhjBlkAxsxGeHpOEOtUHL82gt/0b3N5sOldlVKJVnIZUsR8qbgS5n8dgmlW89HmJfZ9JEDndhoueLgjBnz1a48SIXJ80QACl9xxkGYZyEnukmI4GMBMYkgWMGIAznqCj0yFsdHXz42efQZImTy8vY0d3D1p4eAyjEVUoKDzRd5xtLlvDdlStxKQr+cJh7duzgWxs2DFv6udzj5sYTlvHZpUvHPcnSaFZY+Eu0tbbS1NxMdtUMo2hTsqIdjyRIpjJOzEaYjjkQ1xfSboxEcEkSWRIGOLA3C4dY7EFacGA7aSTmQBwqnAFdMrhlEXrQi9bxOmrTs+je3UZqY0nJgvxZyCXLoGAxzx+o5vonPWxvjdMuiqgWKUqMR3MxiNztDiOfhlkTQoy5LwjeoBkum3LhRelrD5w7V+HaM12sPl4xsjsO1zIAYTR3/JE75ul2aExTlCvfAeeVQXFy/i1dZTAYAslFlnv4vBsDvZ0Mak4KCvJxqv009MlMLUltbgr42unRcqksyD6kDKBHTkpHf8/tfhiIQHWeabYUTQuDMBYXjSJ/mlhOwTtWxPPOHf2TPswRHkMAQSTQkdN6+df7fHxt3TrDee7ry5bx78ZGgwVoDwg3uXTNDGx/75TJ/OXCC8lyOo0kSk/V1vL5detoDphvjaGbP4kch8Jn583je6tWxYo9HeZaRcP5dIO5sGL+RWUG0cKa+N7c1wuWRKQubujpJdDYgL+0ivKiMmPHnmUrJGEVLxTPhhW1kWgSsGIUra26Fb5ozSRqTohGFxjfpmAOjDBEzJTKog1oGjOcDqMSZSqmYjhwYPgd2CBdfCRDpWsHQEKpZynx9MwiHbPu24vW+h+09nXowS4zckGYGbKnsNc/h4f3Hk+LWoUzpwynOweP04Hb4cChSLgcEk5Fx63ouGQVjxJGUX20dTSxq8HL7t5yGvyl9KtZaJqCJCvkZjtYWOngrLkKFyxUmF+lxEpMD3dvZKo5Hu6Tc3jnX/Um1PgT+xCAU9xTbhl+vQjm5yb+rof9bN78JgNyIdPLc6ivbyQgYmLFsxCJIEDBios+SFWOzpbXX0PKK2HevDkooQ7uu3stl3/6AwirU8jfT92+vTR2mT5PvQd382YbnLF0tmFSdTjdVFROgf42mnr6RYUSyotz6PH1EY6oaKpGW3sfV374Ut6JiQI7/bAzCu5a+6E5AMcVQkEUlM93wJOdcFEVNPjBWuZACIrcUCRDq2o6J/eFYLcflkcL5BYrZkK0wagCmayASH8iXlBBFaqyIEeHgxHoCAq/NIw1nUjtmAEIQujDJUzqGhzkljfe4Mn6es6vrqZ5YIDnm5vxhUXgWLxZCsuW3YC5ubm8ePnlVGRnGzvDXT09/H7HDtqDZrB7KnbYKcmcWlnBB2fPJts5Cnia5q4RQMCraXg1nQFNxwKvImGOuNdCOnhkyYgWcIvdrMgEKQoxyTId/QP01tbQn1dEWfkUBqLmFXEP92o6hbKET9WocMh0qjpFssSgrhsRBS6hUEVkgSjTLLS+cBqwRS9EDQmxsELjsxVNYAMJoj9RrdGnacb4RN8eSTIYBDu4spgD0xSQOirBMAlZ+aiS5JXaJGIOSqyQ2OULgJBwnK6hh3pNoNCyFq3rDfRgtxFmGNLd+MI5qEo2iqcYOascxVOC4spFkl1G5k5JQDLBPkT6kEMdEGgjNOilzx+mJ+ShK5RPd6iEoHsmzoqTKJ80k6oiN5MKJXLdo68BkUmU9Pa+Ut+9ATpshVfFPTQzG8pdsKMfbl8Ai/KSAIKm0ly7jU01vRx33CyDNRJh0qKF/AOsf/ohln3sJo6TD/KvV3cjOR0o2iADg4P8/S+PcP4HP2jkaSnOziLQ3YHn+BOYUqCw7rm/0+eczvmnL2bPm9sorHSzq7OYi0/I5T8bdpNfOo2l02XufWonl16wEiLdPPz4Rq7/+rVGMrJ3WhPZKPd2wV4JVuRBQDOLvAk2UbRSBXZ3gztXsJnECq91eEFYF9u8cNIUyJHhYBfsB5blg68f+iQQdRy2tMLKKigNwSM+OL8YarwgfI4XZ0OfBs/Vw5JKODGes25CLMUxBRDES1uEO6ZqlmngO2+8QVGWh2zFwX6fjwF7CGIKnwTxMihzufjnRRdxYmWl0bVgEbzBIJFoUHwqgCC+84gERy7XmFIui1oRwqu/JqySJUvsDkWY41SMHb74bIEAMUvLJdOqSyCuKb4z9vsSBIMh9u7eheb0kDv1+Fjoofhd5AoUfQhWQeQvFKyDoMuDRg4IEXqoG+AjpOtRkCDQr2SkFHbLknG+uK7w0RByyJElA3QIkNFh1FYQnzXje+FnkC3LBnshriHGmchUxKtIGvS94TQZD2W01tPwOziEBE7iXSBYXuulMOT+0FUDGOi+/YbpQevZjD7YDmrQFKTxz2HmJzD+RUdvoEgNNFVUiDL/GfyGhOTIhpypaCUroXg5cm41DlfOmO4Fa5wZgPD2vkuTAUKhA04pAm8ENnrhzkVDAYJxZ6gh/INhnG4PblEuMNqCA33864HfMOOKrzK45SmeebOFCy99LzNLPEbxsltvvoEvfuv7RnVTp6JQt+0NmjpaaZaqOWlOCQ2vv0Ftbw/HLT4Jb802Tr70Y+R469jd2MncE1dQHtjN7U918/mPnEak6VV+9aLON6454+0V4tt0dfGKbuqATTK8t3ToIF5vgyZN5CIxQYDVWntgTwiOc8EjnVCtw/KpsL0FBhUM8+ikHJjmgMe64YPV4OiFP4fgyiLY3QVlxTAtCwYCcEcNXHkcTJtgNM6xBRCEfThNPn+B3v9RV8f31q/nQ3Pncv7Uqdz0+us81dQU80MQr/1kc4P4LltRuOPUU/no/PlH7DYXLwahjJ/xh1nidNCsaZzodhi6KOVuexQjEY6KO3fuNBR9/vS5yFHwlNpmb8sHYct+aKg7XdBoumHH7xe7IEky2AjRBEAQDEG5LNOsakx3KnSqmhGZIHp0i3oXtugJ62/78C2rh5EIyZ550XaQZVoY1t8gqbiU/brZwryQWPV6qAQFo6CFDHCge3eh92xB69kBwTZ0zVYS2zjTdqdYbIjshpxq5OKlSEVLkPOPR3IVgSz2bsN4IY6wll29PtbccQ+/eeTxhNLSmSiGUTwE43CIAAi5UVzYOAgn5EOVB9Z2gS8Cdy8ZChA6mut48i93IU1ZzsWnL+DmX/2RyeVlZHvcREJBOhr2866PfJraF++l1rmI919yMQunmFEoN3z7S3zrB7eTLUBGoIfn1r7CgD9ETX0jDTsaqFy+nM9+9HR++7NHueqy5bz0Vgdlbi/PvboZT85U3rPEycNvepk1qZiBg5uokRfwqQ9dyfL5VeMgjQnWhahv4YPHvSLDqWBxoFQIFpibByfkwd074Kq5sL4ZdqlQ5IK+QajMgmoVGt3Q0wbBXLFZhJXFMNgPraISZycEnNAbhK9XwU96YKYLWgbgnMmwMhseOwjLKmFurrkpm0jtmAIIIzkqrm9pMUIUF5aU8LG5c7njrbd4tL6eYMxRMfXSiV351xYu4AerVxt+DuPZBDDo13T2hSOGIp7pcpAvUkePU6GnvXv30ucfJH/6HBSXmYRnqJKNG1ZMqt+ESql8K+ymgJhZwSaQBGYgjU5MdYw9YiGZXRAgxUiGlHSdIWyCPXOj7VjxUIqogeEiBYasqWBSBCOgDqIH2tD7G9AHWwyTBJFBkymQHEZopOQuQcqZjJQ9FcTfomKkyKswTmvY0NLGjb/6Aw888+8hkTOZTIrj+TSm7ksABOFrcHkl7B6AEhe81g114jYgNUAQ39dufIGaXpWlC6r5xaOv8YWPXEZ5UTx7p9fbQ+vel9nb62BSxSQa9u6irauf5599kjPOv5iC3AJOPvNcsvsbeO3119iy7yB5BYUU5Obh8LfQUX0uN75/NY0HdvObe+5hwfJTcfVEWLh0IcfPmWbCWDXMnpf/zMvek/jsFScceWEdZVcYjMCdO2BlGUQkGAzBdJFlPQIVOVDghN9sg6vmwd52KCuE46L+ocK86x+Af7aDNwytEkzOMl2VhElpaQ680gJKNoYz89WLwB3dN9T2QqMfluTBS/1wWhlUTkDnxmMMIAzvqFjT28vXX3mFpw8epMTloiscxj9MRsTYva7rXFpdzR/PP98wGYxXG9R02iJmLoBSRabUoRi79PFsItSxvaOT3OqZOHPyU+5jY5R/kkK3ewlYwMAi+Y1zLKUdpV6GAwcWO5PqGMvha0g2xGjxo1R+B7Hx2PIuW30n4xLhjOmxWQYOR75mme44e2CG1R46OzDSWCKqytr1b/KNX/yWLftqbYeb8CgDEEaS4OH/bpkYhN/B+aWwpQ829MYdhVMxCHGAEGHhnMn8+m/rue7qy2MAIRwO0ucL4g7Vs3b7QWbMOyUlg9DT0URNbQ2TZ59IeWEOgZZtvNFdwKnzpyITobtrgJKyPNa9/iotbQfxd8gUePyEnR5CEYFRdYpdPlo8Z3DNe+YdvjAmWA8dnfCoF1ZkgZIH5TKEglA7CG8Nwv/OgHu3wyWzoL4HKm0A4bUWCEowvwDKs8A/CHsEg1QEg6qJ/+u7TRPF5lZYNSnqpCiYVsFAuOGMSdAXgEK3aeacaO2YAghC+GKHL16aqVrn4CC3btzIr3bsQDOc7+Kvertpwa5ozH20zrzcXJ659FIqc5PclQ9xxQVr0B5RDVv/HJfTsLsfidbR0UF9QyM5lVPwFJXFLpG8G7fruGhdy/hwLOdDm2NhMnswFubAMikImYs1sEwL4oLJYhDsQaqIwYTj0pglLNUt6r+n9T84EkIfpz7DkQi1jc38/IGHue+p5xhMcqg17vdMoqRxknb6bq7YBPWD5r3pkYXfDoafkGjis/BBWJDkpCh+279xLVvrOpgxdRIP/mcPX/nEBygvzjd8Ver2bRwVPnkAACAASURBVOLptS187L0zWbu9keLyOUwtchoeLD/7yff5zFduIAuZrNw8WvftZEd9MwtPWo5W+2+eairnA6cvRAu38uiDu/jm/32Udev+zeuvv8ZAqIQr3vceFs6fjr+3k7ZuL2+9/BTSkvdz8ZJJR1xWR9sFdgqfgSzIFgyADLNyoEXEKjqhwgEF2fCnHTBXsArC0TsXpmebLMGLLXDBZPhnPZwzFfoHYIsfTi2GnT1Qngv5OrzaDzU++PpCcOnQE4Q9fWYRtxX58EQnrC6HSUOzqB9t4hoynmMOIAznqCjKN/+zro7HampiDoaWUkoACFGnfbvCEp73wsRQlZfiTTDGZRZ2/KawhtjZThPey0cIHIhhiSyO+2tqIKcALSsv6vw3dMBD2ILoIVGXx1i+yTiTkFiSIQaqhjMrxICG2bnBQCT5HVgjsxiHdMWRrHElI4pULIIAB0dSxmNc/hEPF/ei8Gbfc6CRp156lb+/+DJdfSKEbWjLAIQRxXnYB/ylGWoGUncj4uevnATlKV7++7ZvZOtb+5h/wlJe2/AWi+bPIifLY/iz9LTVMJgzn9NmKWzc30xw0IlTDxg+Jrt3vcWseYtQJIWSSVMpcYd5a8cuZE8e9LfSNOhhWlkBmtZPbQNc+4n3sK+uDn+gn3CvxpRp1VRWldJWs4Ntda34fH5WnnsBk/MOPZrqsIX4NnfgC8PuPrDSWQgTgZX7YN1BmFsKPj/sCkO+U4Siiuy8cGIR1Pqgx64gomGMs/Kg1CGixqA3AFPzMbK77veCV4IZWVAxAUGBfamOOYAgKN90tmZBD4u6DL2BACJawK6MRnP/CvZAxMEfbtsWDFOhKIZZ4UgrLr/fz959+9jd0Mzzb24nFLHyP8ZzG0TVdcK0EvW8jcc3jop/HnKchSASvD2TZG2LArBnZEwcR6pr2vIyxLq0jyDulRD7NsYupJvDaO6C5HNT3QGp3FuTj7N7TaSLxzDP8Q4MsLv+IPXNrQhgm65lAMLhPo1H7nxvn88Iiy7ML6CtsYbGtm4i0QQmnuwcZs1bgEcboHcgiCc7nxz32N4tmhakqbGH6mlmdFWmZSQw3hI45gBCJBLB5/USEoamo6wJlVCnOFFCISaLkMwjyBxYUxc1Gbq6unl5y3Zuvv8hegainlVjkM3wqmy4jpLPPPSexjDctKGQiX2YNTztzMlYrpH62PGbn+gpuTR0qmtmAMLhr1qmh4wEMhJILYFjDiCIKoYtLS30R9G7vdTy230ThGSZThTK9QiOdNz5OA/SUDSaxls1B/jOXX+luSd1ZUlx2fFTb+M8iQnQ3WhlN/JxFnAZHXrMAIQJcHNkhpiRwASVwDEHEASlFwgEEEzCuk1b+ekDD6MaYYyjoYnHshse44rrGurcOXCgEcXIwPjfa0LlDAwG2NfYQiCFo9vYRjKyihtbf4d3dKqESofX45E6+8jILQMQjtR6ZfrNSCAjgWMOINiX9MHnXuCT3/sRIlQsuY3GYjx+t4dwj/Wgi5LOXh+ScJFNk5Rp/K6Z2JOYrxmid3jt7VDIo1Gtwx0zmvPT3R/D7ePNfkfX+2iOGs0xyePMAITDu58zZ2ckkJFAegkc0wDhoedf5Jrv/NAACMMptkN5MY/pphJRERXlIiYNqa3NdHU9JtuhS3Kot8LQVMtjFZmk6xS5nZxUkkdZljue5jjZV1B0bIVNWH9bCM763v67NZBU6MGOwdKdkw6nJY9huOOiYxDlwhccN4P/fd9F5ObloucVQGEJHEb9j7HKeSzHu5xjc8QbS9+ZYzMSyEhgfCVwTAOEf2/YxPu+ciMhg1Y/dOV1uCI3rlxaij7oRxpIKgt3uJ0f5vlvn1QOc+ApTjfTNJtFkMS8ipwOfnnKPM6tKiHHIapDJCVaSKXMRwsU0lELyX1a47RbuJL/jvZl5pYwfxRVR2O3bLo+bSmsJRGTJSvouXnoy1aiz5wD4xBxM96rlAEI4y3RTH8ZCRw5CRzTAKG+pY33fPGb7G84mLak839LQepTpiB5vdDXN+6r+d+m/f9bMhuLoByyhMdhFrWyTCnTczw8c8FJTPK4ExmCsXScfGwqVmDY/nR0TUUPB43iT7qmIzmcSE4PkiLi0o2akPhkFx2yB7/kQEGjWAtSogXxGAWghmnJ41EU9MUnoi092TBrHW0tAxCOthXJjCcjgfQSOKYBQjAU5s5HHufmux/AK9JgvZ1NVIL0ec18nSO0/7bCH2k8R/vvYrOd4xIMgcRASBS7NtvsnCyeu2g5VVme8QMIYxKGjhbyo/Y2ofa2oA16jcqPkjsXpaACpWgKkewS3nKV8rRnOq+7J9GiZBugYH64i/MCDbwr0EiRKCk92utmAMJoJZU5LiOBjARGkMAxDRDE3Nu7e7jtvr/y8PMv0t7TOy6Oeod0V1VUoPv90N+PsI2Lln4nfjTu0Q9p1v+Vk0RhqxyXYlRq84fjSYVm53p4/qKThwcIY2YERj8lAQ4ibXuIdNSgh/yxlNEGAFSc6EXVbJ1+FrdXnsNazxR8kjMGbkQK6tkRL58e2MnVA7so0EKju3AGIIxOTpmjMhLISGBECRzzAEFIoLG1nX+8/DovbdrK3oaD+AOBGFAQdHRE1RLMvaPerVniHY0zWkkxkriOYBFEacJ05w7nFJe8nCMda01Eh3AkTG9ffzTkM7HmQTpfuBHvnhQH2C455Nfx1sUel4uivDwjc6ZL1tF0iZBZjdpoMzwuHjhlFpXucSqwNdIE7L9rKpHuA4Qat6AHTPYqGfa1am5+Wn4+f1r+SQZyRTL4xCajsyDcyxrv61wUqB/KIqQaTwYgHMptmzknI4GMBFJI4B0BEAQIEKCgo8dLT18fYZFuOLqLF7paFF8J6JKRB91syZrXKl9k9y6zv/LN7+NZ+aLHxcomSyC8t0U0QyRic5iPq4zRghK7ArafMxznoOsae2truf3e++gwEiXFzxwNtjFlMjTOIFUVw2SAMBxgGNUTKUWjGaIitVZA7MJXL13CN675uAHwWltbcHs8lJeXx7rNHuxn6fbX8IismumU+0hKP/mWGNWgQQ/7CTVuJdy2b8ilrUtu6lX5rH8eey75KsxYkLIqZL4e5tP9u/iWbyN5unC2HaFlAMJIEnrH/D4eYc1Hq7DMKqqZdqQl8I4ACCMJUSidkC4xqEkEdRHZnk5tWipxGLdyiySOVT40FWvyLj3V7W2HJalUcsp52PV2CmLC6FPX2Lz9La77/hoOtnfaukkFK5JBkHW4dWw6viF5RqkARRxGJc5lpGvaj46aZ3R4z+mn8Yfv3UQorFJ3oI6snGymT50Wy4kl+brIeeIvyAPRQkf2ZU2xxCL4dGePn8fqOgmJUmxWOevo5fXkBQKK3U6uOr6MquxElkIL+AjVbSDS04R4mSVLQ1QDfLYtzBfaKui64iuw5Mw49WGbrkvXuGKwjlu8rzJZFfOIyjndXDIAYaTH/Zj+fThQMJEBw3CAIAMWjtwtnQEINtmKOiqDmsygLqFFQYLgDhI8BpJfzEkh9PalSgcCkpfTrh6T1bCoeDikiXC+MdgFRKrlLTsEQPg+je3ttu7ik4nPMxmapFbeQirmWO3ysbq2uBTT3TKexdL+e5qJxUaXKAnzOvHvBAEkAMJd373JKEBVd6CWrJwcpldPi/UgeTvJefKvcYCQvDhJQxCGpk0d/dyzu42AAAhJzVLz9pGVZzm5dsEkpuUmRgwIgBCs24BqAwj22QuA8HRrmOvayum+/MtwwlkgDS1TLgDCZVGAUG0HCOneCRmAcOTelkd5z3YAkAwGJjI4iD03SaxBMjDIAIXxv0EzACFJphabMCBMDrqwAsdbXNWZ3xox99bPQzbjyVv7FHAhCRmMJ2lm70sAhM1JACE9s54CAaUMyE8U3FCgYN9u21XqcJx+ImAxoUqaFbABBGEyqj1QS3YUIMTE6u0i50kbg5Dq+UmarlDcYYE+RiI1or+Ld5ZTklCS76OQMDFsIdy+L3qnDL34xh6VT/XPoe59X0OfsTBl6ahcPcKnBnZxgzAxWI6Kw2GuDEAY/7fkBOjRAgDp/jeepXHIpPp2isICAOn+N97JGdPDuC5RBiCkEafwSxjUZUJRkJCg/1Mx86n6Sd4k27T2WBiA4VZ8NKBC000G4Qtr0jMIqd0W0/WeSgBDuI8RklMNxyAk95ViL6/rXGxjEARAyMrKYdrUaYYPqNj/K74u8gVA8PfHpzcM8yJ+avYHebNzADXmSJqMFBLnnuOUWV6WR6ErMUOgyH0Q6TpAuGELeigxxNbqoVVz8eOy8/nTyZ9mMLd4yDILeDon4uUW4aQ4WGeHo8noLA5oMgBhXF+QR3tnqQCB/Tvxd/IxR/uchjztNqUvAID1zwIEdsCQAQjju7oZgDCMPEWKGmFyEA6MgiqPqYaknb/JJoyyDbeBTtHFqPtNtzu2+SB8Yc0aGts7RjVQc5iJRneL5LfmG9e19lGmQkXJLIDJDQz1HEwUTnrzhXjpRX0QvnMTQdU0MXiyspk6dbo5Px2Uvk4TIAwMDPU7TSEFYWLY2N7H73a2EBBUwghNHFGZ7eS6xZOZnmRiEKdqoQHCLbtQO+vQwwHDMVYXyFCXzDDHgkq2HHcBP5p0Li+7KuiXHEbSJNGEaWGKOsD/+Hfzuf6t5GtxF9phh5UBCCMt2zHz+3BAQLCGdnAw0Sdt+PFEGRALIIg043aQkAwcJvqcj4bxZwDCCKsgdqIGSNASzQ2HsniHpeztFzRSCg/TkkCIYBCEk2IcIFg+AnYKPxEMxLSsjSA3VeZwO3/THXNk1WpFhdj7GzqjxGkkojLxsrjo9NP5fRQg1NfV4snOZtrU6bHrxxgEy0kxGdkkyUlcwReKcHAgmBCJOpyoXbLE1FwPWY6h/gNCVkaipO4GM1FSSKTZ1pAcHpTc0v/f3rn9xnHdd/y7N5LLpUhKFEVKsmVasmXLVq3IcCo3RZqidYukAQrnMQ9FX4oCRZEAfSnQC/rQIoD70D8gaIE+Fm3QugjSGgHatAhsx3Br2I5l2ZYlyyIlWbzfdpdL7mXa38yc3dnZ2Z0zs7O7HO53AEES91y/Z5a/z/md3zkH6ZkFVHIzeG/0FF7Nnsc7mZPYTo4hbVSxUMnjpdIiXi7dwbQclKQLlgSEMF/N2OXxggMFBAIH7Qxn7DrqaLDqnxN8BAoEFJyeBScoxLm/h6HtBASNUVCehH0NSOgWAiR/TY7mdZjZQGV6GBL5Qr374XV893vfw1LTLgYvA+2OnXCRiScktPMgdPNzVa/3Oo3szPjmV7+K7//Fn2O/WsNd2cUwPo5zj56rNzi5s4Gpf/tHpIoRnaKpuuNPQE1vlVGrWAclCSAYhnXM8mgOiZS180F+nW8lR7GUnjABIWNUcbaSx5lqEWnz0wAPASGAWPFN6jaW8n/lNRADmUqlTMOpZtnx7Wlry1VfK5WK6VVoBwkKko5S3/vdFwKCpuImJFST5jbIjvN3D2uua+B387v42Tvv4tbdu6h6RNFrNtXrG4UHqyv44X//FDuFgueWS49VE8/q2sXHOVEjdDtdGTvF4knSpxYew8u/+jXzfoP87jZS6Qwm5LIiW/CTtTJ+t7aBSft67aja1bYcpxPGEyLaRT5aJXotxGi12QkuBAQtyeKcqBMcCBCk0+kjCQbuMTMPuatUUK1WCQk9eqEJCAGElWXpQi1VXycOkNU3qXgNfvCj1/C3//TPeLC61jAW7QIdO8UJetQmX6Li/n4jYMmRxg0wnRcROgf4+3Y0QIJOMCLFpFNpjI/KNc7AWDqJmmGgJOct20FNT4yP4NVfe866rCnIk0oCablIKRkguCRIBR5pPcezBlQq5v0NGus2VqEEhC4H4nBndy8tiNdA/RGvQSaTGapIfgUJAgrKY+JccpDRZOBi+HeagBBQO/EgFGVng5qmBszfLvneXhF//Mrf4If/9VOUqz43+EVU52Esxn1Rlc7FVdZdDGlUjBqKBw3trLsYruFMtg0gOAlE/VsCn8aypqFFVQIDHbjU2QHQkNO9SuPpQvIJKpD3K50yz7sw8o4bQP1iEQgIh/G1jqxNbu+BggMxggIHR3FJwU880aRcLpugpJZX3DEJfmXwc28FCAgB3wxZEZaARdnZYE4v/X5htynfna2Q38V3/+oV/PiNt8yZsO7jNfHUzdvvdOHa6p+r82VN13BmfFR/Bm4CwhggkLa/35DIDRPySadwjU7i6sQyiBdkZBSJkREYuzv+Q6XaR0Dw1yqmKdp5D+TnAgfiQRjWR+BAIEG0UPEX3NXQ/dtAQAihYdn2IlQ1vQg6MQj5kICgmu9vRkN0tE0WnVl9t7VpTcLtShqAYKBYbngQTo9l8A+/fhUvnJySxQK90ycFELLj1t0Z5tomrChpGWv7BMuOw95hsO0djvrSpNJIVKsdAaHF4zI2BuPqizCevgxkIrqkSr/FvilHRFc+oRRwAoJzaUEM4cjIiJ4rXYIZzcA+ify3KLdSqSGdtuDCkO2RdpSV10RFHRsu37l6OVJGrYa0C1Asb4dst7S6q1z/7s5LXwqFApaXl5HP582+nDlzBpOTk4E8IgcHB2Y8gtTjhASpj8sMoV45EBBC6Cbvu/Ii2FcJWV+ugEcgO6sWD8J3QngQgjVfHyPCQoB+DcFa3il10l5ikF9YhYPmK7cen8ji64/M4PyxcWTsfdMte0TdDhv5RZe2DNmZkyfwK19+HsdyOfP/TZ4flxsokUwgWf/F62ixjijuNKpNlTIgAasu8JCP90slPFxbx8LZM2bchZHJwJg5BZw+ay2T6J/OEd1g+JREQAgvtdfyghhE8R5IYKLOU8lv4PYXmzg+O4/ZqRwSiXW89h+L+MZLV839NCtf3MfK5h6mJ8dR2N1B1aghny9hYmIcqVQSE7kc1rdLuPDIcTxY3cH07Byy5Q28c3sHX7v2LA5KRcgqn8QF7Rd3sbKygoNaCkalhONnn8Kjs9b3SD3SfgEDSZfL5TA2NmZ6Ara2tjA1NYVz586Z/dN5pCzJy2UGHbX00hAQ9HRqSVWRy52MJORv9fitNgixmzRtJ3SeCioehO/8ZfAlhpDNH0A2HSsZrlkiZzaTRjqVwF652nqkrFRt7w1vtfKuOp2DaBj4yuVLeOVP/giPnp73bZyclJEy10F9k3aXQE6KNGpYWVs3A0+vPnOpu/L6mJuAEF5sJyA4PQijEqir4Fej+Ief30Q+NYFzp+cxkt50AAJQOSjg/sM1ZCemMZXLIpOp4ic/eQ8vvfRLZsnVgyJWV1ewn8ihtH4fyWNT2Hr4ACfmF3Bqbh6rn76Fe4VxTKQrSGZGkEylMHv6HPYefoTixEVcXjje1MLNzU188cUX5i2s4j3Y2Ngw+3L+/HksLS1henoaZ8+e1eiVdZS0eBG8lhnoQdCSsCURASGcbqYbTgIWS0bSdB2Y5s/HMHSKyi8U8qYH4bXXf4Za/ZjfkI07AtmC4oS5ZJ9KQlyfjccP2SRlc3BB09VThoFfvPQU/vQPfg/zszN2se1G0UBKliNq1par1gCFRuBBo2/NwQgOdmy6kLtZC+sUyWqtiuzYGGZnZjCiOcM6DK8FASH8KLgBQWbM8jOZdWsZQKOKYiGPza0dZManMDN9DKnKMl79z7v41jeumeevFHa2sFc2MDmVxdLSBs6ensSbb94wAUE+395YR1lisHY3sbG9jamZWXP5bn3pE2Qe+2VMbP0c65hFzihgXzbhlA8wcfwU9tfuIDF3Bc893gwI9+7dQ6lUMpcUBBQEdq5fv45r166Zxn51dRWXL8s9Jf4PAcFfo6ApCAhBFXOkl22PJcPa9ui3NdCvmvLBAf76+3+Hv//XHyFf3NPe1eZXrvW5jqHUK2mYUo0kk/id3/pN/Nkf/j5OHJ9uBKW2XN5sKSyHGgU+2GiYBJUjpBmDEHrEvQBBChNA0HpqFezuruKDmyu4sLCAudkp7C/fxL+8fhe//fJvIIsKNh4u4cF6Eacfm8Pnn63g4oV5vP3Ge3j2yiUk0yMo5zewupHH9PEJFPJ5HJ+dMwFhbfEjJM6+iNzW+1itnEAusYeykUR2YgKPLlxAfvF9rKUfw7OPyfeo8SwuLppxA7KUIEDw+eefm8DwzDPPoFgsQj6/cuWKVvck0b69ldsdqKgFUNq1DE9CAkIXY628CAdGysNkeBfsnCU2mW7DwIeffIIf/PuPceOzu/ZpiipFoyzL1FulWMcat7otrJ+49+Q1rl52t8E9i1Z5nSWrexm858+tByxb6awSVJt1Pe+qd41e62wXcM7Gm70CXlp4j06jhclkAo+fnsO3v/l1PP8Ll5HJpH3G2EDGBAQvVOziJTtiWQkI4Qe0a0Awqy7igxtLmJs5gWNTx3H/w7ewk8xiYv4JXDw9hf2dddxbXsfY9DEs3d3ApYun8fabP8fVFy4jlRlDsnqAe4uLODF/Cqv3PkNi8hS21nYxd8zAyPxlYOV97E9cwNjBGla2SkglDjA5M4fCcmcPwsLCggkKH3zwAZ544gkzQFG8B0E8CASE8O9Wu5wEhC41lRgEWWaoObwIbvPkVYXTCS0eafm/fEEkOGcnn7cuWrEzuk1fkCarMhRUWHnVdcbOYAgvp34DP8x/NdlpwxED5zb9hrVjwPyxjSv2/5t9Lc0udqtt9s/cnVedNn/urLsVooLoIw01dyi4FgVkxpEbz2Lm+HGtICnp1wiq5myKT3sFCAjh3452MQjaSww2ILz77sfY3S5gfm4ay1sGXvjSeXz80ae4dOUqjPwabnx8E5jIobALXHnmUfzP25/UYxC2NzZw68Z1nFw4j/z6KrIzJ7B4Zw1f/tKT2NnOY3fjDpZLk5jNGdguVsyTTR85O4f1xc4xCPPz88hms7h16xaefPJJs6W3b99mDEL41yWSnASELmUUeyU7GiqwLnPymyWrz9VSuYIDZzM8y/CypSqTg0ikDbJGrTuP9Wtvl/K0ze4EJKft76o9TZl1RqMJSVrGz61hp7YlUMNo0HsTeiXuIS6XgBB+cNy7GFQMQpAzEGqlTbx//TYy2SzW1zbx9PPP49REFmv37uD+9gEuPH4a+fV1bBUL+OzOMuZPTeHu3WU8/fR5pNJpjI0fw8qdm5iYnsJ6Ebh48XF8euMmXnjhCv73jddx9SsvolapYXvtAZY393Hh4lOYyo3gwafvYGPkAi67lhicuxjEayAxCBKAKZ6DoLsYOp2FwCWGcO8dASGcbk255FyEfQEEjw3yYlTcMKDjYdBpVt07YP/DhAMNSNEp252mnQPfyShqFu7+WZj6PMMmPM6l8gKNMPW5+asJBpwD1qbwDKqwFpr4dFKAgBD+/fA6B0EMrKy3y9kBWo9hoFqrYe3BfYycmMF0Lmd+1WqVMjbXV1EdncTs1Lg5yVAnE0rQtCy5ySPnJ+wXd7C5s4vxyRlM5cawsnQLy5sFIHsSz118BEa1jN3tLZRTOUyP1nB36T62dks4/+wlTI+2tjOqcxDkuGX547ysSoEBAUHr7WhJREAIp1tTLvkylSBbHpN1D4J8n7y8A91U5wSCbkyRjjOiddGgebbdTT+a8josfLOx7xZ1WvN35Z2wG+0FJLK8kObygtYrQUDQkskzkRsQ5P8CCPLIzHuYjaDzuGUBJucNjxbYRPHtDz92cc1JQIho5CpIoGLPIbVeRY1ZaVRA4NdFL++AVh/8Claf24XZm0F1c2mni6qt7cpp5/ExxycBpIwaUmYUCh8/BQgIfgq1/9x91LK69lggQQ5K0j1QKHwLDm9Ot/fAeRcDASH8uBEQwmvX7EUAcGACQnint9eSQbvmOY1Ru7XyIGvobWWwu1M/5MmZUAL8zP83m/5u5/4urvBYNtGvwWpf67mQbqPf0SPjIKi67gp65Ox31OwIlIhepiNcDAGhu8H18iKIi15+LpCge6Jid604XLkFkAQQ1AFJ9B5ENz4EhIi0FAMj5yGIF8HvUcbJDQQqnzOAv2Mwv50hkplrh0LUR4IB8m+vUx8UKlhxEI3CvEAmPEK1KuvX93azf3dJJnJ0ciFYnGHjkPW3YIflPehmwcfvbTlanxMQuh/Pdjc6SskCCMrF3n1Nh78EJxyo657pPYhu3AgI0Wlpmoly3YvQXLBpQhy7C+pw0KZ+P8MXuNktBTZm4X51yf4M9UdBglf9Cg6sLZ8WRnid0+DX9iAA4QYQd19afA0+IORl6ttBRoJLC35D2fI5ASGwZC0ZvG51VMsNklgAQR0U1H1th7MEFX+hdnKoi6DU3wxOjGbcCAjR6FgvxfIiWDsanMYm8jmmcnG72q/vfO/cceUpMO8XsM29H0ioElVfFSioMyKcF1sFkb2lXo2GOFYFOlbVtGTgM0jOamVbY9Jg3EGQcZS0BISginmnbwcJyrug3OzOWXU0NQ+uFAVB7pssnVCg7qRwXvU8uBbHv2YCQsRjKDZGYhF0r4Juqt7D8HnbQhsDnFNbj364Z75t4cGjHFlXDwoGnbwKUres1CuTavbLUa8K+NOw/WY17iZ7zfJ1btfUrc/ZN0E/Cw4ix76I38bDVxwBIbox8QpaVEbUCQrR1Xg4SpK+KQBwwoHTa8BdC9GMFQEhGh2bSpHTFcumU957mt9qlJymO7gPIIhL3rO7DusqRk/AoBdR+RYkJFBLWOcNtj8mutFKtwl2egbMZntcsR3G6LfTxTwR0vGYiyeG+In4hFGAgBBGtfZ5vCDB/G7JSayuP9HW3P/SnF4BBQbmZCGRqG9jpOcg2nEhIESrp234YC4zyNbHxlw3iElphgS3u7x+WWDAtrctp84xBtJG7yPyFSgYCQuilPfAGQRYV8DDu6GtpI+Hpdnw+4spywoSd6Bdv3+RQ5eCgBD9kDshwQkH6t+qRpUu+hb0p0R3XIEbDBQs9Kc1w1ELAaFH41yzAxZ1zUlwo+PtaXAiiV/X6vZTrikewHa9IJNaugAABsdJREFUBig09kcE18G7l9rlaEGELCmo1vqpys87KUBA6N374QUKztriDAjuJQOvIEQuK0T/bhEQote0XmI9YNF1ToBulZbt8t9t4DaGTq94k9fAPqq4Xr9dtBg/iQ6wbpPo/6N2OxiJBOSPuW6g89jG3UztZ+id6zAdutm61dFAosZ4A53h0ElDQNBRKXwaNwTEGQraqeAFAoSD8O9Mp5wEhN7oapYqdkju9xNQ0Flv92qKp91rihnwyGVfvKhuFlSI4bWeb4LBIXGbW0sNaoukggRNWGj728S+/NEupsXv0hYsJNZAlhQGA009fC0HWjQBoffyH0UoCAILvVd4eGogIPR4rAUMJBZB5uftAMDr506jXjeRXdpKNdG2/paWCRyEOamgt6JZJlnFJqhFEzuo0WXQozpi3ZJWHVQhf9ejI3rb2SErnYAwuAGPMzjQQzCY94aA0AfdxUHd8CLUTZF3sFtACHAuIehktcytPTsOdYxRHwRzVKFgwWIGtbHQ7qlaW/BbXmjbZNs7YEjRNZMP6DHo7fgSEHqrL0unAlEqQECIUs0OZZnb+8Q0m1Pezjvo3fauneHXAQJ3k47CHv76DRDmUopjKUJXkPqygY0f5l9cSujHV4GA0A+VWQcViEYBAkI0OmqV0nwOQHtr1gQIHvv8tSpzJFI+C8tzcFRd506vQgeFCANBX59I0xMQIpWThVGBnipAQOipvN6FK0+CuvooaBN0J8qWW948NYUn/wUVmel7ogABoSeyslAq0BMFCAg9kVWvUHNjoR213zDmrXkDAUGT50CC7dSNCHptYioq0EsFCAi9VJdlU4FoFSAgRKtnqNIasQlJ7/387YLwPCP6rUh8iXiwIvH5UIHDowAB4fCMBVtCBfwUICD4KdSnz+tb++zIfNO023v4Oht5FYlvw8CRjTHo00Cwmp4qQEDoqbwsnApEqgABIVI5oyvMAgRVnrXroRUUHNv0GIUfnfgsqWcKEBB6Ji0LpgKRK0BAiFxSFkgFqEA7BQgIfDeoQHwUICDEZ6zYUioQewUICLEfQnZgiBQgIAzRYLOrVGDQChAQBj0CrJ8K6CtAQNDXiimpABXoUgECQpcCMjsV6KMCBIQ+is2qqMCwK0BAGPY3gP2PkwIEhDiNFttKBWKuAAEh5gPI5g+VAgSEoRpudpYKDFYBAsJg9WftVCCIAgSEIGoxLRWgAl0pQEDoSj5mpgJ9VYCA0Fe5WRkVGG4FCAjDPf7sfbwUICDEa7zYWioQawUICLEePjZ+yBQgIAzZgLO7VGCQChAQBqk+66YCwRQgIATTi6mpABXoQgECQhfiMSsV6LMCBIQ+C87qqMAwK0BAGObRZ9/jpgABIW4jxvZSgRgrQECI8eCx6UOnAAFh6IacHaYCg1OAgDA47VkzFQiqAAEhqGJMTwWoQGgFCAihpWNGKtB3BQgIfZecFVKB4VWAgDC8Y8+ex08BAkL8xowtpgKxVYCAENuhY8OHUAECwhAOOrtMBQalAAFhUMqzXioQXAECQnDNmIMKUIGQChAQQgrHbFRgAAoQEAYgOqukAsOqAAFhWEee/Y6jAgSEOI4a20wFYqoAASGmA8dmD6UCBIShHHZ2mgoMRgECwmB0Z61UIIwCBIQwqjEPFaACoRQgIISSjZmowEAUICAMRHZWSgWGUwECwnCOO3sdTwUEEAqFPSR2dgvG6OhIPHvBVlMBKhALBQgIsRgmNpIKmAqYgFAkIPB1oAJUoA8KEBD6IDKroAIRKWABQokehIj0ZDFUgAp0UICAwNeDCsRHAQJCfMaKLaUCsVeAgBD7IWQHhkgBAsIQDTa7SgUGrQABYdAjwPqpgL4CBAR9rZiSClCBLhUgIHQpILNTgT4qQEDoo9isigoMuwIEhGF/A9j/OClAQIjTaLGtVCDmChAQYj6AbP5QKSCAUNzb5y6GoRp1dpYKDEgBAsKAhGe1VCCEAnVA2M0XjZGRTIgimIUKUAEqoKcAAUFPJ6aiAodBgVLpAMW9EhIEhMMwHGwDFTjaChAQjvb4sndHSwEBhL3SPgHhaA0re0MFDqcCBITDOS5sFRXwUqC0f4A9iUGgB4EvCBWgAr1WgIDQa4VZPhWITgECQnRasiQqQAV8FCAg8BWhAvFRQABBlhkS+cKekcmk49NytpQKUIHYKUBAiN2QscFDqoBhGOZFTZVKlYAwpO8Au00F+qoAAaGvcrMyKhBKAYGDg3IZpVIZ8u/Ezm7BSCaTZmHyA/fj9bNQNTMTFaACQ6tAKplEIjG03WfHqcAhVMD+Qjq+l9VKDdVaFYICif//wv4f9UEoW32akYsAAAAASUVORK5CYII=;" vertex="1" parent="2">
                    <mxGeometry x="470" y="320" width="957.46" height="580" as="geometry"/>
                </mxCell>
            </root>
        </mxGraphModel>
    </diagram>
</mxfile>